M48
;Layer_Color=9474304
;FILE_FORMAT=2:4
INCH
;TYPE=PLATED
T1F00S00C0.0118
T2F00S00C0.0197
T3F00S00C0.0354
T4F00S00C0.0433
T5F00S00C0.0551
T6F00S00C0.0670
T7F00S00C0.1570
%
T01
X069134Y045827
X069390Y045591
X070472Y046752
X072638Y046516
X073071
X073937Y046700
X075236Y046516
X075669
X076102
X076535Y046811
X074803Y047598
X074369Y047600
X074370Y048543
X074803
X073189Y048937
X072638Y049173
X072087Y048858
X071850Y048327
Y047913
X071004Y047894
Y048327
Y048760
Y049193
Y049626
Y050059
Y050492
Y050925
Y051358
X070472Y052067
X072638Y052303
X073071
X073504Y051752
X073937Y052097
X073701Y051024
X073268
X072638Y050591
X071457Y049882
X071004Y047461
X073504Y046988
X075197Y051378
X075236Y052303
X075669
X076102
X076535Y051929
X072008Y053504
T02
X040079Y042323
Y042717
Y043110
X045354
Y042717
Y042323
X047480
Y042717
Y043110
X052756
Y042717
Y042323
X054882
Y042717
Y043110
X060157
Y042717
Y042323
X062283
Y042717
Y043110
X067559
Y042717
Y042323
Y049724
Y050118
Y050512
X072544Y055717
X072504Y056109
X072464Y056500
X070054Y059184
X070015Y059576
X069975Y059967
X064726Y059434
X064766Y059042
X064806Y058651
X062504Y060277
X077713Y057033
X077752Y056642
X077792Y056250
X062464Y060669
X062424Y061060
X057176Y060527
X057215Y060135
X057255Y059744
X055248Y058471
X055287Y058080
X055327Y057688
X050039Y057546
X050079Y057155
X049999Y057938
X047848Y058080
X047808Y058471
X047887Y057688
X047480Y050512
Y050118
Y049724
X052756
Y050118
Y050512
X054882
Y050118
Y049724
X060157
Y050118
Y050512
X062283
Y050118
Y049724
X045354
Y050118
Y050512
X040079
Y050118
Y049724
X042639Y057155
X042599Y057547
X042559Y057938
X041891Y064519
X041851Y064910
X041811Y065302
X041143Y071882
X041103Y072274
X041063Y072666
X046352Y072807
X046312Y073199
X046392Y072415
X048543Y072274
X048583Y071882
X048503Y072666
X053791Y072807
X053752Y073199
X053831Y072415
X055759Y074471
X055719Y074863
X055680Y075254
X060968Y075396
X060928Y075788
X061008Y075004
X061676Y068424
X061716Y068032
X061756Y067641
X056467Y067499
X056507Y067107
X056428Y067891
X054500Y065835
X054539Y065443
X054579Y065052
X049291Y064910
X049331Y064518
X049251Y065302
X047100Y065443
X047060Y065835
X047139Y065052
X064058Y066014
X064018Y066406
X063978Y066798
X069267Y066939
X069227Y067331
X069307Y066548
X071716Y063864
X071756Y063472
X071796Y063081
X077044Y063614
X077004Y064005
X076965Y064397
X076296Y070977
X076256Y071369
X076217Y071761
X070968Y071228
X071008Y070836
X071048Y070444
X068559Y073911
X068519Y074303
X068479Y074695
X063230Y074161
X063270Y073770
X063310Y073378
T03
X075827Y047909
Y048909
Y049909
Y050909
T04
X042217Y044717
X043217
X049618
X050618
X057020
X058020
X064421
X065421
X068819Y043307
X078032
X075423Y058415
X074429Y058314
X067686Y061349
X066691Y061248
X065421Y052118
X064421
X058020
X057020
X050618
X049618
X051964Y059752
X052958Y059853
X059140Y062341
X060135Y062442
X045519Y059853
X044524Y059752
X043217Y052118
X042217
X043776Y067116
X044771Y067217
X044023Y074581
X043028Y074480
X050468Y074480
X051462Y074581
X051216Y067116
X052210Y067217
X058392Y069705
X059387Y069806
X058639Y077170
X057644Y077069
X065195Y075976
X066190Y076077
X065943Y068612
X066938Y068713
X073681Y065678
X074675Y065779
X073927Y073143
X072933Y073042
T05
X041717Y040797
X041217Y041717
X044217
X043717Y040797
X049118
X048618Y041717
X051618
X051118Y040797
X056520
X056020Y041717
X059020
X058520Y040797
X063921
X063421Y041717
X066421
X065921Y040797
Y048198
X066421Y049118
X063421
X063921Y048198
X066590Y057298
X065999Y058163
X068579Y057500
X068984Y058466
X073579Y061728
X075569Y061930
X076721Y055532
X076317Y054566
X074327Y054364
X073737Y055229
X061029Y058593
X061433Y059559
X058448Y059255
X059039Y058391
X054256Y056970
X053852Y056004
X051862Y055802
X051272Y056667
X051618Y049118
X051118Y048198
X049118
X048618Y049118
X056020
X056520Y048198
X058520
X059020Y049118
X044217
X043717Y048198
X041717
X041217Y049118
X044423Y055802
X043832Y056667
X046412Y056004
X046817Y056970
X045664Y063368
X046069Y064334
X043084Y064030
X043675Y063166
X042927Y070529
X042336Y071394
X044916Y070731
X045321Y071697
X049776Y071394
X050366Y070529
X052356Y070731
X052760Y071697
X057543Y073118
X056953Y073983
X059533Y073320
X059937Y074286
X060685Y066922
X060281Y065957
X058291Y065754
X057701Y066619
X053508Y064333
X053104Y063368
X051114Y063165
X050524Y064030
X065842Y064661
X065251Y065526
X067831Y064864
X068236Y065829
X067083Y072227
X067488Y073193
X064503Y072890
X065094Y072025
X072241Y069956
X072831Y069091
X074821Y069293
X075226Y070259
X075973Y062896
X072989Y062592
T06
X040717Y042717
X044717
X048118
X052118
X055520
X059520
X062921
X066921
Y050118
X062921
X065401Y059107
X069380Y059511
X073138Y056173
X077118Y056577
X061830Y060604
X057850Y060200
X054653Y058015
X050673Y057611
X047213Y058015
X048118Y050118
X052118
X055520
X059520
X044717
X040717
X043234Y057611
X042486Y064975
X046465Y065379
X045717Y072743
X041738Y072338
X049177Y072338
X053157Y072743
X056354Y074927
X060334Y075331
X061082Y067968
X057102Y067564
X053905Y065379
X049925Y064975
X064653Y066471
X068632Y066875
X071642Y070900
X075622Y071305
X076370Y063941
X072390Y063537
X067884Y074238
X063905Y073834
T07
X042717Y042717
X050118
X057520
X064921
Y050118
X067390Y059309
X075128Y056375
X059840Y060402
X052663Y057813
X050118Y050118
X057520
X042717
X045223Y057813
X044475Y065177
X043727Y072541
X051167Y072540
X051915Y065177
X059092Y067766
X058344Y075129
X065894Y074036
X066642Y066673
X074380Y063739
X073632Y071102
M30
