%FSAX24Y24*%
%MOIN*%
G70*
G01*
G75*
G04 Layer_Color=32896*
G04:AMPARAMS|DCode=10|XSize=590.6mil|YSize=334.6mil|CornerRadius=83.7mil|HoleSize=0mil|Usage=FLASHONLY|Rotation=0.000|XOffset=0mil|YOffset=0mil|HoleType=Round|Shape=RoundedRectangle|*
%AMROUNDEDRECTD10*
21,1,0.5906,0.1673,0,0,0.0*
21,1,0.4232,0.3346,0,0,0.0*
1,1,0.1673,0.2116,-0.0837*
1,1,0.1673,-0.2116,-0.0837*
1,1,0.1673,-0.2116,0.0837*
1,1,0.1673,0.2116,0.0837*
%
%ADD10ROUNDEDRECTD10*%
G04:AMPARAMS|DCode=11|XSize=53.2mil|YSize=66.9mil|CornerRadius=13.3mil|HoleSize=0mil|Usage=FLASHONLY|Rotation=180.000|XOffset=0mil|YOffset=0mil|HoleType=Round|Shape=RoundedRectangle|*
%AMROUNDEDRECTD11*
21,1,0.0532,0.0404,0,0,180.0*
21,1,0.0266,0.0669,0,0,180.0*
1,1,0.0266,-0.0133,0.0202*
1,1,0.0266,0.0133,0.0202*
1,1,0.0266,0.0133,-0.0202*
1,1,0.0266,-0.0133,-0.0202*
%
%ADD11ROUNDEDRECTD11*%
G04:AMPARAMS|DCode=12|XSize=25.6mil|YSize=61mil|CornerRadius=6.4mil|HoleSize=0mil|Usage=FLASHONLY|Rotation=270.000|XOffset=0mil|YOffset=0mil|HoleType=Round|Shape=RoundedRectangle|*
%AMROUNDEDRECTD12*
21,1,0.0256,0.0482,0,0,270.0*
21,1,0.0128,0.0610,0,0,270.0*
1,1,0.0128,-0.0241,-0.0064*
1,1,0.0128,-0.0241,0.0064*
1,1,0.0128,0.0241,0.0064*
1,1,0.0128,0.0241,-0.0064*
%
%ADD12ROUNDEDRECTD12*%
G04:AMPARAMS|DCode=13|XSize=27.6mil|YSize=78.7mil|CornerRadius=6.9mil|HoleSize=0mil|Usage=FLASHONLY|Rotation=180.000|XOffset=0mil|YOffset=0mil|HoleType=Round|Shape=RoundedRectangle|*
%AMROUNDEDRECTD13*
21,1,0.0276,0.0650,0,0,180.0*
21,1,0.0138,0.0787,0,0,180.0*
1,1,0.0138,-0.0069,0.0325*
1,1,0.0138,0.0069,0.0325*
1,1,0.0138,0.0069,-0.0325*
1,1,0.0138,-0.0069,-0.0325*
%
%ADD13ROUNDEDRECTD13*%
G04:AMPARAMS|DCode=14|XSize=27.6mil|YSize=78.7mil|CornerRadius=6.9mil|HoleSize=0mil|Usage=FLASHONLY|Rotation=270.000|XOffset=0mil|YOffset=0mil|HoleType=Round|Shape=RoundedRectangle|*
%AMROUNDEDRECTD14*
21,1,0.0276,0.0650,0,0,270.0*
21,1,0.0138,0.0787,0,0,270.0*
1,1,0.0138,-0.0325,-0.0069*
1,1,0.0138,-0.0325,0.0069*
1,1,0.0138,0.0325,0.0069*
1,1,0.0138,0.0325,-0.0069*
%
%ADD14ROUNDEDRECTD14*%
%ADD15C,0.0100*%
%ADD16C,0.0197*%
%ADD17C,0.0098*%
%ADD18C,0.0669*%
%ADD19C,0.0433*%
%ADD20C,0.0787*%
%ADD21R,0.0591X0.0591*%
%ADD22C,0.0591*%
%ADD23C,0.0630*%
%ADD24C,0.0394*%
%ADD25C,0.1693*%
%ADD26C,0.0984*%
G04:AMPARAMS|DCode=27|XSize=98.4mil|YSize=70.9mil|CornerRadius=0mil|HoleSize=0mil|Usage=FLASHONLY|Rotation=5.800|XOffset=0mil|YOffset=0mil|HoleType=Round|Shape=Round|*
%AMOVALD27*
21,1,0.0276,0.0709,0.0000,0.0000,5.8*
1,1,0.0709,-0.0137,-0.0014*
1,1,0.0709,0.0137,0.0014*
%
%ADD27OVALD27*%

%ADD28O,0.0984X0.0709*%
%ADD29C,0.0236*%
%ADD30C,0.0157*%
G04:AMPARAMS|DCode=31|XSize=598.6mil|YSize=342.6mil|CornerRadius=87.7mil|HoleSize=0mil|Usage=FLASHONLY|Rotation=0.000|XOffset=0mil|YOffset=0mil|HoleType=Round|Shape=RoundedRectangle|*
%AMROUNDEDRECTD31*
21,1,0.5986,0.1673,0,0,0.0*
21,1,0.4232,0.3426,0,0,0.0*
1,1,0.1753,0.2116,-0.0837*
1,1,0.1753,-0.2116,-0.0837*
1,1,0.1753,-0.2116,0.0837*
1,1,0.1753,0.2116,0.0837*
%
%ADD31ROUNDEDRECTD31*%
G04:AMPARAMS|DCode=32|XSize=61.2mil|YSize=74.9mil|CornerRadius=17.3mil|HoleSize=0mil|Usage=FLASHONLY|Rotation=180.000|XOffset=0mil|YOffset=0mil|HoleType=Round|Shape=RoundedRectangle|*
%AMROUNDEDRECTD32*
21,1,0.0612,0.0404,0,0,180.0*
21,1,0.0266,0.0749,0,0,180.0*
1,1,0.0346,-0.0133,0.0202*
1,1,0.0346,0.0133,0.0202*
1,1,0.0346,0.0133,-0.0202*
1,1,0.0346,-0.0133,-0.0202*
%
%ADD32ROUNDEDRECTD32*%
G04:AMPARAMS|DCode=33|XSize=33.6mil|YSize=69mil|CornerRadius=10.4mil|HoleSize=0mil|Usage=FLASHONLY|Rotation=270.000|XOffset=0mil|YOffset=0mil|HoleType=Round|Shape=RoundedRectangle|*
%AMROUNDEDRECTD33*
21,1,0.0336,0.0482,0,0,270.0*
21,1,0.0128,0.0690,0,0,270.0*
1,1,0.0208,-0.0241,-0.0064*
1,1,0.0208,-0.0241,0.0064*
1,1,0.0208,0.0241,0.0064*
1,1,0.0208,0.0241,-0.0064*
%
%ADD33ROUNDEDRECTD33*%
G04:AMPARAMS|DCode=34|XSize=35.6mil|YSize=86.7mil|CornerRadius=10.9mil|HoleSize=0mil|Usage=FLASHONLY|Rotation=180.000|XOffset=0mil|YOffset=0mil|HoleType=Round|Shape=RoundedRectangle|*
%AMROUNDEDRECTD34*
21,1,0.0356,0.0650,0,0,180.0*
21,1,0.0138,0.0867,0,0,180.0*
1,1,0.0218,-0.0069,0.0325*
1,1,0.0218,0.0069,0.0325*
1,1,0.0218,0.0069,-0.0325*
1,1,0.0218,-0.0069,-0.0325*
%
%ADD34ROUNDEDRECTD34*%
G04:AMPARAMS|DCode=35|XSize=35.6mil|YSize=86.7mil|CornerRadius=10.9mil|HoleSize=0mil|Usage=FLASHONLY|Rotation=270.000|XOffset=0mil|YOffset=0mil|HoleType=Round|Shape=RoundedRectangle|*
%AMROUNDEDRECTD35*
21,1,0.0356,0.0650,0,0,270.0*
21,1,0.0138,0.0867,0,0,270.0*
1,1,0.0218,-0.0325,-0.0069*
1,1,0.0218,-0.0325,0.0069*
1,1,0.0218,0.0325,0.0069*
1,1,0.0218,0.0325,-0.0069*
%
%ADD35ROUNDEDRECTD35*%
%ADD36C,0.0867*%
%ADD37R,0.0671X0.0671*%
%ADD38C,0.0671*%
%ADD39C,0.0710*%
%ADD40C,0.1773*%
%ADD41C,0.1064*%
G04:AMPARAMS|DCode=42|XSize=106.4mil|YSize=78.9mil|CornerRadius=0mil|HoleSize=0mil|Usage=FLASHONLY|Rotation=5.800|XOffset=0mil|YOffset=0mil|HoleType=Round|Shape=Round|*
%AMOVALD42*
21,1,0.0276,0.0789,0.0000,0.0000,5.8*
1,1,0.0789,-0.0137,-0.0014*
1,1,0.0789,0.0137,0.0014*
%
%ADD42OVALD42*%

%ADD43O,0.1064X0.0789*%
D30*
X078150Y039724D02*
Y041299D01*
X077625Y040774D01*
X077100Y041299D01*
Y039724D01*
X076575Y041299D02*
X076051D01*
X076313D01*
Y039724D01*
X076575D01*
X076051D01*
X075551Y041299D02*
X074502D01*
X075026D01*
Y039724D01*
X073190Y041299D02*
X073715D01*
X073977Y041036D01*
Y039987D01*
X073715Y039724D01*
X073190D01*
X072927Y039987D01*
Y041036D01*
X073190Y041299D01*
X071353Y041036D02*
X071615Y041299D01*
X072140D01*
X072403Y041036D01*
Y040774D01*
X072140Y040512D01*
X071615D01*
X071353Y040249D01*
Y039987D01*
X071615Y039724D01*
X072140D01*
X072403Y039987D01*
X070828Y041299D02*
X070304D01*
X070566D01*
Y039724D01*
X070828D01*
X070304D01*
X068714Y041036D02*
X068977Y041299D01*
X069501D01*
X069764Y041036D01*
Y040774D01*
X069501Y040512D01*
X068977D01*
X068714Y040249D01*
Y039987D01*
X068977Y039724D01*
X069501D01*
X069764Y039987D01*
M02*
