%FSAX24Y24*%
%MOIN*%
G70*
G01*
G75*
G04 Layer_Physical_Order=2*
G04 Layer_Color=16711680*
G04:AMPARAMS|DCode=10|XSize=590.6mil|YSize=334.6mil|CornerRadius=83.7mil|HoleSize=0mil|Usage=FLASHONLY|Rotation=0.000|XOffset=0mil|YOffset=0mil|HoleType=Round|Shape=RoundedRectangle|*
%AMROUNDEDRECTD10*
21,1,0.5906,0.1673,0,0,0.0*
21,1,0.4232,0.3346,0,0,0.0*
1,1,0.1673,0.2116,-0.0837*
1,1,0.1673,-0.2116,-0.0837*
1,1,0.1673,-0.2116,0.0837*
1,1,0.1673,0.2116,0.0837*
%
%ADD10ROUNDEDRECTD10*%
G04:AMPARAMS|DCode=11|XSize=53.2mil|YSize=66.9mil|CornerRadius=13.3mil|HoleSize=0mil|Usage=FLASHONLY|Rotation=180.000|XOffset=0mil|YOffset=0mil|HoleType=Round|Shape=RoundedRectangle|*
%AMROUNDEDRECTD11*
21,1,0.0532,0.0404,0,0,180.0*
21,1,0.0266,0.0669,0,0,180.0*
1,1,0.0266,-0.0133,0.0202*
1,1,0.0266,0.0133,0.0202*
1,1,0.0266,0.0133,-0.0202*
1,1,0.0266,-0.0133,-0.0202*
%
%ADD11ROUNDEDRECTD11*%
G04:AMPARAMS|DCode=12|XSize=25.6mil|YSize=61mil|CornerRadius=6.4mil|HoleSize=0mil|Usage=FLASHONLY|Rotation=270.000|XOffset=0mil|YOffset=0mil|HoleType=Round|Shape=RoundedRectangle|*
%AMROUNDEDRECTD12*
21,1,0.0256,0.0482,0,0,270.0*
21,1,0.0128,0.0610,0,0,270.0*
1,1,0.0128,-0.0241,-0.0064*
1,1,0.0128,-0.0241,0.0064*
1,1,0.0128,0.0241,0.0064*
1,1,0.0128,0.0241,-0.0064*
%
%ADD12ROUNDEDRECTD12*%
G04:AMPARAMS|DCode=13|XSize=27.6mil|YSize=78.7mil|CornerRadius=6.9mil|HoleSize=0mil|Usage=FLASHONLY|Rotation=180.000|XOffset=0mil|YOffset=0mil|HoleType=Round|Shape=RoundedRectangle|*
%AMROUNDEDRECTD13*
21,1,0.0276,0.0650,0,0,180.0*
21,1,0.0138,0.0787,0,0,180.0*
1,1,0.0138,-0.0069,0.0325*
1,1,0.0138,0.0069,0.0325*
1,1,0.0138,0.0069,-0.0325*
1,1,0.0138,-0.0069,-0.0325*
%
%ADD13ROUNDEDRECTD13*%
G04:AMPARAMS|DCode=14|XSize=27.6mil|YSize=78.7mil|CornerRadius=6.9mil|HoleSize=0mil|Usage=FLASHONLY|Rotation=270.000|XOffset=0mil|YOffset=0mil|HoleType=Round|Shape=RoundedRectangle|*
%AMROUNDEDRECTD14*
21,1,0.0276,0.0650,0,0,270.0*
21,1,0.0138,0.0787,0,0,270.0*
1,1,0.0138,-0.0325,-0.0069*
1,1,0.0138,-0.0325,0.0069*
1,1,0.0138,0.0325,0.0069*
1,1,0.0138,0.0325,-0.0069*
%
%ADD14ROUNDEDRECTD14*%
%ADD15C,0.0100*%
%ADD16C,0.0197*%
%ADD17C,0.0098*%
%ADD18C,0.0669*%
%ADD19C,0.0433*%
%ADD20C,0.0787*%
%ADD21R,0.0591X0.0591*%
%ADD22C,0.0591*%
%ADD23C,0.0630*%
%ADD24C,0.0394*%
%ADD25C,0.1693*%
%ADD26C,0.0984*%
G04:AMPARAMS|DCode=27|XSize=98.4mil|YSize=70.9mil|CornerRadius=0mil|HoleSize=0mil|Usage=FLASHONLY|Rotation=5.800|XOffset=0mil|YOffset=0mil|HoleType=Round|Shape=Round|*
%AMOVALD27*
21,1,0.0276,0.0709,0.0000,0.0000,5.8*
1,1,0.0709,-0.0137,-0.0014*
1,1,0.0709,0.0137,0.0014*
%
%ADD27OVALD27*%

%ADD28O,0.0984X0.0709*%
%ADD29C,0.0236*%
D10*
X073425Y043307D02*
D03*
D11*
X075000Y050669D02*
D03*
Y049724D02*
D03*
X074213D02*
D03*
Y050669D02*
D03*
D12*
X072116Y049508D02*
D03*
Y050256D02*
D03*
X073159Y049882D02*
D03*
D13*
X076535Y045984D02*
D03*
X071772D02*
D03*
X075236D02*
D03*
X074803D02*
D03*
X074370D02*
D03*
X073937D02*
D03*
X073504D02*
D03*
X073071D02*
D03*
X072205D02*
D03*
X076102D02*
D03*
X072638D02*
D03*
X075669D02*
D03*
X076102Y052835D02*
D03*
X071772D02*
D03*
X072205D02*
D03*
X072638D02*
D03*
X073071D02*
D03*
X073937D02*
D03*
X074370D02*
D03*
X074803D02*
D03*
X075236D02*
D03*
X075669D02*
D03*
X073504D02*
D03*
X076535D02*
D03*
D14*
X070472Y049193D02*
D03*
Y049626D02*
D03*
Y048327D02*
D03*
Y047028D02*
D03*
Y047461D02*
D03*
Y047894D02*
D03*
Y048760D02*
D03*
Y051358D02*
D03*
Y051791D02*
D03*
Y050492D02*
D03*
Y050925D02*
D03*
Y050059D02*
D03*
D15*
X067953Y043189D02*
Y045394D01*
X067874Y043110D02*
X067953Y043189D01*
X067559Y043110D02*
X067874D01*
X053346Y046063D02*
X069285D01*
X045945Y046299D02*
X069383D01*
X045945Y046535D02*
X069481D01*
X053346Y046772D02*
X069579D01*
X060748Y047008D02*
X069677D01*
X076102Y045984D02*
X076102Y045984D01*
X075669Y045984D02*
X075669Y045984D01*
Y046516D01*
X076102Y045984D02*
Y046516D01*
X073504Y051752D02*
Y052835D01*
X071831Y051752D02*
X073504D01*
X071575Y052008D02*
X071831Y051752D01*
X070689Y046496D02*
X071555Y047362D01*
X069993Y046024D02*
X070866D01*
X072087Y047244D01*
X071850Y047343D02*
Y047913D01*
X070768Y046260D02*
X071850Y047343D01*
X070091Y046260D02*
X070768D01*
X070188Y046496D02*
X070689D01*
X075236Y045984D02*
Y046516D01*
X073071Y045984D02*
Y046516D01*
X072638Y045984D02*
Y046516D01*
X076102Y052303D02*
Y052835D01*
X075669Y052303D02*
Y052835D01*
X075236Y052303D02*
Y052835D01*
X072638Y052303D02*
Y052835D01*
X071791Y052067D02*
X072835D01*
X073071Y052303D01*
X070472Y051358D02*
X071004D01*
X070472Y050925D02*
X071004D01*
X070472Y050492D02*
X071004D01*
X070472Y050059D02*
X071004D01*
X070472Y049626D02*
X071004D01*
X070472Y049193D02*
X071004D01*
X070472Y048760D02*
X071004D01*
X070472Y048327D02*
X071004D01*
X070472Y047894D02*
X071004D01*
X070472Y050492D02*
X071004D01*
X070472Y050059D02*
X071004D01*
X070472Y049626D02*
X071004D01*
X070472Y049193D02*
X071004D01*
X070472Y048760D02*
X071004D01*
X070472Y048327D02*
X071004D01*
X070472Y047894D02*
X071004D01*
X070472Y047461D02*
X071004D01*
X071417Y051339D02*
Y051890D01*
X071004Y050925D02*
X071417Y051339D01*
X070472Y050925D02*
X071004D01*
X070915Y052392D02*
X071417Y051890D01*
X071181Y051535D02*
Y051850D01*
X071004Y051358D02*
X071181Y051535D01*
X070472Y051358D02*
X071004D01*
X070661Y052370D02*
X071181Y051850D01*
X070472Y051791D02*
Y052067D01*
Y046752D02*
Y047028D01*
X070472Y047028D01*
X073071Y052323D02*
Y052835D01*
X071417Y052441D02*
X071791Y052067D01*
X071417Y052441D02*
Y057816D01*
X071170Y052413D02*
X071220Y052362D01*
X071170Y052413D02*
Y057556D01*
X070915Y052392D02*
Y057332D01*
X070661Y052370D02*
Y057109D01*
X071177Y060208D02*
X071420Y057819D01*
X070717Y059287D02*
X070915Y057332D01*
X071220Y052362D02*
X071575Y052008D01*
X076102Y052835D02*
Y053376D01*
X076159Y053433D01*
X067953Y049055D02*
X069980Y047028D01*
X067953Y049055D02*
Y049646D01*
X070217Y051791D02*
X070413D01*
X070079Y051929D02*
X070217Y051791D01*
X070079Y051929D02*
Y053937D01*
X068620Y055395D02*
X070079Y053937D01*
X067707Y053189D02*
X068189Y052707D01*
Y049252D02*
Y052707D01*
X067821Y053465D02*
X068425Y052860D01*
X067936Y053742D02*
X068661Y053016D01*
X068049Y054016D02*
X068898Y053167D01*
Y049843D02*
Y053167D01*
X069134Y050039D02*
Y053323D01*
Y050039D02*
X069980Y049193D01*
X068164Y054293D02*
X069134Y053323D01*
X069372Y050235D02*
Y053475D01*
Y050235D02*
X069980Y049626D01*
X068278Y054569D02*
X069372Y053475D01*
X069606Y050433D02*
Y053628D01*
Y050433D02*
X069980Y050059D01*
X068391Y054843D02*
X069606Y053628D01*
X069843Y050669D02*
Y053783D01*
Y050669D02*
X070020Y050492D01*
X068506Y055120D02*
X069843Y053783D01*
X068898Y049843D02*
X069980Y048760D01*
X068661Y049646D02*
Y053016D01*
Y049646D02*
X069980Y048327D01*
X068425Y049449D02*
Y052860D01*
Y049449D02*
X069980Y047894D01*
X068189Y049252D02*
X069980Y047461D01*
X070472D01*
X069980Y047894D02*
X070472D01*
X069980Y048327D02*
X070472D01*
X069980Y048760D02*
X070472D01*
X069980Y049193D02*
X070472D01*
X069980Y049626D02*
X070472D01*
X069980Y050059D02*
X070472D01*
X070020Y050492D02*
X070472D01*
X069980Y047028D02*
X070472D01*
X069579Y046772D02*
X070091Y046260D01*
X069677Y047008D02*
X070188Y046496D01*
X074803Y045551D02*
Y045984D01*
X074705Y045453D02*
X074803Y045551D01*
X074941Y045217D02*
X075236Y045512D01*
X070132Y045217D02*
X074941D01*
X049193Y053189D02*
X067707D01*
X067559Y049724D02*
X067874D01*
X067953Y049646D01*
X075236Y045512D02*
Y045984D01*
X070230Y045453D02*
X074705D01*
X069481Y046535D02*
X069993Y046024D01*
X069383Y046299D02*
X070230Y045453D01*
X069285Y046063D02*
X070132Y045217D01*
X053150Y043189D02*
Y045866D01*
X053071Y043110D02*
X053150Y043189D01*
X053071Y049724D02*
X053150Y049646D01*
Y046968D02*
Y049646D01*
X053150Y045866D02*
X053346Y046063D01*
X060551Y047205D02*
X060748Y047008D01*
X053150Y046968D02*
X053346Y046772D01*
X045748Y046732D02*
Y047323D01*
Y046732D02*
X045945Y046535D01*
X045748Y046102D02*
X045945Y046299D01*
X045748Y043189D02*
Y046102D01*
X070715Y067482D02*
X071424Y060510D01*
X070962Y067784D02*
X076719Y068369D01*
X070715Y067482D02*
X070962Y067784D01*
X071177Y060208D02*
X071424Y060510D01*
X071463Y060118D02*
X071710Y060420D01*
X071463Y060118D02*
X071678Y058003D01*
X078215Y053642D02*
X078427Y053901D01*
X076159Y053433D02*
X078215Y053642D01*
X077467Y061005D02*
X077679Y061264D01*
X071710Y060420D02*
X077467Y061005D01*
X076719Y068369D02*
X076931Y068628D01*
X077792Y056250D02*
X078106Y056282D01*
X078192Y056211D01*
X078427Y053901D01*
X063681Y055453D02*
X064016Y055118D01*
X063425Y055315D02*
X063911Y054836D01*
X056319Y054626D02*
X056654Y054291D01*
X056063Y054488D02*
X056549Y054010D01*
X048701Y053661D02*
X049187Y053183D01*
X048550Y057791D02*
X048955Y053799D01*
X048957Y053799D02*
X049291Y053465D01*
X063911Y054843D02*
X068391D01*
X063944Y055578D02*
X064126Y055395D01*
X068620D01*
X064016Y055120D02*
X068506D01*
X056549Y054016D02*
X068049D01*
X056582Y054751D02*
X056764Y054569D01*
X068278D01*
X056654Y054293D02*
X068164D01*
X049291Y053465D02*
X067821D01*
X049402Y053742D02*
X067936D01*
X049220Y053924D02*
X049402Y053742D01*
X048287Y057650D02*
X048692Y053661D01*
X077444Y063575D02*
X077679Y061264D01*
X077358Y063646D02*
X077444Y063575D01*
X077044Y063614D02*
X077358Y063646D01*
X076696Y070939D02*
X076931Y068628D01*
X076610Y071009D02*
X076696Y070939D01*
X076296Y070977D02*
X076610Y071009D01*
X068559Y073911D02*
X068872Y073943D01*
X068958Y073873D01*
X069193Y071562D01*
X069941Y064198D02*
X070415Y059533D01*
X069307Y066548D02*
X069620Y066579D01*
X070054Y059184D02*
X070368Y059216D01*
X070454Y059145D01*
X070661Y057109D01*
X069620Y066579D02*
X069706Y066509D01*
X069941Y064198D01*
X069193Y071562D02*
X069667Y066897D01*
X069969Y066650D02*
X070677Y059675D01*
X069667Y066897D02*
X069969Y066650D01*
X070415Y059533D02*
X070717Y059287D01*
X070979Y059428D02*
X071170Y057556D01*
X070677Y059675D02*
X070979Y059428D01*
X061008Y075004D02*
X061321Y075036D01*
X061408Y074966D01*
X061642Y072655D01*
X062390Y065291D02*
X062864Y060626D01*
X061756Y067641D02*
X062069Y067672D01*
X062504Y060277D02*
X062817Y060309D01*
X062903Y060238D01*
X063404Y055313D01*
X062069Y067672D02*
X062155Y067602D01*
X062390Y065291D01*
X061642Y072655D02*
X062116Y067990D01*
X062418Y067743D02*
X063127Y060767D01*
X062116Y067990D02*
X062418Y067743D01*
X062864Y060626D02*
X063166Y060380D01*
X063166D02*
X063667Y055451D01*
X063429Y060521D02*
X063931Y055576D01*
X063127Y060767D02*
X063429Y060521D01*
X053831Y072415D02*
X054145Y072447D01*
X054231Y072377D01*
X054466Y070066D01*
X055214Y062702D02*
X055687Y058037D01*
X054579Y065052D02*
X054893Y065083D01*
X055327Y057688D02*
X055640Y057720D01*
X055727Y057649D01*
X056048Y054487D01*
X054893Y065083D02*
X054979Y065013D01*
X055214Y062702D01*
X054466Y070066D02*
X054939Y065401D01*
X055241Y065154D02*
X055950Y058179D01*
X054939Y065401D02*
X055241Y065154D01*
X055687Y058037D02*
X055989Y057791D01*
X055989D02*
X056311Y054625D01*
X056252Y057932D02*
X056575Y054750D01*
X055950Y058179D02*
X056252Y057932D01*
X048510Y058179D02*
X048812Y057932D01*
X048812D02*
X049220Y053924D01*
X048248Y058037D02*
X048550Y057791D01*
X047500Y065401D02*
X047802Y065155D01*
X047802D02*
X048510Y058179D01*
X047026Y070066D02*
X047500Y065401D01*
X052756Y043110D02*
X053071D01*
X060551Y043189D02*
Y045630D01*
X060472Y043110D02*
X060551Y043189D01*
X060157Y043110D02*
X060472D01*
X060551Y047205D02*
Y049646D01*
X060472Y049724D02*
X060551Y049646D01*
X060157Y049724D02*
X060472D01*
X052756D02*
X053071D01*
X045354D02*
X045669D01*
X045748Y049646D01*
Y047323D02*
Y049646D01*
X045354Y043110D02*
X045669D01*
X045748Y043189D01*
X047539Y065013D02*
X047774Y062702D01*
X047453Y065084D02*
X047539Y065013D01*
X048201Y057720D02*
X048287Y057650D01*
X047887Y057688D02*
X048201Y057720D01*
X047139Y065052D02*
X047453Y065084D01*
X047774Y062702D02*
X048248Y058037D01*
X046791Y072377D02*
X047026Y070066D01*
X046705Y072447D02*
X046791Y072377D01*
X046392Y072415D02*
X046705Y072447D01*
X073937Y052097D02*
Y052835D01*
X074803Y045984D02*
Y046700D01*
X074370Y045984D02*
Y046582D01*
X074252Y046700D02*
X074370Y046582D01*
X073937Y046700D02*
X074252D01*
X067953Y045394D02*
X068150Y045591D01*
X069390D01*
X060551Y045630D02*
X060748Y045827D01*
X069134D01*
X072087Y047244D02*
Y048858D01*
X071555Y047362D02*
Y048032D01*
X071850Y048327D01*
X073504Y046988D02*
X074515D01*
X074803Y046700D01*
X072441Y053307D02*
X072638Y053110D01*
Y052835D02*
Y053110D01*
X072441Y053307D02*
Y053465D01*
X071678Y054227D02*
Y058003D01*
Y054227D02*
X072441Y053465D01*
X072008Y053504D02*
X072205Y053307D01*
Y052835D02*
Y053307D01*
D16*
X068819Y043307D02*
X073425D01*
X072116Y050256D02*
Y050463D01*
X072244Y050591D01*
X072638D01*
X072116Y049301D02*
Y049508D01*
Y049301D02*
X072244Y049173D01*
X072638D01*
X071457Y049882D02*
X073140D01*
X071772Y045984D02*
Y046575D01*
X072638Y047441D01*
Y049173D01*
X072205Y045984D02*
Y046535D01*
X073159Y048967D02*
Y049882D01*
Y048967D02*
X073189Y048937D01*
X072205Y046535D02*
X072953Y047283D01*
X073701D01*
X072638Y050591D02*
X073701D01*
Y047283D02*
Y050591D01*
X074134D01*
X074213Y050669D01*
X073701Y047283D02*
X075039D01*
X075512Y046811D01*
X076535D01*
Y045984D02*
Y046811D01*
D17*
X074213Y049724D02*
X075000D01*
Y050669D02*
Y051181D01*
X075197Y051378D01*
X075236Y051417D01*
Y052303D01*
X074370Y052126D02*
Y052835D01*
X073268Y051024D02*
X074370Y052126D01*
X074803D02*
Y052835D01*
X073701Y051024D02*
X074803Y052126D01*
Y047598D02*
Y048543D01*
X074369Y047600D02*
Y048543D01*
X074370Y048543D02*
X074685Y048858D01*
X074961D01*
X076535Y051929D02*
X076535Y051929D01*
Y052835D01*
X074961Y048858D02*
X075827Y049724D01*
Y049909D01*
D18*
X045321Y071697D02*
X045717Y072743D01*
X041738Y072338D02*
X042336Y071394D01*
X044916Y070731D02*
X045321Y071697D01*
X042336Y071394D02*
X042927Y070529D01*
X052760Y071697D02*
X053157Y072743D01*
X049177Y072338D02*
X049776Y071394D01*
X052356Y070731D02*
X052760Y071697D01*
X049776Y071394D02*
X050366Y070529D01*
X059937Y074286D02*
X060334Y075331D01*
X056354Y074927D02*
X056953Y073983D01*
X059533Y073320D02*
X059937Y074286D01*
X056953Y073983D02*
X057543Y073118D01*
X067488Y073193D02*
X067884Y074238D01*
X063905Y073834D02*
X064503Y072890D01*
X067083Y072227D02*
X067488Y073193D01*
X064503Y072890D02*
X065094Y072025D01*
X075226Y070259D02*
X075622Y071305D01*
X071642Y070900D02*
X072241Y069956D01*
X074821Y069293D02*
X075226Y070259D01*
X072241Y069956D02*
X072831Y069091D01*
X046069Y064334D02*
X046465Y065379D01*
X042486Y064975D02*
X043084Y064030D01*
X045664Y063368D02*
X046069Y064334D01*
X043084Y064030D02*
X043675Y063166D01*
X053508Y064333D02*
X053905Y065379D01*
X049925Y064975D02*
X050524Y064030D01*
X053104Y063368D02*
X053508Y064333D01*
X050524Y064030D02*
X051114Y063165D01*
X060685Y066922D02*
X061082Y067968D01*
X057102Y067564D02*
X057701Y066619D01*
X060281Y065957D02*
X060685Y066922D01*
X057701Y066619D02*
X058291Y065754D01*
X068236Y065829D02*
X068632Y066875D01*
X064653Y066471D02*
X065251Y065526D01*
X067831Y064864D02*
X068236Y065829D01*
X065251Y065526D02*
X065842Y064661D01*
X075973Y062896D02*
X076370Y063941D01*
X072390Y063537D02*
X072989Y062592D01*
X075569Y061930D02*
X075973Y062896D01*
X072989Y062592D02*
X073579Y061728D01*
X046817Y056970D02*
X047213Y058015D01*
X043234Y057611D02*
X043832Y056667D01*
X046412Y056004D02*
X046817Y056970D01*
X043832Y056667D02*
X044423Y055802D01*
X054256Y056970D02*
X054653Y058015D01*
X050673Y057611D02*
X051272Y056667D01*
X053852Y056004D02*
X054256Y056970D01*
X051272Y056667D02*
X051862Y055802D01*
X061433Y059559D02*
X061830Y060604D01*
X057850Y060200D02*
X058448Y059255D01*
X061029Y058593D02*
X061433Y059559D01*
X058448Y059255D02*
X059039Y058391D01*
X068984Y058466D02*
X069380Y059511D01*
X065401Y059107D02*
X065999Y058163D01*
X068579Y057500D02*
X068984Y058466D01*
X065999Y058163D02*
X066590Y057298D01*
X076721Y055532D02*
X077118Y056577D01*
X073138Y056173D02*
X073737Y055229D01*
X076317Y054566D02*
X076721Y055532D01*
X073737Y055229D02*
X074327Y054364D01*
X044217Y049118D02*
X044717Y050118D01*
X040717D02*
X041217Y049118D01*
X043717Y048198D02*
X044217Y049118D01*
X041217D02*
X041717Y048198D01*
X051618Y049118D02*
X052118Y050118D01*
X048118D02*
X048618Y049118D01*
X051118Y048198D02*
X051618Y049118D01*
X048618D02*
X049118Y048198D01*
X059020Y049118D02*
X059520Y050118D01*
X055520D02*
X056020Y049118D01*
X058520Y048198D02*
X059020Y049118D01*
X056020D02*
X056520Y048198D01*
X066421Y049118D02*
X066921Y050118D01*
X062921D02*
X063421Y049118D01*
X065921Y048198D02*
X066421Y049118D01*
X063421D02*
X063921Y048198D01*
X044217Y041717D02*
X044717Y042717D01*
X040717D02*
X041217Y041717D01*
X043717Y040797D02*
X044217Y041717D01*
X041217D02*
X041717Y040797D01*
X051618Y041717D02*
X052118Y042717D01*
X048118D02*
X048618Y041717D01*
X051118Y040797D02*
X051618Y041717D01*
X048618D02*
X049118Y040797D01*
X059020Y041717D02*
X059520Y042717D01*
X055520D02*
X056020Y041717D01*
X058520Y040797D02*
X059020Y041717D01*
X056020D02*
X056520Y040797D01*
X066421Y041717D02*
X066921Y042717D01*
X062921D02*
X063421Y041717D01*
X065921Y040797D02*
X066421Y041717D01*
X063421D02*
X063921Y040797D01*
D19*
X045137Y073079D02*
X046312Y073199D01*
X045137Y073079D02*
X045252Y071944D01*
X045451Y072320D02*
X046392Y072415D01*
X045717Y072743D02*
X046352Y072807D01*
X046312Y073199D02*
X046392Y072415D01*
X041063Y072666D02*
X041143Y071882D01*
X041103Y072274D02*
X041738Y072338D01*
X041143Y071882D02*
X042083Y071978D01*
X042238Y072785D02*
X042354Y071649D01*
X041063Y072666D02*
X042238Y072785D01*
X052577Y073079D02*
X053752Y073199D01*
X052577Y073079D02*
X052692Y071943D01*
X052891Y072320D02*
X053831Y072415D01*
X053157Y072743D02*
X053791Y072807D01*
X053752Y073199D02*
X053831Y072415D01*
X048503Y072666D02*
X048583Y071882D01*
X048543Y072274D02*
X049177Y072338D01*
X048583Y071882D02*
X049523Y071978D01*
X049678Y072785D02*
X049793Y071649D01*
X048503Y072666D02*
X049678Y072785D01*
X059753Y075668D02*
X060928Y075788D01*
X059753Y075668D02*
X059869Y074532D01*
X060068Y074909D02*
X061008Y075004D01*
X060334Y075331D02*
X060968Y075396D01*
X060928Y075788D02*
X061008Y075004D01*
X055680Y075254D02*
X055759Y074471D01*
X055719Y074863D02*
X056354Y074927D01*
X055759Y074471D02*
X056699Y074567D01*
X056855Y075374D02*
X056970Y074238D01*
X055680Y075254D02*
X056855Y075374D01*
X067304Y074575D02*
X068479Y074695D01*
X067304Y074575D02*
X067419Y073439D01*
X067618Y073816D02*
X068559Y073911D01*
X067884Y074238D02*
X068519Y074303D01*
X068479Y074695D02*
X068559Y073911D01*
X063230Y074161D02*
X063310Y073378D01*
X063270Y073770D02*
X063905Y073834D01*
X063310Y073378D02*
X064250Y073474D01*
X064405Y074281D02*
X064521Y073145D01*
X063230Y074161D02*
X064405Y074281D01*
X075042Y071641D02*
X076217Y071761D01*
X075042Y071641D02*
X075157Y070505D01*
X075356Y070882D02*
X076296Y070977D01*
X075622Y071305D02*
X076256Y071369D01*
X076217Y071761D02*
X076296Y070977D01*
X070968Y071228D02*
X071048Y070444D01*
X071008Y070836D02*
X071642Y070900D01*
X071048Y070444D02*
X071988Y070540D01*
X072143Y071347D02*
X072258Y070211D01*
X070968Y071228D02*
X072143Y071347D01*
X045885Y065716D02*
X047060Y065835D01*
X045885Y065716D02*
X046000Y064580D01*
X046199Y064956D02*
X047139Y065052D01*
X046465Y065379D02*
X047100Y065443D01*
X047060Y065835D02*
X047139Y065052D01*
X041811Y065302D02*
X041891Y064519D01*
X041851Y064910D02*
X042486Y064975D01*
X041891Y064519D02*
X042831Y064614D01*
X042986Y065421D02*
X043102Y064285D01*
X041811Y065302D02*
X042986Y065421D01*
X053325Y065716D02*
X054500Y065835D01*
X053325Y065716D02*
X053440Y064580D01*
X053639Y064956D02*
X054579Y065052D01*
X053905Y065379D02*
X054539Y065443D01*
X054500Y065835D02*
X054579Y065052D01*
X049251Y065302D02*
X049331Y064518D01*
X049291Y064910D02*
X049925Y064975D01*
X049331Y064518D02*
X050271Y064614D01*
X050426Y065421D02*
X050541Y064285D01*
X049251Y065302D02*
X050426Y065421D01*
X060501Y068305D02*
X061676Y068424D01*
X060501Y068305D02*
X060617Y067169D01*
X060816Y067545D02*
X061756Y067641D01*
X061082Y067968D02*
X061716Y068032D01*
X061676Y068424D02*
X061756Y067641D01*
X056428Y067891D02*
X056507Y067107D01*
X056467Y067499D02*
X057102Y067564D01*
X056507Y067107D02*
X057447Y067203D01*
X057603Y068010D02*
X057718Y066874D01*
X056428Y067891D02*
X057603Y068010D01*
X068052Y067212D02*
X069227Y067331D01*
X068052Y067212D02*
X068167Y066076D01*
X068366Y066452D02*
X069307Y066548D01*
X068632Y066875D02*
X069267Y066939D01*
X069227Y067331D02*
X069307Y066548D01*
X063978Y066798D02*
X064058Y066014D01*
X064018Y066406D02*
X064653Y066471D01*
X064058Y066014D02*
X064998Y066110D01*
X065153Y066917D02*
X065269Y065781D01*
X063978Y066798D02*
X065153Y066917D01*
X075790Y064278D02*
X076965Y064397D01*
X075790Y064278D02*
X075905Y063142D01*
X076104Y063518D02*
X077044Y063614D01*
X076370Y063941D02*
X077004Y064005D01*
X076965Y064397D02*
X077044Y063614D01*
X071716Y063864D02*
X071796Y063081D01*
X071756Y063472D02*
X072390Y063537D01*
X071796Y063081D02*
X072736Y063176D01*
X072891Y063983D02*
X073006Y062847D01*
X071716Y063864D02*
X072891Y063983D01*
X046633Y058352D02*
X047808Y058471D01*
X046633Y058352D02*
X046748Y057216D01*
X046947Y057593D02*
X047887Y057688D01*
X047213Y058015D02*
X047848Y058080D01*
X047808Y058471D02*
X047887Y057688D01*
X042559Y057938D02*
X042639Y057155D01*
X042599Y057547D02*
X043234Y057611D01*
X042639Y057155D02*
X043579Y057250D01*
X043734Y058058D02*
X043850Y056922D01*
X042559Y057938D02*
X043734Y058058D01*
X054072Y058352D02*
X055248Y058471D01*
X054072Y058352D02*
X054188Y057216D01*
X054387Y057592D02*
X055327Y057688D01*
X054653Y058015D02*
X055287Y058080D01*
X055248Y058471D02*
X055327Y057688D01*
X049999Y057938D02*
X050079Y057155D01*
X050039Y057546D02*
X050673Y057611D01*
X050079Y057155D02*
X051019Y057250D01*
X051174Y058058D02*
X051289Y056922D01*
X049999Y057938D02*
X051174Y058058D01*
X061249Y060941D02*
X062424Y061060D01*
X061249Y060941D02*
X061365Y059805D01*
X061564Y060181D02*
X062504Y060277D01*
X061830Y060604D02*
X062464Y060669D01*
X062424Y061060D02*
X062504Y060277D01*
X057176Y060527D02*
X057255Y059744D01*
X057215Y060135D02*
X057850Y060200D01*
X057255Y059744D02*
X058195Y059839D01*
X058351Y060646D02*
X058466Y059511D01*
X057176Y060527D02*
X058351Y060646D01*
X068800Y059848D02*
X069975Y059967D01*
X068800Y059848D02*
X068915Y058712D01*
X069114Y059088D02*
X070054Y059184D01*
X069380Y059511D02*
X070015Y059576D01*
X069975Y059967D02*
X070054Y059184D01*
X064726Y059434D02*
X064806Y058651D01*
X064766Y059042D02*
X065401Y059107D01*
X064806Y058651D02*
X065746Y058746D01*
X065901Y059553D02*
X066017Y058418D01*
X064726Y059434D02*
X065901Y059553D01*
X076538Y056914D02*
X077713Y057033D01*
X076538Y056914D02*
X076653Y055778D01*
X076852Y056155D02*
X077792Y056250D01*
X077118Y056577D02*
X077752Y056642D01*
X077713Y057033D02*
X077792Y056250D01*
X072464Y056500D02*
X072544Y055717D01*
X072504Y056109D02*
X073138Y056173D01*
X072544Y055717D02*
X073484Y055812D01*
X073639Y056620D02*
X073754Y055484D01*
X072464Y056500D02*
X073639Y056620D01*
X044173Y050512D02*
X045354D01*
X044173Y049370D02*
Y050512D01*
X044409Y049724D02*
X045354D01*
X044717Y050118D02*
X045354D01*
Y049724D02*
Y050512D01*
X040079Y049724D02*
Y050512D01*
Y050118D02*
X040717D01*
X040079Y049724D02*
X041024D01*
X041260Y049370D02*
Y050512D01*
X040079D02*
X041260D01*
X051575D02*
X052756D01*
X051575Y049370D02*
Y050512D01*
X051811Y049724D02*
X052756D01*
X052118Y050118D02*
X052756D01*
Y049724D02*
Y050512D01*
X047480Y049724D02*
Y050512D01*
Y050118D02*
X048118D01*
X047480Y049724D02*
X048425D01*
X048661Y049370D02*
Y050512D01*
X047480D02*
X048661D01*
X058976D02*
X060157D01*
X058976Y049370D02*
Y050512D01*
X059213Y049724D02*
X060157D01*
X059520Y050118D02*
X060157D01*
Y049724D02*
Y050512D01*
X054882Y049724D02*
Y050512D01*
Y050118D02*
X055520D01*
X054882Y049724D02*
X055827D01*
X056063Y049370D02*
Y050512D01*
X054882D02*
X056063D01*
X066378D02*
X067559D01*
X066378Y049370D02*
Y050512D01*
X066614Y049724D02*
X067559D01*
X066921Y050118D02*
X067559D01*
Y049724D02*
Y050512D01*
X062283Y049724D02*
Y050512D01*
Y050118D02*
X062921D01*
X062283Y049724D02*
X063228D01*
X063465Y049370D02*
Y050512D01*
X062283D02*
X063465D01*
X044173Y043110D02*
X045354D01*
X044173Y041968D02*
Y043110D01*
X044409Y042323D02*
X045354D01*
X044717Y042717D02*
X045354D01*
Y042323D02*
Y043110D01*
X040079Y042323D02*
Y043110D01*
Y042717D02*
X040717D01*
X040079Y042323D02*
X041024D01*
X041260Y041968D02*
Y043110D01*
X040079D02*
X041260D01*
X051575D02*
X052756D01*
X051575Y041968D02*
Y043110D01*
X051811Y042323D02*
X052756D01*
X052118Y042717D02*
X052756D01*
Y042323D02*
Y043110D01*
X047480Y042323D02*
Y043110D01*
Y042717D02*
X048118D01*
X047480Y042323D02*
X048425D01*
X048661Y041968D02*
Y043110D01*
X047480D02*
X048661D01*
X058976D02*
X060157D01*
X058976Y041968D02*
Y043110D01*
X059213Y042323D02*
X060157D01*
X059520Y042717D02*
X060157D01*
Y042323D02*
Y043110D01*
X054882Y042323D02*
Y043110D01*
Y042717D02*
X055520D01*
X054882Y042323D02*
X055827D01*
X056063Y041968D02*
Y043110D01*
X054882D02*
X056063D01*
X066378D02*
X067559D01*
X066378Y041968D02*
Y043110D01*
X066614Y042323D02*
X067559D01*
X066921Y042717D02*
X067559D01*
Y042323D02*
Y043110D01*
X062283Y042323D02*
Y043110D01*
Y042717D02*
X062921D01*
X062283Y042323D02*
X063228D01*
X063465Y041968D02*
Y043110D01*
X062283D02*
X063465D01*
D20*
X068819Y043307D02*
D03*
X078032D02*
D03*
X045717Y072743D02*
D03*
X041738Y072338D02*
D03*
X053157Y072743D02*
D03*
X049177Y072338D02*
D03*
X060334Y075331D02*
D03*
X056354Y074927D02*
D03*
X067884Y074238D02*
D03*
X063905Y073834D02*
D03*
X075622Y071305D02*
D03*
X071642Y070900D02*
D03*
X046465Y065379D02*
D03*
X042486Y064975D02*
D03*
X053905Y065379D02*
D03*
X049925Y064975D02*
D03*
X061082Y067968D02*
D03*
X057102Y067564D02*
D03*
X068632Y066875D02*
D03*
X064653Y066471D02*
D03*
X076370Y063941D02*
D03*
X072390Y063537D02*
D03*
X047213Y058015D02*
D03*
X043234Y057611D02*
D03*
X054653Y058015D02*
D03*
X050673Y057611D02*
D03*
X061830Y060604D02*
D03*
X057850Y060200D02*
D03*
X069380Y059511D02*
D03*
X065401Y059107D02*
D03*
X077118Y056577D02*
D03*
X073138Y056173D02*
D03*
X044717Y050118D02*
D03*
X040717D02*
D03*
X052118D02*
D03*
X048118D02*
D03*
X059520D02*
D03*
X055520D02*
D03*
X066921D02*
D03*
X062921D02*
D03*
X044717Y042717D02*
D03*
X040717D02*
D03*
X052118D02*
D03*
X048118D02*
D03*
X059520D02*
D03*
X055520D02*
D03*
X066921D02*
D03*
X062921D02*
D03*
D21*
X075827Y047909D02*
D03*
D22*
Y048909D02*
D03*
Y049909D02*
D03*
Y050909D02*
D03*
D23*
X043028Y074480D02*
D03*
X044023Y074581D02*
D03*
X050468Y074480D02*
D03*
X051462Y074581D02*
D03*
X057644Y077069D02*
D03*
X058639Y077170D02*
D03*
X065195Y075976D02*
D03*
X066190Y076077D02*
D03*
X072933Y073042D02*
D03*
X073927Y073143D02*
D03*
X043776Y067116D02*
D03*
X044771Y067217D02*
D03*
X051216Y067116D02*
D03*
X052210Y067217D02*
D03*
X058392Y069705D02*
D03*
X059387Y069806D02*
D03*
X065943Y068612D02*
D03*
X066938Y068713D02*
D03*
X073681Y065678D02*
D03*
X074675Y065779D02*
D03*
X044524Y059752D02*
D03*
X045519Y059853D02*
D03*
X051964Y059752D02*
D03*
X052958Y059853D02*
D03*
X059140Y062341D02*
D03*
X060135Y062442D02*
D03*
X066691Y061248D02*
D03*
X067686Y061349D02*
D03*
X074429Y058314D02*
D03*
X075423Y058415D02*
D03*
X042217Y052118D02*
D03*
X043217D02*
D03*
X049618D02*
D03*
X050618D02*
D03*
X057020D02*
D03*
X058020D02*
D03*
X064421D02*
D03*
X065421D02*
D03*
X042217Y044717D02*
D03*
X043217D02*
D03*
X049618D02*
D03*
X050618D02*
D03*
X057020D02*
D03*
X058020D02*
D03*
X064421D02*
D03*
X065421D02*
D03*
D24*
X046392Y072415D02*
D03*
X046312Y073199D02*
D03*
X046352Y072807D02*
D03*
X041103Y072274D02*
D03*
X041143Y071882D02*
D03*
X041063Y072666D02*
D03*
X053831Y072415D02*
D03*
X053752Y073199D02*
D03*
X053791Y072807D02*
D03*
X048543Y072274D02*
D03*
X048583Y071882D02*
D03*
X048503Y072666D02*
D03*
X061008Y075004D02*
D03*
X060928Y075788D02*
D03*
X060968Y075396D02*
D03*
X055719Y074863D02*
D03*
X055759Y074471D02*
D03*
X055680Y075254D02*
D03*
X068559Y073911D02*
D03*
X068479Y074695D02*
D03*
X068519Y074303D02*
D03*
X063270Y073770D02*
D03*
X063310Y073378D02*
D03*
X063230Y074161D02*
D03*
X076296Y070977D02*
D03*
X076217Y071761D02*
D03*
X076256Y071369D02*
D03*
X071008Y070836D02*
D03*
X071048Y070444D02*
D03*
X070968Y071228D02*
D03*
X047139Y065052D02*
D03*
X047060Y065835D02*
D03*
X047100Y065443D02*
D03*
X041851Y064910D02*
D03*
X041891Y064519D02*
D03*
X041811Y065302D02*
D03*
X054579Y065052D02*
D03*
X054500Y065835D02*
D03*
X054539Y065443D02*
D03*
X049291Y064910D02*
D03*
X049331Y064518D02*
D03*
X049251Y065302D02*
D03*
X061756Y067641D02*
D03*
X061676Y068424D02*
D03*
X061716Y068032D02*
D03*
X056467Y067499D02*
D03*
X056507Y067107D02*
D03*
X056428Y067891D02*
D03*
X069307Y066548D02*
D03*
X069227Y067331D02*
D03*
X069267Y066939D02*
D03*
X064018Y066406D02*
D03*
X064058Y066014D02*
D03*
X063978Y066798D02*
D03*
X077044Y063614D02*
D03*
X076965Y064397D02*
D03*
X077004Y064005D02*
D03*
X071756Y063472D02*
D03*
X071796Y063081D02*
D03*
X071716Y063864D02*
D03*
X047887Y057688D02*
D03*
X047808Y058471D02*
D03*
X047848Y058080D02*
D03*
X042599Y057547D02*
D03*
X042639Y057155D02*
D03*
X042559Y057938D02*
D03*
X055327Y057688D02*
D03*
X055248Y058471D02*
D03*
X055287Y058080D02*
D03*
X050039Y057546D02*
D03*
X050079Y057155D02*
D03*
X049999Y057938D02*
D03*
X062504Y060277D02*
D03*
X062424Y061060D02*
D03*
X062464Y060669D02*
D03*
X057215Y060135D02*
D03*
X057255Y059744D02*
D03*
X057176Y060527D02*
D03*
X070054Y059184D02*
D03*
X069975Y059967D02*
D03*
X070015Y059576D02*
D03*
X064766Y059042D02*
D03*
X064806Y058651D02*
D03*
X064726Y059434D02*
D03*
X077792Y056250D02*
D03*
X077713Y057033D02*
D03*
X077752Y056642D02*
D03*
X072504Y056109D02*
D03*
X072544Y055717D02*
D03*
X072464Y056500D02*
D03*
X045354Y049724D02*
D03*
Y050512D02*
D03*
Y050118D02*
D03*
X040079D02*
D03*
Y049724D02*
D03*
Y050512D02*
D03*
X052756Y049724D02*
D03*
Y050512D02*
D03*
Y050118D02*
D03*
X047480D02*
D03*
Y049724D02*
D03*
Y050512D02*
D03*
X060157Y049724D02*
D03*
Y050512D02*
D03*
Y050118D02*
D03*
X054882D02*
D03*
Y049724D02*
D03*
Y050512D02*
D03*
X067559Y049724D02*
D03*
Y050512D02*
D03*
Y050118D02*
D03*
X062283D02*
D03*
Y049724D02*
D03*
Y050512D02*
D03*
X045354Y042323D02*
D03*
Y043110D02*
D03*
Y042717D02*
D03*
X040079D02*
D03*
Y042323D02*
D03*
Y043110D02*
D03*
X052756Y042323D02*
D03*
Y043110D02*
D03*
Y042717D02*
D03*
X047480D02*
D03*
Y042323D02*
D03*
Y043110D02*
D03*
X060157Y042323D02*
D03*
Y043110D02*
D03*
Y042717D02*
D03*
X054882D02*
D03*
Y042323D02*
D03*
Y043110D02*
D03*
X067559Y042323D02*
D03*
Y043110D02*
D03*
Y042717D02*
D03*
X062283D02*
D03*
Y042323D02*
D03*
Y043110D02*
D03*
D25*
X043727Y072541D02*
D03*
X051167Y072540D02*
D03*
X058344Y075129D02*
D03*
X065894Y074036D02*
D03*
X073632Y071102D02*
D03*
X044475Y065177D02*
D03*
X051915Y065177D02*
D03*
X059092Y067766D02*
D03*
X066642Y066673D02*
D03*
X074380Y063739D02*
D03*
X045223Y057813D02*
D03*
X052663Y057813D02*
D03*
X059840Y060402D02*
D03*
X067390Y059309D02*
D03*
X075128Y056375D02*
D03*
X042717Y050118D02*
D03*
X050118D02*
D03*
X057520D02*
D03*
X064921D02*
D03*
X042717Y042717D02*
D03*
X050118D02*
D03*
X057520D02*
D03*
X064921D02*
D03*
D26*
X045321Y071697D02*
D03*
X042336Y071394D02*
D03*
X052760Y071697D02*
D03*
X049776Y071394D02*
D03*
X059937Y074286D02*
D03*
X056953Y073983D02*
D03*
X067488Y073193D02*
D03*
X064503Y072890D02*
D03*
X075226Y070259D02*
D03*
X072241Y069956D02*
D03*
X046069Y064334D02*
D03*
X043084Y064030D02*
D03*
X053508Y064333D02*
D03*
X050524Y064030D02*
D03*
X060685Y066922D02*
D03*
X057701Y066619D02*
D03*
X068236Y065829D02*
D03*
X065251Y065526D02*
D03*
X075973Y062896D02*
D03*
X072989Y062592D02*
D03*
X046817Y056970D02*
D03*
X043832Y056667D02*
D03*
X054256Y056970D02*
D03*
X051272Y056667D02*
D03*
X061433Y059559D02*
D03*
X058448Y059255D02*
D03*
X068984Y058466D02*
D03*
X065999Y058163D02*
D03*
X076721Y055532D02*
D03*
X073737Y055229D02*
D03*
X044217Y049118D02*
D03*
X041217D02*
D03*
X051618D02*
D03*
X048618D02*
D03*
X059020D02*
D03*
X056020D02*
D03*
X066421D02*
D03*
X063421D02*
D03*
X044217Y041717D02*
D03*
X041217D02*
D03*
X051618D02*
D03*
X048618D02*
D03*
X059020D02*
D03*
X056020D02*
D03*
X066421D02*
D03*
X063421D02*
D03*
D27*
X042927Y070529D02*
D03*
X044916Y070731D02*
D03*
X050366Y070529D02*
D03*
X052356Y070731D02*
D03*
X057543Y073118D02*
D03*
X059533Y073320D02*
D03*
X065094Y072025D02*
D03*
X067083Y072227D02*
D03*
X072831Y069091D02*
D03*
X074821Y069293D02*
D03*
X043675Y063166D02*
D03*
X045664Y063368D02*
D03*
X051114Y063165D02*
D03*
X053104Y063368D02*
D03*
X058291Y065754D02*
D03*
X060281Y065957D02*
D03*
X065842Y064661D02*
D03*
X067831Y064864D02*
D03*
X073579Y061728D02*
D03*
X075569Y061930D02*
D03*
X044423Y055802D02*
D03*
X046412Y056004D02*
D03*
X051862Y055802D02*
D03*
X053852Y056004D02*
D03*
X059039Y058391D02*
D03*
X061029Y058593D02*
D03*
X066590Y057298D02*
D03*
X068579Y057500D02*
D03*
X074327Y054364D02*
D03*
X076317Y054566D02*
D03*
D28*
X041717Y048198D02*
D03*
X043717D02*
D03*
X049118D02*
D03*
X051118D02*
D03*
X056520D02*
D03*
X058520D02*
D03*
X063921D02*
D03*
X065921D02*
D03*
X041717Y040797D02*
D03*
X043717D02*
D03*
X049118D02*
D03*
X051118D02*
D03*
X056520D02*
D03*
X058520D02*
D03*
X063921D02*
D03*
X065921D02*
D03*
D29*
X073504Y046988D02*
D03*
Y051752D02*
D03*
X071004Y047461D02*
D03*
X070472Y046752D02*
D03*
Y052067D02*
D03*
X071850Y047913D02*
D03*
X073937Y052097D02*
D03*
Y046700D02*
D03*
X076102Y052303D02*
D03*
X075669D02*
D03*
X075236D02*
D03*
X073071D02*
D03*
X072638D02*
D03*
X071004Y051358D02*
D03*
Y050925D02*
D03*
Y050492D02*
D03*
Y049193D02*
D03*
Y048760D02*
D03*
Y048327D02*
D03*
Y047894D02*
D03*
X076102Y046516D02*
D03*
X075669D02*
D03*
X075236D02*
D03*
X073071D02*
D03*
X072638D02*
D03*
X069390Y045591D02*
D03*
X069134Y045827D02*
D03*
X072087Y048858D02*
D03*
X071850Y048327D02*
D03*
X072638Y050591D02*
D03*
Y049173D02*
D03*
X071004Y049626D02*
D03*
Y050059D02*
D03*
X071457Y049882D02*
D03*
X073189Y048937D02*
D03*
X074369Y047600D02*
D03*
X074803Y047598D02*
D03*
X075197Y051378D02*
D03*
X073268Y051024D02*
D03*
X073701D02*
D03*
X074370Y048543D02*
D03*
X074803D02*
D03*
X076535Y051929D02*
D03*
X072008Y053504D02*
D03*
X076535Y046811D02*
D03*
M02*
