%FSAX24Y24*%
%MOIN*%
G70*
G01*
G75*
G04 Layer_Color=16711935*
G04:AMPARAMS|DCode=10|XSize=590.6mil|YSize=334.6mil|CornerRadius=83.7mil|HoleSize=0mil|Usage=FLASHONLY|Rotation=0.000|XOffset=0mil|YOffset=0mil|HoleType=Round|Shape=RoundedRectangle|*
%AMROUNDEDRECTD10*
21,1,0.5906,0.1673,0,0,0.0*
21,1,0.4232,0.3346,0,0,0.0*
1,1,0.1673,0.2116,-0.0837*
1,1,0.1673,-0.2116,-0.0837*
1,1,0.1673,-0.2116,0.0837*
1,1,0.1673,0.2116,0.0837*
%
%ADD10ROUNDEDRECTD10*%
G04:AMPARAMS|DCode=11|XSize=53.2mil|YSize=66.9mil|CornerRadius=13.3mil|HoleSize=0mil|Usage=FLASHONLY|Rotation=180.000|XOffset=0mil|YOffset=0mil|HoleType=Round|Shape=RoundedRectangle|*
%AMROUNDEDRECTD11*
21,1,0.0532,0.0404,0,0,180.0*
21,1,0.0266,0.0669,0,0,180.0*
1,1,0.0266,-0.0133,0.0202*
1,1,0.0266,0.0133,0.0202*
1,1,0.0266,0.0133,-0.0202*
1,1,0.0266,-0.0133,-0.0202*
%
%ADD11ROUNDEDRECTD11*%
G04:AMPARAMS|DCode=12|XSize=25.6mil|YSize=61mil|CornerRadius=6.4mil|HoleSize=0mil|Usage=FLASHONLY|Rotation=270.000|XOffset=0mil|YOffset=0mil|HoleType=Round|Shape=RoundedRectangle|*
%AMROUNDEDRECTD12*
21,1,0.0256,0.0482,0,0,270.0*
21,1,0.0128,0.0610,0,0,270.0*
1,1,0.0128,-0.0241,-0.0064*
1,1,0.0128,-0.0241,0.0064*
1,1,0.0128,0.0241,0.0064*
1,1,0.0128,0.0241,-0.0064*
%
%ADD12ROUNDEDRECTD12*%
G04:AMPARAMS|DCode=13|XSize=27.6mil|YSize=78.7mil|CornerRadius=6.9mil|HoleSize=0mil|Usage=FLASHONLY|Rotation=180.000|XOffset=0mil|YOffset=0mil|HoleType=Round|Shape=RoundedRectangle|*
%AMROUNDEDRECTD13*
21,1,0.0276,0.0650,0,0,180.0*
21,1,0.0138,0.0787,0,0,180.0*
1,1,0.0138,-0.0069,0.0325*
1,1,0.0138,0.0069,0.0325*
1,1,0.0138,0.0069,-0.0325*
1,1,0.0138,-0.0069,-0.0325*
%
%ADD13ROUNDEDRECTD13*%
G04:AMPARAMS|DCode=14|XSize=27.6mil|YSize=78.7mil|CornerRadius=6.9mil|HoleSize=0mil|Usage=FLASHONLY|Rotation=270.000|XOffset=0mil|YOffset=0mil|HoleType=Round|Shape=RoundedRectangle|*
%AMROUNDEDRECTD14*
21,1,0.0276,0.0650,0,0,270.0*
21,1,0.0138,0.0787,0,0,270.0*
1,1,0.0138,-0.0325,-0.0069*
1,1,0.0138,-0.0325,0.0069*
1,1,0.0138,0.0325,0.0069*
1,1,0.0138,0.0325,-0.0069*
%
%ADD14ROUNDEDRECTD14*%
%ADD15C,0.0100*%
%ADD16C,0.0197*%
%ADD17C,0.0098*%
%ADD18C,0.0669*%
%ADD19C,0.0433*%
%ADD20C,0.0787*%
%ADD21R,0.0591X0.0591*%
%ADD22C,0.0591*%
%ADD23C,0.0630*%
%ADD24C,0.0394*%
%ADD25C,0.1693*%
%ADD26C,0.0984*%
G04:AMPARAMS|DCode=27|XSize=98.4mil|YSize=70.9mil|CornerRadius=0mil|HoleSize=0mil|Usage=FLASHONLY|Rotation=5.800|XOffset=0mil|YOffset=0mil|HoleType=Round|Shape=Round|*
%AMOVALD27*
21,1,0.0276,0.0709,0.0000,0.0000,5.8*
1,1,0.0709,-0.0137,-0.0014*
1,1,0.0709,0.0137,0.0014*
%
%ADD27OVALD27*%

%ADD28O,0.0984X0.0709*%
%ADD29C,0.0236*%
%ADD30C,0.0157*%
G04:AMPARAMS|DCode=31|XSize=598.6mil|YSize=342.6mil|CornerRadius=87.7mil|HoleSize=0mil|Usage=FLASHONLY|Rotation=0.000|XOffset=0mil|YOffset=0mil|HoleType=Round|Shape=RoundedRectangle|*
%AMROUNDEDRECTD31*
21,1,0.5986,0.1673,0,0,0.0*
21,1,0.4232,0.3426,0,0,0.0*
1,1,0.1753,0.2116,-0.0837*
1,1,0.1753,-0.2116,-0.0837*
1,1,0.1753,-0.2116,0.0837*
1,1,0.1753,0.2116,0.0837*
%
%ADD31ROUNDEDRECTD31*%
G04:AMPARAMS|DCode=32|XSize=61.2mil|YSize=74.9mil|CornerRadius=17.3mil|HoleSize=0mil|Usage=FLASHONLY|Rotation=180.000|XOffset=0mil|YOffset=0mil|HoleType=Round|Shape=RoundedRectangle|*
%AMROUNDEDRECTD32*
21,1,0.0612,0.0404,0,0,180.0*
21,1,0.0266,0.0749,0,0,180.0*
1,1,0.0346,-0.0133,0.0202*
1,1,0.0346,0.0133,0.0202*
1,1,0.0346,0.0133,-0.0202*
1,1,0.0346,-0.0133,-0.0202*
%
%ADD32ROUNDEDRECTD32*%
G04:AMPARAMS|DCode=33|XSize=33.6mil|YSize=69mil|CornerRadius=10.4mil|HoleSize=0mil|Usage=FLASHONLY|Rotation=270.000|XOffset=0mil|YOffset=0mil|HoleType=Round|Shape=RoundedRectangle|*
%AMROUNDEDRECTD33*
21,1,0.0336,0.0482,0,0,270.0*
21,1,0.0128,0.0690,0,0,270.0*
1,1,0.0208,-0.0241,-0.0064*
1,1,0.0208,-0.0241,0.0064*
1,1,0.0208,0.0241,0.0064*
1,1,0.0208,0.0241,-0.0064*
%
%ADD33ROUNDEDRECTD33*%
G04:AMPARAMS|DCode=34|XSize=35.6mil|YSize=86.7mil|CornerRadius=10.9mil|HoleSize=0mil|Usage=FLASHONLY|Rotation=180.000|XOffset=0mil|YOffset=0mil|HoleType=Round|Shape=RoundedRectangle|*
%AMROUNDEDRECTD34*
21,1,0.0356,0.0650,0,0,180.0*
21,1,0.0138,0.0867,0,0,180.0*
1,1,0.0218,-0.0069,0.0325*
1,1,0.0218,0.0069,0.0325*
1,1,0.0218,0.0069,-0.0325*
1,1,0.0218,-0.0069,-0.0325*
%
%ADD34ROUNDEDRECTD34*%
G04:AMPARAMS|DCode=35|XSize=35.6mil|YSize=86.7mil|CornerRadius=10.9mil|HoleSize=0mil|Usage=FLASHONLY|Rotation=270.000|XOffset=0mil|YOffset=0mil|HoleType=Round|Shape=RoundedRectangle|*
%AMROUNDEDRECTD35*
21,1,0.0356,0.0650,0,0,270.0*
21,1,0.0138,0.0867,0,0,270.0*
1,1,0.0218,-0.0325,-0.0069*
1,1,0.0218,-0.0325,0.0069*
1,1,0.0218,0.0325,0.0069*
1,1,0.0218,0.0325,-0.0069*
%
%ADD35ROUNDEDRECTD35*%
%ADD36C,0.0867*%
%ADD37R,0.0671X0.0671*%
%ADD38C,0.0671*%
%ADD39C,0.0710*%
%ADD40C,0.1773*%
%ADD41C,0.1064*%
G04:AMPARAMS|DCode=42|XSize=106.4mil|YSize=78.9mil|CornerRadius=0mil|HoleSize=0mil|Usage=FLASHONLY|Rotation=5.800|XOffset=0mil|YOffset=0mil|HoleType=Round|Shape=Round|*
%AMOVALD42*
21,1,0.0276,0.0789,0.0000,0.0000,5.8*
1,1,0.0789,-0.0137,-0.0014*
1,1,0.0789,0.0137,0.0014*
%
%ADD42OVALD42*%

%ADD43O,0.1064X0.0789*%
D17*
X076181Y045079D02*
X076575D01*
D31*
X073425Y043307D02*
D03*
D32*
X075000Y050669D02*
D03*
Y049724D02*
D03*
X074213D02*
D03*
Y050669D02*
D03*
D33*
X072116Y049508D02*
D03*
Y050256D02*
D03*
X073159Y049882D02*
D03*
D34*
X076535Y045984D02*
D03*
X071772D02*
D03*
X075236D02*
D03*
X074803D02*
D03*
X074370D02*
D03*
X073937D02*
D03*
X073504D02*
D03*
X073071D02*
D03*
X072205D02*
D03*
X076102D02*
D03*
X072638D02*
D03*
X075669D02*
D03*
X076102Y052835D02*
D03*
X071772D02*
D03*
X072205D02*
D03*
X072638D02*
D03*
X073071D02*
D03*
X073937D02*
D03*
X074370D02*
D03*
X074803D02*
D03*
X075236D02*
D03*
X075669D02*
D03*
X073504D02*
D03*
X076535D02*
D03*
D35*
X070472Y049193D02*
D03*
Y049626D02*
D03*
Y048327D02*
D03*
Y047028D02*
D03*
Y047461D02*
D03*
Y047894D02*
D03*
Y048760D02*
D03*
Y051358D02*
D03*
Y051791D02*
D03*
Y050492D02*
D03*
Y050925D02*
D03*
Y050059D02*
D03*
D36*
X068819Y043307D02*
D03*
X078032D02*
D03*
X045717Y072743D02*
D03*
X041738Y072338D02*
D03*
X053157Y072743D02*
D03*
X049177Y072338D02*
D03*
X060334Y075331D02*
D03*
X056354Y074927D02*
D03*
X067884Y074238D02*
D03*
X063905Y073834D02*
D03*
X075622Y071305D02*
D03*
X071642Y070900D02*
D03*
X046465Y065379D02*
D03*
X042486Y064975D02*
D03*
X053905Y065379D02*
D03*
X049925Y064975D02*
D03*
X061082Y067968D02*
D03*
X057102Y067564D02*
D03*
X068632Y066875D02*
D03*
X064653Y066471D02*
D03*
X076370Y063941D02*
D03*
X072390Y063537D02*
D03*
X047213Y058015D02*
D03*
X043234Y057611D02*
D03*
X054653Y058015D02*
D03*
X050673Y057611D02*
D03*
X061830Y060604D02*
D03*
X057850Y060200D02*
D03*
X069380Y059511D02*
D03*
X065401Y059107D02*
D03*
X077118Y056577D02*
D03*
X073138Y056173D02*
D03*
X044717Y050118D02*
D03*
X040717D02*
D03*
X052118D02*
D03*
X048118D02*
D03*
X059520D02*
D03*
X055520D02*
D03*
X066921D02*
D03*
X062921D02*
D03*
X044717Y042717D02*
D03*
X040717D02*
D03*
X052118D02*
D03*
X048118D02*
D03*
X059520D02*
D03*
X055520D02*
D03*
X066921D02*
D03*
X062921D02*
D03*
D37*
X075827Y047909D02*
D03*
D38*
Y048909D02*
D03*
Y049909D02*
D03*
Y050909D02*
D03*
D39*
X043028Y074480D02*
D03*
X044023Y074581D02*
D03*
X050468Y074480D02*
D03*
X051462Y074581D02*
D03*
X057644Y077069D02*
D03*
X058639Y077170D02*
D03*
X065195Y075976D02*
D03*
X066190Y076077D02*
D03*
X072933Y073042D02*
D03*
X073927Y073143D02*
D03*
X043776Y067116D02*
D03*
X044771Y067217D02*
D03*
X051216Y067116D02*
D03*
X052210Y067217D02*
D03*
X058392Y069705D02*
D03*
X059387Y069806D02*
D03*
X065943Y068612D02*
D03*
X066938Y068713D02*
D03*
X073681Y065678D02*
D03*
X074675Y065779D02*
D03*
X044524Y059752D02*
D03*
X045519Y059853D02*
D03*
X051964Y059752D02*
D03*
X052958Y059853D02*
D03*
X059140Y062341D02*
D03*
X060135Y062442D02*
D03*
X066691Y061248D02*
D03*
X067686Y061349D02*
D03*
X074429Y058314D02*
D03*
X075423Y058415D02*
D03*
X042217Y052118D02*
D03*
X043217D02*
D03*
X049618D02*
D03*
X050618D02*
D03*
X057020D02*
D03*
X058020D02*
D03*
X064421D02*
D03*
X065421D02*
D03*
X042217Y044717D02*
D03*
X043217D02*
D03*
X049618D02*
D03*
X050618D02*
D03*
X057020D02*
D03*
X058020D02*
D03*
X064421D02*
D03*
X065421D02*
D03*
D40*
X043727Y072541D02*
D03*
X051167Y072540D02*
D03*
X058344Y075129D02*
D03*
X065894Y074036D02*
D03*
X073632Y071102D02*
D03*
X044475Y065177D02*
D03*
X051915Y065177D02*
D03*
X059092Y067766D02*
D03*
X066642Y066673D02*
D03*
X074380Y063739D02*
D03*
X045223Y057813D02*
D03*
X052663Y057813D02*
D03*
X059840Y060402D02*
D03*
X067390Y059309D02*
D03*
X075128Y056375D02*
D03*
X042717Y050118D02*
D03*
X050118D02*
D03*
X057520D02*
D03*
X064921D02*
D03*
X042717Y042717D02*
D03*
X050118D02*
D03*
X057520D02*
D03*
X064921D02*
D03*
D41*
X045321Y071697D02*
D03*
X042336Y071394D02*
D03*
X052760Y071697D02*
D03*
X049776Y071394D02*
D03*
X059937Y074286D02*
D03*
X056953Y073983D02*
D03*
X067488Y073193D02*
D03*
X064503Y072890D02*
D03*
X075226Y070259D02*
D03*
X072241Y069956D02*
D03*
X046069Y064334D02*
D03*
X043084Y064030D02*
D03*
X053508Y064333D02*
D03*
X050524Y064030D02*
D03*
X060685Y066922D02*
D03*
X057701Y066619D02*
D03*
X068236Y065829D02*
D03*
X065251Y065526D02*
D03*
X075973Y062896D02*
D03*
X072989Y062592D02*
D03*
X046817Y056970D02*
D03*
X043832Y056667D02*
D03*
X054256Y056970D02*
D03*
X051272Y056667D02*
D03*
X061433Y059559D02*
D03*
X058448Y059255D02*
D03*
X068984Y058466D02*
D03*
X065999Y058163D02*
D03*
X076721Y055532D02*
D03*
X073737Y055229D02*
D03*
X044217Y049118D02*
D03*
X041217D02*
D03*
X051618D02*
D03*
X048618D02*
D03*
X059020D02*
D03*
X056020D02*
D03*
X066421D02*
D03*
X063421D02*
D03*
X044217Y041717D02*
D03*
X041217D02*
D03*
X051618D02*
D03*
X048618D02*
D03*
X059020D02*
D03*
X056020D02*
D03*
X066421D02*
D03*
X063421D02*
D03*
D42*
X042927Y070529D02*
D03*
X044916Y070731D02*
D03*
X050366Y070529D02*
D03*
X052356Y070731D02*
D03*
X057543Y073118D02*
D03*
X059533Y073320D02*
D03*
X065094Y072025D02*
D03*
X067083Y072227D02*
D03*
X072831Y069091D02*
D03*
X074821Y069293D02*
D03*
X043675Y063166D02*
D03*
X045664Y063368D02*
D03*
X051114Y063165D02*
D03*
X053104Y063368D02*
D03*
X058291Y065754D02*
D03*
X060281Y065957D02*
D03*
X065842Y064661D02*
D03*
X067831Y064864D02*
D03*
X073579Y061728D02*
D03*
X075569Y061930D02*
D03*
X044423Y055802D02*
D03*
X046412Y056004D02*
D03*
X051862Y055802D02*
D03*
X053852Y056004D02*
D03*
X059039Y058391D02*
D03*
X061029Y058593D02*
D03*
X066590Y057298D02*
D03*
X068579Y057500D02*
D03*
X074327Y054364D02*
D03*
X076317Y054566D02*
D03*
D43*
X041717Y048198D02*
D03*
X043717D02*
D03*
X049118D02*
D03*
X051118D02*
D03*
X056520D02*
D03*
X058520D02*
D03*
X063921D02*
D03*
X065921D02*
D03*
X041717Y040797D02*
D03*
X043717D02*
D03*
X049118D02*
D03*
X051118D02*
D03*
X056520D02*
D03*
X058520D02*
D03*
X063921D02*
D03*
X065921D02*
D03*
M02*
