%FSAX24Y24*%
%MOIN*%
G70*
G01*
G75*
G04 Layer_Color=16711935*
G04:AMPARAMS|DCode=10|XSize=590.6mil|YSize=334.6mil|CornerRadius=83.7mil|HoleSize=0mil|Usage=FLASHONLY|Rotation=0.000|XOffset=0mil|YOffset=0mil|HoleType=Round|Shape=RoundedRectangle|*
%AMROUNDEDRECTD10*
21,1,0.5906,0.1673,0,0,0.0*
21,1,0.4232,0.3346,0,0,0.0*
1,1,0.1673,0.2116,-0.0837*
1,1,0.1673,-0.2116,-0.0837*
1,1,0.1673,-0.2116,0.0837*
1,1,0.1673,0.2116,0.0837*
%
%ADD10ROUNDEDRECTD10*%
G04:AMPARAMS|DCode=11|XSize=53.2mil|YSize=66.9mil|CornerRadius=13.3mil|HoleSize=0mil|Usage=FLASHONLY|Rotation=180.000|XOffset=0mil|YOffset=0mil|HoleType=Round|Shape=RoundedRectangle|*
%AMROUNDEDRECTD11*
21,1,0.0532,0.0404,0,0,180.0*
21,1,0.0266,0.0669,0,0,180.0*
1,1,0.0266,-0.0133,0.0202*
1,1,0.0266,0.0133,0.0202*
1,1,0.0266,0.0133,-0.0202*
1,1,0.0266,-0.0133,-0.0202*
%
%ADD11ROUNDEDRECTD11*%
G04:AMPARAMS|DCode=12|XSize=25.6mil|YSize=61mil|CornerRadius=6.4mil|HoleSize=0mil|Usage=FLASHONLY|Rotation=270.000|XOffset=0mil|YOffset=0mil|HoleType=Round|Shape=RoundedRectangle|*
%AMROUNDEDRECTD12*
21,1,0.0256,0.0482,0,0,270.0*
21,1,0.0128,0.0610,0,0,270.0*
1,1,0.0128,-0.0241,-0.0064*
1,1,0.0128,-0.0241,0.0064*
1,1,0.0128,0.0241,0.0064*
1,1,0.0128,0.0241,-0.0064*
%
%ADD12ROUNDEDRECTD12*%
G04:AMPARAMS|DCode=13|XSize=27.6mil|YSize=78.7mil|CornerRadius=6.9mil|HoleSize=0mil|Usage=FLASHONLY|Rotation=180.000|XOffset=0mil|YOffset=0mil|HoleType=Round|Shape=RoundedRectangle|*
%AMROUNDEDRECTD13*
21,1,0.0276,0.0650,0,0,180.0*
21,1,0.0138,0.0787,0,0,180.0*
1,1,0.0138,-0.0069,0.0325*
1,1,0.0138,0.0069,0.0325*
1,1,0.0138,0.0069,-0.0325*
1,1,0.0138,-0.0069,-0.0325*
%
%ADD13ROUNDEDRECTD13*%
G04:AMPARAMS|DCode=14|XSize=27.6mil|YSize=78.7mil|CornerRadius=6.9mil|HoleSize=0mil|Usage=FLASHONLY|Rotation=270.000|XOffset=0mil|YOffset=0mil|HoleType=Round|Shape=RoundedRectangle|*
%AMROUNDEDRECTD14*
21,1,0.0276,0.0650,0,0,270.0*
21,1,0.0138,0.0787,0,0,270.0*
1,1,0.0138,-0.0325,-0.0069*
1,1,0.0138,-0.0325,0.0069*
1,1,0.0138,0.0325,0.0069*
1,1,0.0138,0.0325,-0.0069*
%
%ADD14ROUNDEDRECTD14*%
%ADD15C,0.0100*%
%ADD16C,0.0197*%
%ADD17C,0.0098*%
%ADD18C,0.0669*%
%ADD19C,0.0433*%
%ADD20C,0.0787*%
%ADD21R,0.0591X0.0591*%
%ADD22C,0.0591*%
%ADD23C,0.0630*%
%ADD24C,0.0394*%
%ADD25C,0.1693*%
%ADD26C,0.0984*%
G04:AMPARAMS|DCode=27|XSize=98.4mil|YSize=70.9mil|CornerRadius=0mil|HoleSize=0mil|Usage=FLASHONLY|Rotation=5.800|XOffset=0mil|YOffset=0mil|HoleType=Round|Shape=Round|*
%AMOVALD27*
21,1,0.0276,0.0709,0.0000,0.0000,5.8*
1,1,0.0709,-0.0137,-0.0014*
1,1,0.0709,0.0137,0.0014*
%
%ADD27OVALD27*%

%ADD28O,0.0984X0.0709*%
%ADD29C,0.0236*%
%ADD30C,0.0157*%
G04:AMPARAMS|DCode=31|XSize=598.6mil|YSize=342.6mil|CornerRadius=87.7mil|HoleSize=0mil|Usage=FLASHONLY|Rotation=0.000|XOffset=0mil|YOffset=0mil|HoleType=Round|Shape=RoundedRectangle|*
%AMROUNDEDRECTD31*
21,1,0.5986,0.1673,0,0,0.0*
21,1,0.4232,0.3426,0,0,0.0*
1,1,0.1753,0.2116,-0.0837*
1,1,0.1753,-0.2116,-0.0837*
1,1,0.1753,-0.2116,0.0837*
1,1,0.1753,0.2116,0.0837*
%
%ADD31ROUNDEDRECTD31*%
G04:AMPARAMS|DCode=32|XSize=61.2mil|YSize=74.9mil|CornerRadius=17.3mil|HoleSize=0mil|Usage=FLASHONLY|Rotation=180.000|XOffset=0mil|YOffset=0mil|HoleType=Round|Shape=RoundedRectangle|*
%AMROUNDEDRECTD32*
21,1,0.0612,0.0404,0,0,180.0*
21,1,0.0266,0.0749,0,0,180.0*
1,1,0.0346,-0.0133,0.0202*
1,1,0.0346,0.0133,0.0202*
1,1,0.0346,0.0133,-0.0202*
1,1,0.0346,-0.0133,-0.0202*
%
%ADD32ROUNDEDRECTD32*%
G04:AMPARAMS|DCode=33|XSize=33.6mil|YSize=69mil|CornerRadius=10.4mil|HoleSize=0mil|Usage=FLASHONLY|Rotation=270.000|XOffset=0mil|YOffset=0mil|HoleType=Round|Shape=RoundedRectangle|*
%AMROUNDEDRECTD33*
21,1,0.0336,0.0482,0,0,270.0*
21,1,0.0128,0.0690,0,0,270.0*
1,1,0.0208,-0.0241,-0.0064*
1,1,0.0208,-0.0241,0.0064*
1,1,0.0208,0.0241,0.0064*
1,1,0.0208,0.0241,-0.0064*
%
%ADD33ROUNDEDRECTD33*%
G04:AMPARAMS|DCode=34|XSize=35.6mil|YSize=86.7mil|CornerRadius=10.9mil|HoleSize=0mil|Usage=FLASHONLY|Rotation=180.000|XOffset=0mil|YOffset=0mil|HoleType=Round|Shape=RoundedRectangle|*
%AMROUNDEDRECTD34*
21,1,0.0356,0.0650,0,0,180.0*
21,1,0.0138,0.0867,0,0,180.0*
1,1,0.0218,-0.0069,0.0325*
1,1,0.0218,0.0069,0.0325*
1,1,0.0218,0.0069,-0.0325*
1,1,0.0218,-0.0069,-0.0325*
%
%ADD34ROUNDEDRECTD34*%
G04:AMPARAMS|DCode=35|XSize=35.6mil|YSize=86.7mil|CornerRadius=10.9mil|HoleSize=0mil|Usage=FLASHONLY|Rotation=270.000|XOffset=0mil|YOffset=0mil|HoleType=Round|Shape=RoundedRectangle|*
%AMROUNDEDRECTD35*
21,1,0.0356,0.0650,0,0,270.0*
21,1,0.0138,0.0867,0,0,270.0*
1,1,0.0218,-0.0325,-0.0069*
1,1,0.0218,-0.0325,0.0069*
1,1,0.0218,0.0325,0.0069*
1,1,0.0218,0.0325,-0.0069*
%
%ADD35ROUNDEDRECTD35*%
%ADD36C,0.0867*%
%ADD37R,0.0671X0.0671*%
%ADD38C,0.0671*%
%ADD39C,0.0710*%
%ADD40C,0.1773*%
%ADD41C,0.1064*%
G04:AMPARAMS|DCode=42|XSize=106.4mil|YSize=78.9mil|CornerRadius=0mil|HoleSize=0mil|Usage=FLASHONLY|Rotation=5.800|XOffset=0mil|YOffset=0mil|HoleType=Round|Shape=Round|*
%AMOVALD42*
21,1,0.0276,0.0789,0.0000,0.0000,5.8*
1,1,0.0789,-0.0137,-0.0014*
1,1,0.0789,0.0137,0.0014*
%
%ADD42OVALD42*%

%ADD43O,0.1064X0.0789*%
%ADD44C,0.0039*%
%ADD45C,0.0020*%
D44*
X041417Y053465D02*
G03*
X042209Y054377I-000023J000819D01*
G01*
X054200Y076964D02*
G03*
X054731Y077550I-000060J000588D01*
G01*
X055264Y078180D02*
G03*
X054733Y077605I000060J-000588D01*
G01*
X061395Y078209D02*
G03*
X060747Y078737I-000588J-000060D01*
G01*
X061462Y077543D02*
G03*
X062109Y077016I000588J000060D01*
G01*
X068945Y077116D02*
G03*
X068298Y077644I-000588J-000060D01*
G01*
X069200Y074610D02*
G03*
X069847Y074082I000588J000060D01*
G01*
X076683Y074182D02*
G03*
X076036Y074710I-000588J-000060D01*
G01*
X078150Y039370D02*
G03*
X078740Y039961I-000000J000591D01*
G01*
X040648Y075587D02*
G03*
X040120Y074940I000060J-000588D01*
G01*
X039967Y053465D02*
G03*
X039370Y052874I-000003J-000594D01*
G01*
X039370Y039961D02*
G03*
X039961Y039370I000591J000000D01*
G01*
X046591Y070061D02*
G03*
X046732Y070234I-000016J000157D01*
G01*
X041248Y069677D02*
G03*
X041421Y069536I000157J000016D01*
G01*
X040864Y075020D02*
G03*
X040723Y074847I000016J-000157D01*
G01*
X046207Y075404D02*
G03*
X046034Y075545I-000157J-000016D01*
G01*
X041386Y071432D02*
G03*
X041073Y071400I-000157J-000016D01*
G01*
X040898Y073124D02*
G03*
X041211Y073156I000157J000016D01*
G01*
X046557Y071957D02*
G03*
X046243Y071926I-000157J-000016D01*
G01*
X046068Y073649D02*
G03*
X046382Y073681I000157J000016D01*
G01*
X054031Y070061D02*
G03*
X054171Y070234I-000016J000157D01*
G01*
X048688Y069677D02*
G03*
X048860Y069536I000157J000016D01*
G01*
X048303Y075020D02*
G03*
X048163Y074847I000016J-000157D01*
G01*
X053646Y075404D02*
G03*
X053474Y075545I-000157J-000016D01*
G01*
X048826Y071432D02*
G03*
X048513Y071400I-000157J-000016D01*
G01*
X048338Y073124D02*
G03*
X048651Y073155I000157J000016D01*
G01*
X053996Y071957D02*
G03*
X053683Y071925I-000157J-000016D01*
G01*
X053508Y073649D02*
G03*
X053821Y073681I000157J000016D01*
G01*
X061207Y072650D02*
G03*
X061348Y072823I-000016J000157D01*
G01*
X055865Y072266D02*
G03*
X056037Y072125I000157J000016D01*
G01*
X055480Y077609D02*
G03*
X055339Y077436I000016J-000157D01*
G01*
X060823Y077993D02*
G03*
X060650Y078134I-000157J-000016D01*
G01*
X056003Y074021D02*
G03*
X055690Y073989I-000157J-000016D01*
G01*
X055514Y075713D02*
G03*
X055828Y075744I000157J000016D01*
G01*
X061173Y074546D02*
G03*
X060860Y074514I-000157J-000016D01*
G01*
X060685Y076238D02*
G03*
X060998Y076270I000157J000016D01*
G01*
X068758Y071557D02*
G03*
X068899Y071730I-000016J000157D01*
G01*
X063415Y071173D02*
G03*
X063588Y071032I000157J000016D01*
G01*
X063031Y076516D02*
G03*
X062890Y076343I000016J-000157D01*
G01*
X068374Y076900D02*
G03*
X068201Y077041I-000157J-000016D01*
G01*
X063554Y072928D02*
G03*
X063240Y072896I-000157J-000016D01*
G01*
X063065Y074620D02*
G03*
X063378Y074651I000157J000016D01*
G01*
X068724Y073453D02*
G03*
X068410Y073421I-000157J-000016D01*
G01*
X068235Y075145D02*
G03*
X068549Y075177I000157J000016D01*
G01*
X076496Y068623D02*
G03*
X076637Y068796I-000016J000157D01*
G01*
X071153Y068239D02*
G03*
X071326Y068098I000157J000016D01*
G01*
X070769Y073582D02*
G03*
X070628Y073409I000016J-000157D01*
G01*
X076111Y073966D02*
G03*
X075939Y074107I-000157J-000016D01*
G01*
X071291Y069994D02*
G03*
X070978Y069962I-000157J-000016D01*
G01*
X070803Y071686D02*
G03*
X071116Y071718I000157J000016D01*
G01*
X076461Y070519D02*
G03*
X076148Y070487I-000157J-000016D01*
G01*
X075973Y072211D02*
G03*
X076286Y072243I000157J000016D01*
G01*
X047339Y062698D02*
G03*
X047480Y062870I-000016J000157D01*
G01*
X041996Y062313D02*
G03*
X042169Y062172I000157J000016D01*
G01*
X041612Y067656D02*
G03*
X041471Y067483I000016J-000157D01*
G01*
X046955Y068040D02*
G03*
X046782Y068181I-000157J-000016D01*
G01*
X042134Y064068D02*
G03*
X041821Y064037I-000157J-000016D01*
G01*
X041646Y065760D02*
G03*
X041959Y065792I000157J000016D01*
G01*
X047305Y064594D02*
G03*
X046991Y064562I-000157J-000016D01*
G01*
X046816Y066285D02*
G03*
X047130Y066317I000157J000016D01*
G01*
X054779Y062698D02*
G03*
X054919Y062870I-000016J000157D01*
G01*
X049436Y062313D02*
G03*
X049608Y062172I000157J000016D01*
G01*
X049051Y067656D02*
G03*
X048911Y067483I000016J-000157D01*
G01*
X054394Y068040D02*
G03*
X054222Y068181I-000157J-000016D01*
G01*
X049574Y064068D02*
G03*
X049261Y064037I-000157J-000016D01*
G01*
X049086Y065760D02*
G03*
X049399Y065792I000157J000016D01*
G01*
X054744Y064594D02*
G03*
X054431Y064562I-000157J-000016D01*
G01*
X054256Y066285D02*
G03*
X054569Y066317I000157J000016D01*
G01*
X061955Y065286D02*
G03*
X062096Y065459I-000016J000157D01*
G01*
X056613Y064902D02*
G03*
X056785Y064761I000157J000016D01*
G01*
X056228Y070245D02*
G03*
X056087Y070072I000016J-000157D01*
G01*
X061571Y070629D02*
G03*
X061398Y070770I-000157J-000016D01*
G01*
X056751Y066657D02*
G03*
X056438Y066625I-000157J-000016D01*
G01*
X056262Y068349D02*
G03*
X056576Y068381I000157J000016D01*
G01*
X061921Y067182D02*
G03*
X061608Y067151I-000157J-000016D01*
G01*
X061433Y068874D02*
G03*
X061746Y068906I000157J000016D01*
G01*
X069506Y064193D02*
G03*
X069647Y064366I-000016J000157D01*
G01*
X064163Y063809D02*
G03*
X064336Y063668I000157J000016D01*
G01*
X063779Y069152D02*
G03*
X063638Y068979I000016J-000157D01*
G01*
X069122Y069536D02*
G03*
X068949Y069677I-000157J-000016D01*
G01*
X064302Y065564D02*
G03*
X063988Y065532I-000157J-000016D01*
G01*
X063813Y067256D02*
G03*
X064126Y067288I000157J000016D01*
G01*
X069472Y066089D02*
G03*
X069158Y066058I-000157J-000016D01*
G01*
X068983Y067781D02*
G03*
X069297Y067813I000157J000016D01*
G01*
X077244Y061260D02*
G03*
X077385Y061432I-000016J000157D01*
G01*
X071901Y060875D02*
G03*
X072073Y060734I000157J000016D01*
G01*
X071516Y066218D02*
G03*
X071376Y066045I000016J-000157D01*
G01*
X076859Y066602D02*
G03*
X076687Y066743I-000157J-000016D01*
G01*
X072039Y062630D02*
G03*
X071726Y062599I-000157J-000016D01*
G01*
X071551Y064322D02*
G03*
X071864Y064354I000157J000016D01*
G01*
X077209Y063156D02*
G03*
X076896Y063124I-000157J-000016D01*
G01*
X076721Y064847D02*
G03*
X077034Y064879I000157J000016D01*
G01*
X048087Y055334D02*
G03*
X048228Y055507I-000016J000157D01*
G01*
X042744Y054950D02*
G03*
X042917Y054809I000157J000016D01*
G01*
X042360Y060292D02*
G03*
X042219Y060120I000016J-000157D01*
G01*
X047703Y060677D02*
G03*
X047530Y060818I-000157J-000016D01*
G01*
X042882Y056705D02*
G03*
X042569Y056673I-000157J-000016D01*
G01*
X042394Y058396D02*
G03*
X042707Y058428I000157J000016D01*
G01*
X048053Y057230D02*
G03*
X047739Y057198I-000157J-000016D01*
G01*
X047564Y058922D02*
G03*
X047878Y058953I000157J000016D01*
G01*
X055527Y055334D02*
G03*
X055667Y055506I-000016J000157D01*
G01*
X050184Y054949D02*
G03*
X050356Y054809I000157J000016D01*
G01*
X049799Y060292D02*
G03*
X049659Y060120I000016J-000157D01*
G01*
X055142Y060677D02*
G03*
X054970Y060817I-000157J-000016D01*
G01*
X050322Y056705D02*
G03*
X050009Y056673I-000157J-000016D01*
G01*
X049834Y058396D02*
G03*
X050147Y058428I000157J000016D01*
G01*
X055492Y057230D02*
G03*
X055179Y057198I-000157J-000016D01*
G01*
X055004Y058921D02*
G03*
X055317Y058953I000157J000016D01*
G01*
X062703Y057923D02*
G03*
X062844Y058095I-000016J000157D01*
G01*
X057361Y057538D02*
G03*
X057533Y057398I000157J000016D01*
G01*
X056976Y062881D02*
G03*
X056835Y062709I000016J-000157D01*
G01*
X062319Y063266D02*
G03*
X062146Y063406I-000157J-000016D01*
G01*
X057499Y059294D02*
G03*
X057185Y059262I-000157J-000016D01*
G01*
X057010Y060985D02*
G03*
X057324Y061017I000157J000016D01*
G01*
X062669Y059819D02*
G03*
X062356Y059787I-000157J-000016D01*
G01*
X062181Y061510D02*
G03*
X062494Y061542I000157J000016D01*
G01*
X070254Y056830D02*
G03*
X070395Y057002I-000016J000157D01*
G01*
X064911Y056445D02*
G03*
X065084Y056305I000157J000016D01*
G01*
X064527Y061788D02*
G03*
X064386Y061616I000016J-000157D01*
G01*
X069870Y062173D02*
G03*
X069697Y062313I-000157J-000016D01*
G01*
X065050Y058201D02*
G03*
X064736Y058169I-000157J-000016D01*
G01*
X064561Y059892D02*
G03*
X064874Y059924I000157J000016D01*
G01*
X070220Y058726D02*
G03*
X069906Y058694I-000157J-000016D01*
G01*
X069731Y060417D02*
G03*
X070045Y060449I000157J000016D01*
G01*
X077992Y053896D02*
G03*
X078132Y054069I-000016J000157D01*
G01*
X072649Y053512D02*
G03*
X072821Y053371I000157J000016D01*
G01*
X072264Y058854D02*
G03*
X072124Y058682I000016J-000157D01*
G01*
X077607Y059239D02*
G03*
X077435Y059380I-000157J-000016D01*
G01*
X072787Y055267D02*
G03*
X072474Y055235I-000157J-000016D01*
G01*
X072299Y056958D02*
G03*
X072612Y056990I000157J000016D01*
G01*
X077957Y055792D02*
G03*
X077644Y055760I-000157J-000016D01*
G01*
X077469Y057484D02*
G03*
X077782Y057515I000157J000016D01*
G01*
X045315Y047362D02*
G03*
X045472Y047520I000000J000157D01*
G01*
X039961D02*
G03*
X040118Y047362I000157J000000D01*
G01*
Y052874D02*
G03*
X039961Y052717I000000J-000157D01*
G01*
X045472D02*
G03*
X045315Y052874I-000157J000000D01*
G01*
X040276Y049252D02*
G03*
X039961Y049252I-000157J-000000D01*
G01*
Y050984D02*
G03*
X040276Y050984I000157J000000D01*
G01*
X045472Y049252D02*
G03*
X045157Y049252I-000157J-000000D01*
G01*
Y050984D02*
G03*
X045472Y050984I000157J000000D01*
G01*
X052717Y047362D02*
G03*
X052874Y047520I000000J000157D01*
G01*
X047362D02*
G03*
X047520Y047362I000157J000000D01*
G01*
Y052874D02*
G03*
X047362Y052717I000000J-000157D01*
G01*
X052874D02*
G03*
X052717Y052874I-000157J000000D01*
G01*
X047677Y049252D02*
G03*
X047362Y049252I-000157J-000000D01*
G01*
Y050984D02*
G03*
X047677Y050984I000157J000000D01*
G01*
X052874Y049252D02*
G03*
X052559Y049252I-000157J-000000D01*
G01*
Y050984D02*
G03*
X052874Y050984I000157J000000D01*
G01*
X060118Y047362D02*
G03*
X060276Y047520I000000J000157D01*
G01*
X054764D02*
G03*
X054921Y047362I000157J000000D01*
G01*
Y052874D02*
G03*
X054764Y052717I000000J-000157D01*
G01*
X060276D02*
G03*
X060118Y052874I-000157J000000D01*
G01*
X055079Y049252D02*
G03*
X054764Y049252I-000157J-000000D01*
G01*
Y050984D02*
G03*
X055079Y050984I000157J000000D01*
G01*
X060276Y049252D02*
G03*
X059961Y049252I-000157J-000000D01*
G01*
Y050984D02*
G03*
X060276Y050984I000157J000000D01*
G01*
X067520Y047362D02*
G03*
X067677Y047520I000000J000157D01*
G01*
X062165D02*
G03*
X062323Y047362I000157J000000D01*
G01*
Y052874D02*
G03*
X062165Y052717I000000J-000157D01*
G01*
X067677D02*
G03*
X067520Y052874I-000157J000000D01*
G01*
X062480Y049252D02*
G03*
X062165Y049252I-000157J-000000D01*
G01*
Y050984D02*
G03*
X062480Y050984I000157J000000D01*
G01*
X067677Y049252D02*
G03*
X067362Y049252I-000157J-000000D01*
G01*
Y050984D02*
G03*
X067677Y050984I000157J000000D01*
G01*
X045315Y039961D02*
G03*
X045472Y040118I000000J000157D01*
G01*
X039961D02*
G03*
X040118Y039961I000157J000000D01*
G01*
Y045472D02*
G03*
X039961Y045315I000000J-000157D01*
G01*
X045472D02*
G03*
X045315Y045472I-000157J000000D01*
G01*
X040276Y041850D02*
G03*
X039961Y041850I-000157J-000000D01*
G01*
Y043583D02*
G03*
X040276Y043583I000157J000000D01*
G01*
X045472Y041850D02*
G03*
X045157Y041850I-000157J-000000D01*
G01*
Y043583D02*
G03*
X045472Y043583I000157J000000D01*
G01*
X052717Y039961D02*
G03*
X052874Y040118I000000J000157D01*
G01*
X047362D02*
G03*
X047520Y039961I000157J000000D01*
G01*
Y045472D02*
G03*
X047362Y045315I000000J-000157D01*
G01*
X052874D02*
G03*
X052717Y045472I-000157J000000D01*
G01*
X047677Y041850D02*
G03*
X047362Y041850I-000157J-000000D01*
G01*
Y043583D02*
G03*
X047677Y043583I000157J000000D01*
G01*
X052874Y041850D02*
G03*
X052559Y041850I-000157J-000000D01*
G01*
Y043583D02*
G03*
X052874Y043583I000157J000000D01*
G01*
X060118Y039961D02*
G03*
X060276Y040118I000000J000157D01*
G01*
X054764D02*
G03*
X054921Y039961I000157J000000D01*
G01*
Y045472D02*
G03*
X054764Y045315I000000J-000157D01*
G01*
X060276D02*
G03*
X060118Y045472I-000157J000000D01*
G01*
X055079Y041850D02*
G03*
X054764Y041850I-000157J-000000D01*
G01*
Y043583D02*
G03*
X055079Y043583I000157J000000D01*
G01*
X060276Y041850D02*
G03*
X059961Y041850I-000157J-000000D01*
G01*
Y043583D02*
G03*
X060276Y043583I000157J000000D01*
G01*
X067520Y039961D02*
G03*
X067677Y040118I000000J000157D01*
G01*
X062165D02*
G03*
X062323Y039961I000157J000000D01*
G01*
Y045472D02*
G03*
X062165Y045315I000000J-000157D01*
G01*
X067677D02*
G03*
X067520Y045472I-000157J000000D01*
G01*
X062480Y041850D02*
G03*
X062165Y041850I-000157J-000000D01*
G01*
Y043583D02*
G03*
X062480Y043583I000157J000000D01*
G01*
X067677Y041850D02*
G03*
X067362Y041850I-000157J-000000D01*
G01*
Y043583D02*
G03*
X067677Y043583I000157J000000D01*
G01*
X054731Y077550D02*
X054733Y077605D01*
X076683Y074182D02*
X078740Y053932D01*
X069847Y074082D02*
X076036Y074710D01*
X068945Y077116D02*
X069200Y074610D01*
X062109Y077016D02*
X068298Y077644D01*
X061395Y078209D02*
X061462Y077543D01*
X055264Y078180D02*
X060747Y078737D01*
X040648Y075587D02*
X054200Y076964D01*
X040120Y074940D02*
X042209Y054377D01*
X039967Y053465D02*
X041417D01*
X039370Y039961D02*
Y052874D01*
X039961Y039370D02*
X078150D01*
X078740Y039961D02*
Y053932D01*
X041421Y069536D02*
X046591Y070061D01*
X041546Y069865D02*
X046403Y070359D01*
X041052Y074722D02*
X045909Y075216D01*
X040864Y075020D02*
X046034Y075545D01*
X041386Y071432D02*
X041546Y069865D01*
X041073Y071400D02*
X041248Y069677D01*
X046243Y071926D02*
X046403Y070359D01*
X046557Y071957D02*
X046732Y070234D01*
X045909Y075216D02*
X046068Y073649D01*
X046207Y075404D02*
X046382Y073681D01*
X041052Y074722D02*
X041211Y073156D01*
X040723Y074847D02*
X040898Y073124D01*
X048860Y069536D02*
X054031Y070061D01*
X048985Y069865D02*
X053842Y070359D01*
X048492Y074722D02*
X053349Y075216D01*
X048303Y075020D02*
X053474Y075545D01*
X048826Y071432D02*
X048985Y069865D01*
X048513Y071400D02*
X048688Y069677D01*
X053683Y071925D02*
X053842Y070359D01*
X053996Y071957D02*
X054171Y070234D01*
X053349Y075216D02*
X053508Y073649D01*
X053646Y075404D02*
X053821Y073681D01*
X048492Y074722D02*
X048651Y073155D01*
X048163Y074847D02*
X048338Y073124D01*
X056037Y072125D02*
X061207Y072650D01*
X056162Y072454D02*
X061019Y072948D01*
X055669Y077311D02*
X060526Y077804D01*
X055480Y077609D02*
X060650Y078134D01*
X056003Y074021D02*
X056162Y072454D01*
X055690Y073989D02*
X055865Y072266D01*
X060860Y074514D02*
X061019Y072948D01*
X061173Y074546D02*
X061348Y072823D01*
X060526Y077804D02*
X060685Y076238D01*
X060823Y077993D02*
X060998Y076270D01*
X055669Y077311D02*
X055828Y075744D01*
X055339Y077436D02*
X055514Y075713D01*
X063588Y071032D02*
X068758Y071557D01*
X063713Y071361D02*
X068570Y071855D01*
X063219Y076218D02*
X068076Y076711D01*
X063031Y076516D02*
X068201Y077041D01*
X063554Y072928D02*
X063713Y071361D01*
X063240Y072896D02*
X063415Y071173D01*
X068410Y073421D02*
X068570Y071855D01*
X068724Y073453D02*
X068899Y071730D01*
X068076Y076711D02*
X068235Y075145D01*
X068374Y076900D02*
X068549Y075177D01*
X063219Y076218D02*
X063378Y074651D01*
X062890Y076343D02*
X063065Y074620D01*
X071326Y068098D02*
X076496Y068623D01*
X071450Y068427D02*
X076307Y068921D01*
X070957Y073284D02*
X075814Y073778D01*
X070769Y073582D02*
X075939Y074107D01*
X071291Y069994D02*
X071450Y068427D01*
X070978Y069962D02*
X071153Y068239D01*
X076148Y070487D02*
X076307Y068921D01*
X076461Y070519D02*
X076637Y068796D01*
X075814Y073778D02*
X075973Y072211D01*
X076111Y073966D02*
X076286Y072243D01*
X070957Y073284D02*
X071116Y071718D01*
X070628Y073409D02*
X070803Y071686D01*
X042169Y062172D02*
X047339Y062698D01*
X042294Y062502D02*
X047151Y062995D01*
X041800Y067359D02*
X046657Y067852D01*
X041612Y067656D02*
X046782Y068181D01*
X042134Y064068D02*
X042294Y062502D01*
X041821Y064037D02*
X041996Y062313D01*
X046991Y064562D02*
X047151Y062995D01*
X047305Y064594D02*
X047480Y062870D01*
X046657Y067852D02*
X046816Y066285D01*
X046955Y068040D02*
X047130Y066317D01*
X041800Y067359D02*
X041959Y065792D01*
X041471Y067483D02*
X041646Y065760D01*
X049608Y062172D02*
X054779Y062698D01*
X049733Y062502D02*
X054590Y062995D01*
X049240Y067358D02*
X054097Y067852D01*
X049051Y067656D02*
X054222Y068181D01*
X049574Y064068D02*
X049733Y062502D01*
X049261Y064037D02*
X049436Y062313D01*
X054431Y064562D02*
X054590Y062995D01*
X054744Y064594D02*
X054919Y062870D01*
X054097Y067852D02*
X054256Y066285D01*
X054394Y068040D02*
X054569Y066317D01*
X049240Y067358D02*
X049399Y065792D01*
X048911Y067483D02*
X049086Y065760D01*
X056785Y064761D02*
X061955Y065286D01*
X056910Y065090D02*
X061767Y065584D01*
X056417Y069947D02*
X061274Y070441D01*
X056228Y070245D02*
X061398Y070770D01*
X056751Y066657D02*
X056910Y065090D01*
X056438Y066625D02*
X056613Y064902D01*
X061608Y067151D02*
X061767Y065584D01*
X061921Y067182D02*
X062096Y065459D01*
X061274Y070441D02*
X061433Y068874D01*
X061571Y070629D02*
X061746Y068906D01*
X056417Y069947D02*
X056576Y068381D01*
X056087Y070072D02*
X056262Y068349D01*
X064336Y063668D02*
X069506Y064193D01*
X064461Y063998D02*
X069318Y064491D01*
X063967Y068854D02*
X068824Y069348D01*
X063779Y069152D02*
X068949Y069677D01*
X064302Y065564D02*
X064461Y063998D01*
X063988Y065532D02*
X064163Y063809D01*
X069158Y066058D02*
X069318Y064491D01*
X069472Y066089D02*
X069647Y064366D01*
X068824Y069348D02*
X068983Y067781D01*
X069122Y069536D02*
X069297Y067813D01*
X063967Y068854D02*
X064126Y067288D01*
X063638Y068979D02*
X063813Y067256D01*
X072073Y060734D02*
X077244Y061260D01*
X072198Y061064D02*
X077055Y061557D01*
X071705Y065921D02*
X076562Y066414D01*
X071516Y066218D02*
X076687Y066743D01*
X072039Y062630D02*
X072198Y061064D01*
X071726Y062599D02*
X071901Y060875D01*
X076896Y063124D02*
X077055Y061557D01*
X077209Y063156D02*
X077385Y061432D01*
X076562Y066414D02*
X076721Y064847D01*
X076859Y066602D02*
X077034Y064879D01*
X071705Y065921D02*
X071864Y064354D01*
X071376Y066045D02*
X071551Y064322D01*
X042917Y054809D02*
X048087Y055334D01*
X043042Y055138D02*
X047899Y055631D01*
X042548Y059995D02*
X047405Y060488D01*
X042360Y060292D02*
X047530Y060818D01*
X042882Y056705D02*
X043042Y055138D01*
X042569Y056673D02*
X042744Y054950D01*
X047739Y057198D02*
X047899Y055631D01*
X048053Y057230D02*
X048228Y055507D01*
X047405Y060488D02*
X047564Y058922D01*
X047703Y060677D02*
X047878Y058953D01*
X042548Y059995D02*
X042707Y058428D01*
X042219Y060120D02*
X042394Y058396D01*
X050356Y054809D02*
X055527Y055334D01*
X050481Y055138D02*
X055338Y055631D01*
X049988Y059995D02*
X054845Y060488D01*
X049799Y060292D02*
X054970Y060817D01*
X050322Y056705D02*
X050481Y055138D01*
X050009Y056673D02*
X050184Y054949D01*
X055179Y057198D02*
X055338Y055631D01*
X055492Y057230D02*
X055667Y055506D01*
X054845Y060488D02*
X055004Y058921D01*
X055142Y060677D02*
X055317Y058953D01*
X049988Y059995D02*
X050147Y058428D01*
X049659Y060120D02*
X049834Y058396D01*
X057533Y057398D02*
X062703Y057923D01*
X057658Y057727D02*
X062515Y058220D01*
X057165Y062584D02*
X062022Y063077D01*
X056976Y062881D02*
X062146Y063406D01*
X057499Y059294D02*
X057658Y057727D01*
X057185Y059262D02*
X057361Y057538D01*
X062356Y059787D02*
X062515Y058220D01*
X062669Y059819D02*
X062844Y058095D01*
X062022Y063077D02*
X062181Y061510D01*
X062319Y063266D02*
X062494Y061542D01*
X057165Y062584D02*
X057324Y061017D01*
X056835Y062709D02*
X057010Y060985D01*
X065084Y056305D02*
X070254Y056830D01*
X065209Y056634D02*
X070066Y057127D01*
X064715Y061491D02*
X069572Y061984D01*
X064527Y061788D02*
X069697Y062313D01*
X065050Y058201D02*
X065209Y056634D01*
X064736Y058169D02*
X064911Y056445D01*
X069906Y058694D02*
X070066Y057127D01*
X070220Y058726D02*
X070395Y057002D01*
X069572Y061984D02*
X069731Y060417D01*
X069870Y062173D02*
X070045Y060449D01*
X064715Y061491D02*
X064874Y059924D01*
X064386Y061616D02*
X064561Y059892D01*
X072821Y053371D02*
X077992Y053896D01*
X072946Y053700D02*
X077803Y054193D01*
X072453Y058557D02*
X077310Y059050D01*
X072264Y058854D02*
X077435Y059380D01*
X072787Y055267D02*
X072946Y053700D01*
X072474Y055235D02*
X072649Y053512D01*
X077644Y055760D02*
X077803Y054193D01*
X077957Y055792D02*
X078132Y054069D01*
X077310Y059050D02*
X077469Y057484D01*
X077607Y059239D02*
X077782Y057515D01*
X072453Y058557D02*
X072612Y056990D01*
X072124Y058682D02*
X072299Y056958D01*
X040118Y047362D02*
X045315D01*
X040276Y047677D02*
X045157D01*
X040276Y052559D02*
X045157D01*
X040118Y052874D02*
X045315D01*
X040276Y047677D02*
X040276Y049252D01*
X039961Y047520D02*
Y049252D01*
X045157D02*
X045157Y047677D01*
X045472Y047520D02*
Y049252D01*
X045157Y050984D02*
X045157Y052559D01*
X045472Y050984D02*
Y052717D01*
X040276Y052559D02*
X040276Y050984D01*
X039961D02*
Y052717D01*
X047520Y047362D02*
X052717D01*
X047677Y047677D02*
X052559D01*
X047677Y052559D02*
X052559D01*
X047520Y052874D02*
X052717D01*
X047677Y047677D02*
X047677Y049252D01*
X047362Y047520D02*
Y049252D01*
X052559D02*
X052559Y047677D01*
X052874Y047520D02*
Y049252D01*
X052559Y050984D02*
X052559Y052559D01*
X052874Y050984D02*
Y052717D01*
X047677Y052559D02*
X047677Y050984D01*
X047362D02*
Y052717D01*
X054921Y047362D02*
X060118D01*
X055079Y047677D02*
X059961D01*
X055079Y052559D02*
X059961D01*
X054921Y052874D02*
X060118D01*
X055079Y047677D02*
X055079Y049252D01*
X054764Y047520D02*
Y049252D01*
X059961D02*
X059961Y047677D01*
X060276Y047520D02*
Y049252D01*
X059961Y050984D02*
X059961Y052559D01*
X060276Y050984D02*
Y052717D01*
X055079Y052559D02*
X055079Y050984D01*
X054764D02*
Y052717D01*
X062323Y047362D02*
X067520D01*
X062480Y047677D02*
X067362D01*
X062480Y052559D02*
X067362D01*
X062323Y052874D02*
X067520D01*
X062480Y047677D02*
X062480Y049252D01*
X062165Y047520D02*
Y049252D01*
X067362D02*
X067362Y047677D01*
X067677Y047520D02*
Y049252D01*
X067362Y050984D02*
X067362Y052559D01*
X067677Y050984D02*
Y052717D01*
X062480Y052559D02*
X062480Y050984D01*
X062165D02*
Y052717D01*
X040118Y039961D02*
X045315D01*
X040276Y040276D02*
X045157D01*
X040276Y045157D02*
X045157D01*
X040118Y045472D02*
X045315D01*
X040276Y040276D02*
X040276Y041850D01*
X039961Y040118D02*
Y041850D01*
X045157D02*
X045157Y040276D01*
X045472Y040118D02*
Y041850D01*
X045157Y043583D02*
X045157Y045157D01*
X045472Y043583D02*
Y045315D01*
X040276Y045157D02*
X040276Y043583D01*
X039961D02*
Y045315D01*
X047520Y039961D02*
X052717D01*
X047677Y040276D02*
X052559D01*
X047677Y045157D02*
X052559D01*
X047520Y045472D02*
X052717D01*
X047677Y040276D02*
X047677Y041850D01*
X047362Y040118D02*
Y041850D01*
X052559D02*
X052559Y040276D01*
X052874Y040118D02*
Y041850D01*
X052559Y043583D02*
X052559Y045157D01*
X052874Y043583D02*
Y045315D01*
X047677Y045157D02*
X047677Y043583D01*
X047362D02*
Y045315D01*
X054921Y039961D02*
X060118D01*
X055079Y040276D02*
X059961D01*
X055079Y045157D02*
X059961D01*
X054921Y045472D02*
X060118D01*
X055079Y040276D02*
X055079Y041850D01*
X054764Y040118D02*
Y041850D01*
X059961D02*
X059961Y040276D01*
X060276Y040118D02*
Y041850D01*
X059961Y043583D02*
X059961Y045157D01*
X060276Y043583D02*
Y045315D01*
X055079Y045157D02*
X055079Y043583D01*
X054764D02*
Y045315D01*
X062323Y039961D02*
X067520D01*
X062480Y040276D02*
X067362D01*
X062480Y045157D02*
X067362D01*
X062323Y045472D02*
X067520D01*
X062480Y040276D02*
X062480Y041850D01*
X062165Y040118D02*
Y041850D01*
X067362D02*
X067362Y040276D01*
X067677Y040118D02*
Y041850D01*
X067362Y043583D02*
X067362Y045157D01*
X067677Y043583D02*
Y045315D01*
X062480Y045157D02*
X062480Y043583D01*
X062165D02*
Y045315D01*
D45*
X043473Y069982D02*
X043430Y070017D01*
X043351Y070009D01*
X043316Y069966D01*
X043332Y069809D01*
X043375Y069774D01*
X043454Y069782D01*
X043489Y069825D01*
X043547Y070029D02*
X043567Y069833D01*
X043610Y069798D01*
X043688Y069806D01*
X043724Y069849D01*
X043704Y070045D01*
X043782Y070053D02*
X043939Y070069D01*
X043860Y070061D01*
X043884Y069826D01*
X044134Y070089D02*
X044056Y070081D01*
X044021Y070038D01*
X044037Y069881D01*
X044080Y069846D01*
X044158Y069854D01*
X044194Y069897D01*
X044178Y070054D01*
X044134Y070089D01*
X044252Y070101D02*
X044272Y069905D01*
X044315Y069870D01*
X044393Y069878D01*
X044428Y069921D01*
X044409Y070117D01*
X044487Y070125D02*
X044644Y070140D01*
X044565Y070132D01*
X044589Y069898D01*
X042948Y075152D02*
X042905Y075187D01*
X042826Y075179D01*
X042791Y075136D01*
X042807Y074980D01*
X042850Y074945D01*
X042928Y074952D01*
X042964Y074996D01*
X043022Y075199D02*
X043042Y075004D01*
X043085Y074968D01*
X043163Y074976D01*
X043198Y075019D01*
X043179Y075215D01*
X043257Y075223D02*
X043414Y075239D01*
X043335Y075231D01*
X043359Y074996D01*
X043609Y075259D02*
X043531Y075251D01*
X043496Y075208D01*
X043512Y075051D01*
X043555Y075016D01*
X043633Y075024D01*
X043668Y075067D01*
X043652Y075224D01*
X043609Y075259D01*
X043727Y075271D02*
X043747Y075075D01*
X043790Y075040D01*
X043868Y075048D01*
X043903Y075091D01*
X043883Y075287D01*
X043962Y075295D02*
X044118Y075311D01*
X044040Y075303D01*
X044064Y075068D01*
X050912Y069982D02*
X050869Y070017D01*
X050791Y070009D01*
X050756Y069966D01*
X050772Y069809D01*
X050815Y069774D01*
X050893Y069782D01*
X050928Y069825D01*
X050987Y070029D02*
X051007Y069833D01*
X051050Y069798D01*
X051128Y069806D01*
X051163Y069849D01*
X051143Y070045D01*
X051222Y070053D02*
X051378Y070069D01*
X051300Y070061D01*
X051324Y069826D01*
X051574Y070089D02*
X051496Y070081D01*
X051461Y070038D01*
X051477Y069881D01*
X051520Y069846D01*
X051598Y069854D01*
X051633Y069897D01*
X051617Y070053D01*
X051574Y070089D01*
X051692Y070101D02*
X051712Y069905D01*
X051755Y069870D01*
X051833Y069878D01*
X051868Y069921D01*
X051848Y070116D01*
X051927Y070124D02*
X052083Y070140D01*
X052005Y070132D01*
X052029Y069897D01*
X050387Y075152D02*
X050344Y075187D01*
X050266Y075179D01*
X050231Y075136D01*
X050247Y074980D01*
X050290Y074944D01*
X050368Y074952D01*
X050403Y074995D01*
X050462Y075199D02*
X050482Y075003D01*
X050525Y074968D01*
X050603Y074976D01*
X050638Y075019D01*
X050618Y075215D01*
X050697Y075223D02*
X050853Y075239D01*
X050775Y075231D01*
X050799Y074996D01*
X051049Y075259D02*
X050971Y075251D01*
X050936Y075208D01*
X050951Y075051D01*
X050995Y075016D01*
X051073Y075024D01*
X051108Y075067D01*
X051092Y075224D01*
X051049Y075259D01*
X051166Y075271D02*
X051186Y075075D01*
X051229Y075040D01*
X051308Y075048D01*
X051343Y075091D01*
X051323Y075287D01*
X051401Y075295D02*
X051558Y075311D01*
X051480Y075303D01*
X051504Y075068D01*
X058089Y072571D02*
X058046Y072606D01*
X057968Y072598D01*
X057933Y072555D01*
X057948Y072398D01*
X057992Y072363D01*
X058070Y072371D01*
X058105Y072414D01*
X058164Y072618D02*
X058183Y072422D01*
X058227Y072387D01*
X058305Y072395D01*
X058340Y072438D01*
X058320Y072634D01*
X058398Y072642D02*
X058555Y072658D01*
X058477Y072650D01*
X058501Y072415D01*
X058751Y072677D02*
X058673Y072670D01*
X058637Y072626D01*
X058653Y072470D01*
X058696Y072435D01*
X058775Y072443D01*
X058810Y072486D01*
X058794Y072642D01*
X058751Y072677D01*
X058868Y072689D02*
X058888Y072494D01*
X058931Y072458D01*
X059010Y072466D01*
X059045Y072510D01*
X059025Y072705D01*
X059103Y072713D02*
X059260Y072729D01*
X059182Y072721D01*
X059205Y072486D01*
X057564Y077741D02*
X057521Y077776D01*
X057443Y077768D01*
X057407Y077725D01*
X057423Y077568D01*
X057466Y077533D01*
X057545Y077541D01*
X057580Y077584D01*
X057638Y077788D02*
X057658Y077592D01*
X057701Y077557D01*
X057780Y077565D01*
X057815Y077608D01*
X057795Y077804D01*
X057873Y077812D02*
X058030Y077828D01*
X057952Y077820D01*
X057975Y077585D01*
X058226Y077848D02*
X058147Y077840D01*
X058112Y077797D01*
X058128Y077640D01*
X058171Y077605D01*
X058250Y077613D01*
X058285Y077656D01*
X058269Y077813D01*
X058226Y077848D01*
X058343Y077860D02*
X058363Y077664D01*
X058406Y077629D01*
X058484Y077637D01*
X058520Y077680D01*
X058500Y077876D01*
X058578Y077884D02*
X058735Y077899D01*
X058656Y077892D01*
X058680Y077657D01*
X065640Y071478D02*
X065597Y071513D01*
X065518Y071505D01*
X065483Y071462D01*
X065499Y071305D01*
X065542Y071270D01*
X065621Y071278D01*
X065656Y071321D01*
X065714Y071525D02*
X065734Y071329D01*
X065777Y071294D01*
X065856Y071302D01*
X065891Y071345D01*
X065871Y071541D01*
X065949Y071549D02*
X066106Y071565D01*
X066027Y071557D01*
X066051Y071322D01*
X066302Y071585D02*
X066223Y071577D01*
X066188Y071533D01*
X066204Y071377D01*
X066247Y071342D01*
X066325Y071350D01*
X066361Y071393D01*
X066345Y071549D01*
X066302Y071585D01*
X066419Y071596D02*
X066439Y071401D01*
X066482Y071366D01*
X066560Y071373D01*
X066596Y071417D01*
X066576Y071612D01*
X066654Y071620D02*
X066811Y071636D01*
X066732Y071628D01*
X066756Y071393D01*
X065115Y076648D02*
X065072Y076683D01*
X064993Y076675D01*
X064958Y076632D01*
X064974Y076476D01*
X065017Y076440D01*
X065095Y076448D01*
X065131Y076491D01*
X065189Y076695D02*
X065209Y076499D01*
X065252Y076464D01*
X065330Y076472D01*
X065366Y076515D01*
X065346Y076711D01*
X065424Y076719D02*
X065581Y076735D01*
X065502Y076727D01*
X065526Y076492D01*
X065776Y076755D02*
X065698Y076747D01*
X065663Y076704D01*
X065679Y076547D01*
X065722Y076512D01*
X065800Y076520D01*
X065835Y076563D01*
X065819Y076720D01*
X065776Y076755D01*
X065894Y076767D02*
X065914Y076571D01*
X065957Y076536D01*
X066035Y076544D01*
X066070Y076587D01*
X066050Y076783D01*
X066129Y076791D02*
X066285Y076807D01*
X066207Y076799D01*
X066231Y076564D01*
X073378Y068544D02*
X073334Y068579D01*
X073256Y068571D01*
X073221Y068528D01*
X073237Y068371D01*
X073280Y068336D01*
X073358Y068344D01*
X073393Y068387D01*
X073452Y068591D02*
X073472Y068395D01*
X073515Y068360D01*
X073593Y068368D01*
X073628Y068411D01*
X073608Y068607D01*
X073687Y068615D02*
X073843Y068631D01*
X073765Y068623D01*
X073789Y068388D01*
X074039Y068651D02*
X073961Y068643D01*
X073926Y068600D01*
X073942Y068443D01*
X073985Y068408D01*
X074063Y068416D01*
X074098Y068459D01*
X074082Y068616D01*
X074039Y068651D01*
X074157Y068663D02*
X074177Y068467D01*
X074220Y068432D01*
X074298Y068440D01*
X074333Y068483D01*
X074313Y068679D01*
X074392Y068686D02*
X074548Y068702D01*
X074470Y068694D01*
X074494Y068460D01*
X072852Y073714D02*
X072809Y073749D01*
X072731Y073741D01*
X072696Y073698D01*
X072712Y073542D01*
X072755Y073506D01*
X072833Y073514D01*
X072868Y073558D01*
X072927Y073761D02*
X072947Y073566D01*
X072990Y073530D01*
X073068Y073538D01*
X073103Y073581D01*
X073083Y073777D01*
X073162Y073785D02*
X073318Y073801D01*
X073240Y073793D01*
X073264Y073558D01*
X073514Y073821D02*
X073436Y073813D01*
X073401Y073770D01*
X073416Y073613D01*
X073460Y073578D01*
X073538Y073586D01*
X073573Y073629D01*
X073557Y073786D01*
X073514Y073821D01*
X073632Y073833D02*
X073651Y073637D01*
X073695Y073602D01*
X073773Y073610D01*
X073808Y073653D01*
X073788Y073849D01*
X073866Y073857D02*
X074023Y073873D01*
X073945Y073865D01*
X073969Y073630D01*
X044221Y062618D02*
X044178Y062653D01*
X044099Y062646D01*
X044064Y062602D01*
X044080Y062446D01*
X044123Y062411D01*
X044202Y062419D01*
X044237Y062462D01*
X044295Y062665D02*
X044315Y062470D01*
X044358Y062434D01*
X044436Y062442D01*
X044472Y062486D01*
X044452Y062681D01*
X044530Y062689D02*
X044687Y062705D01*
X044608Y062697D01*
X044632Y062462D01*
X044882Y062725D02*
X044804Y062717D01*
X044769Y062674D01*
X044785Y062517D01*
X044828Y062482D01*
X044906Y062490D01*
X044942Y062533D01*
X044926Y062690D01*
X044882Y062725D01*
X045000Y062737D02*
X045020Y062541D01*
X045063Y062506D01*
X045141Y062514D01*
X045176Y062557D01*
X045157Y062753D01*
X045235Y062761D02*
X045391Y062777D01*
X045313Y062769D01*
X045337Y062534D01*
X043696Y067789D02*
X043652Y067824D01*
X043574Y067816D01*
X043539Y067773D01*
X043555Y067616D01*
X043598Y067581D01*
X043676Y067589D01*
X043712Y067632D01*
X043770Y067836D02*
X043790Y067640D01*
X043833Y067605D01*
X043911Y067613D01*
X043946Y067656D01*
X043927Y067852D01*
X044005Y067860D02*
X044162Y067875D01*
X044083Y067867D01*
X044107Y067633D01*
X044357Y067895D02*
X044279Y067887D01*
X044244Y067844D01*
X044260Y067688D01*
X044303Y067652D01*
X044381Y067660D01*
X044416Y067704D01*
X044400Y067860D01*
X044357Y067895D01*
X044475Y067907D02*
X044495Y067711D01*
X044538Y067676D01*
X044616Y067684D01*
X044651Y067727D01*
X044631Y067923D01*
X044710Y067931D02*
X044866Y067947D01*
X044788Y067939D01*
X044812Y067704D01*
X051660Y062618D02*
X051617Y062653D01*
X051539Y062645D01*
X051504Y062602D01*
X051520Y062446D01*
X051563Y062410D01*
X051641Y062418D01*
X051676Y062462D01*
X051735Y062665D02*
X051755Y062469D01*
X051798Y062434D01*
X051876Y062442D01*
X051911Y062485D01*
X051891Y062681D01*
X051970Y062689D02*
X052126Y062705D01*
X052048Y062697D01*
X052072Y062462D01*
X052322Y062725D02*
X052244Y062717D01*
X052209Y062674D01*
X052225Y062517D01*
X052268Y062482D01*
X052346Y062490D01*
X052381Y062533D01*
X052365Y062690D01*
X052322Y062725D01*
X052440Y062737D02*
X052460Y062541D01*
X052503Y062506D01*
X052581Y062514D01*
X052616Y062557D01*
X052596Y062753D01*
X052675Y062761D02*
X052831Y062777D01*
X052753Y062769D01*
X052777Y062534D01*
X051135Y067788D02*
X051092Y067824D01*
X051014Y067816D01*
X050979Y067772D01*
X050995Y067616D01*
X051038Y067581D01*
X051116Y067589D01*
X051151Y067632D01*
X051210Y067836D02*
X051230Y067640D01*
X051273Y067605D01*
X051351Y067613D01*
X051386Y067656D01*
X051366Y067851D01*
X051445Y067859D02*
X051601Y067875D01*
X051523Y067867D01*
X051547Y067632D01*
X051797Y067895D02*
X051719Y067887D01*
X051683Y067844D01*
X051699Y067687D01*
X051743Y067652D01*
X051821Y067660D01*
X051856Y067703D01*
X051840Y067860D01*
X051797Y067895D01*
X051914Y067907D02*
X051934Y067711D01*
X051977Y067676D01*
X052056Y067684D01*
X052091Y067727D01*
X052071Y067923D01*
X052149Y067931D02*
X052306Y067947D01*
X052228Y067939D01*
X052252Y067704D01*
X058837Y065207D02*
X058794Y065242D01*
X058716Y065234D01*
X058681Y065191D01*
X058696Y065035D01*
X058740Y064999D01*
X058818Y065007D01*
X058853Y065050D01*
X058911Y065254D02*
X058931Y065058D01*
X058975Y065023D01*
X059053Y065031D01*
X059088Y065074D01*
X059068Y065270D01*
X059146Y065278D02*
X059303Y065294D01*
X059225Y065286D01*
X059249Y065051D01*
X059499Y065314D02*
X059421Y065306D01*
X059385Y065263D01*
X059401Y065106D01*
X059444Y065071D01*
X059523Y065079D01*
X059558Y065122D01*
X059542Y065279D01*
X059499Y065314D01*
X059616Y065326D02*
X059636Y065130D01*
X059679Y065095D01*
X059758Y065103D01*
X059793Y065146D01*
X059773Y065342D01*
X059851Y065350D02*
X060008Y065366D01*
X059930Y065358D01*
X059953Y065123D01*
X058312Y070377D02*
X058269Y070412D01*
X058191Y070405D01*
X058155Y070361D01*
X058171Y070205D01*
X058214Y070170D01*
X058293Y070178D01*
X058328Y070221D01*
X058386Y070424D02*
X058406Y070229D01*
X058449Y070193D01*
X058528Y070201D01*
X058563Y070245D01*
X058543Y070440D01*
X058621Y070448D02*
X058778Y070464D01*
X058700Y070456D01*
X058723Y070221D01*
X058974Y070484D02*
X058895Y070476D01*
X058860Y070433D01*
X058876Y070276D01*
X058919Y070241D01*
X058998Y070249D01*
X059033Y070292D01*
X059017Y070449D01*
X058974Y070484D01*
X059091Y070496D02*
X059111Y070300D01*
X059154Y070265D01*
X059232Y070273D01*
X059268Y070316D01*
X059248Y070512D01*
X059326Y070520D02*
X059483Y070536D01*
X059404Y070528D01*
X059428Y070293D01*
X066388Y064114D02*
X066345Y064149D01*
X066266Y064141D01*
X066231Y064098D01*
X066247Y063942D01*
X066290Y063906D01*
X066369Y063914D01*
X066404Y063957D01*
X066462Y064161D02*
X066482Y063965D01*
X066525Y063930D01*
X066603Y063938D01*
X066639Y063981D01*
X066619Y064177D01*
X066697Y064185D02*
X066854Y064201D01*
X066775Y064193D01*
X066799Y063958D01*
X067050Y064221D02*
X066971Y064213D01*
X066936Y064170D01*
X066952Y064013D01*
X066995Y063978D01*
X067073Y063986D01*
X067109Y064029D01*
X067093Y064186D01*
X067050Y064221D01*
X067167Y064233D02*
X067187Y064037D01*
X067230Y064002D01*
X067308Y064010D01*
X067343Y064053D01*
X067324Y064249D01*
X067402Y064257D02*
X067559Y064273D01*
X067480Y064265D01*
X067504Y064030D01*
X065863Y069284D02*
X065820Y069320D01*
X065741Y069312D01*
X065706Y069268D01*
X065722Y069112D01*
X065765Y069077D01*
X065843Y069085D01*
X065879Y069128D01*
X065937Y069331D02*
X065957Y069136D01*
X066000Y069100D01*
X066078Y069108D01*
X066114Y069152D01*
X066094Y069347D01*
X066172Y069355D02*
X066329Y069371D01*
X066250Y069363D01*
X066274Y069128D01*
X066524Y069391D02*
X066446Y069383D01*
X066411Y069340D01*
X066427Y069183D01*
X066470Y069148D01*
X066548Y069156D01*
X066583Y069199D01*
X066567Y069356D01*
X066524Y069391D01*
X066642Y069403D02*
X066662Y069207D01*
X066705Y069172D01*
X066783Y069180D01*
X066818Y069223D01*
X066798Y069419D01*
X066877Y069427D02*
X067033Y069443D01*
X066955Y069435D01*
X066979Y069200D01*
X074126Y061180D02*
X074082Y061215D01*
X074004Y061207D01*
X073969Y061164D01*
X073985Y061008D01*
X074028Y060973D01*
X074106Y060980D01*
X074141Y061024D01*
X074200Y061227D02*
X074220Y061032D01*
X074263Y060996D01*
X074341Y061004D01*
X074376Y061047D01*
X074356Y061243D01*
X074435Y061251D02*
X074591Y061267D01*
X074513Y061259D01*
X074537Y061024D01*
X074787Y061287D02*
X074709Y061279D01*
X074674Y061236D01*
X074690Y061079D01*
X074733Y061044D01*
X074811Y061052D01*
X074846Y061095D01*
X074830Y061252D01*
X074787Y061287D01*
X074905Y061299D02*
X074925Y061103D01*
X074968Y061068D01*
X075046Y061076D01*
X075081Y061119D01*
X075061Y061315D01*
X075140Y061323D02*
X075296Y061339D01*
X075218Y061331D01*
X075242Y061096D01*
X073600Y066350D02*
X073557Y066386D01*
X073479Y066378D01*
X073444Y066335D01*
X073460Y066178D01*
X073503Y066143D01*
X073581Y066151D01*
X073616Y066194D01*
X073675Y066398D02*
X073695Y066202D01*
X073738Y066167D01*
X073816Y066175D01*
X073851Y066218D01*
X073831Y066413D01*
X073910Y066421D02*
X074066Y066437D01*
X073988Y066429D01*
X074012Y066194D01*
X074262Y066457D02*
X074184Y066449D01*
X074149Y066406D01*
X074164Y066250D01*
X074208Y066214D01*
X074286Y066222D01*
X074321Y066265D01*
X074305Y066422D01*
X074262Y066457D01*
X074379Y066469D02*
X074399Y066273D01*
X074442Y066238D01*
X074521Y066246D01*
X074556Y066289D01*
X074536Y066485D01*
X074614Y066493D02*
X074771Y066509D01*
X074693Y066501D01*
X074717Y066266D01*
X044969Y055255D02*
X044926Y055290D01*
X044847Y055282D01*
X044812Y055239D01*
X044828Y055082D01*
X044871Y055047D01*
X044949Y055055D01*
X044985Y055098D01*
X045043Y055302D02*
X045063Y055106D01*
X045106Y055071D01*
X045184Y055079D01*
X045220Y055122D01*
X045200Y055318D01*
X045278Y055326D02*
X045435Y055341D01*
X045356Y055334D01*
X045380Y055099D01*
X045630Y055361D02*
X045552Y055353D01*
X045517Y055310D01*
X045533Y055154D01*
X045576Y055118D01*
X045654Y055126D01*
X045689Y055170D01*
X045674Y055326D01*
X045630Y055361D01*
X045748Y055373D02*
X045768Y055178D01*
X045811Y055142D01*
X045889Y055150D01*
X045924Y055193D01*
X045905Y055389D01*
X045983Y055397D02*
X046139Y055413D01*
X046061Y055405D01*
X046085Y055170D01*
X044444Y060425D02*
X044400Y060460D01*
X044322Y060452D01*
X044287Y060409D01*
X044303Y060252D01*
X044346Y060217D01*
X044424Y060225D01*
X044460Y060268D01*
X044518Y060472D02*
X044538Y060276D01*
X044581Y060241D01*
X044659Y060249D01*
X044694Y060292D01*
X044675Y060488D01*
X044753Y060496D02*
X044909Y060512D01*
X044831Y060504D01*
X044855Y060269D01*
X045105Y060532D02*
X045027Y060524D01*
X044992Y060481D01*
X045008Y060324D01*
X045051Y060289D01*
X045129Y060297D01*
X045164Y060340D01*
X045148Y060496D01*
X045105Y060532D01*
X045223Y060544D02*
X045243Y060348D01*
X045286Y060313D01*
X045364Y060321D01*
X045399Y060364D01*
X045379Y060559D01*
X045458Y060567D02*
X045614Y060583D01*
X045536Y060575D01*
X045560Y060340D01*
X052408Y055254D02*
X052365Y055290D01*
X052287Y055282D01*
X052252Y055239D01*
X052268Y055082D01*
X052311Y055047D01*
X052389Y055055D01*
X052424Y055098D01*
X052483Y055302D02*
X052503Y055106D01*
X052546Y055071D01*
X052624Y055079D01*
X052659Y055122D01*
X052639Y055317D01*
X052718Y055325D02*
X052874Y055341D01*
X052796Y055333D01*
X052820Y055098D01*
X053070Y055361D02*
X052992Y055353D01*
X052957Y055310D01*
X052973Y055154D01*
X053016Y055118D01*
X053094Y055126D01*
X053129Y055169D01*
X053113Y055326D01*
X053070Y055361D01*
X053188Y055373D02*
X053207Y055177D01*
X053251Y055142D01*
X053329Y055150D01*
X053364Y055193D01*
X053344Y055389D01*
X053423Y055397D02*
X053579Y055413D01*
X053501Y055405D01*
X053525Y055170D01*
X051883Y060425D02*
X051840Y060460D01*
X051762Y060452D01*
X051727Y060409D01*
X051743Y060252D01*
X051786Y060217D01*
X051864Y060225D01*
X051899Y060268D01*
X051958Y060472D02*
X051977Y060276D01*
X052021Y060241D01*
X052099Y060249D01*
X052134Y060292D01*
X052114Y060488D01*
X052193Y060496D02*
X052349Y060512D01*
X052271Y060504D01*
X052295Y060269D01*
X052545Y060531D02*
X052467Y060524D01*
X052431Y060480D01*
X052447Y060324D01*
X052491Y060289D01*
X052569Y060297D01*
X052604Y060340D01*
X052588Y060496D01*
X052545Y060531D01*
X052662Y060543D02*
X052682Y060348D01*
X052725Y060312D01*
X052804Y060320D01*
X052839Y060364D01*
X052819Y060559D01*
X052897Y060567D02*
X053054Y060583D01*
X052976Y060575D01*
X053000Y060340D01*
X059585Y057843D02*
X059542Y057879D01*
X059464Y057871D01*
X059429Y057827D01*
X059444Y057671D01*
X059488Y057636D01*
X059566Y057644D01*
X059601Y057687D01*
X059659Y057890D02*
X059679Y057695D01*
X059722Y057660D01*
X059801Y057667D01*
X059836Y057711D01*
X059816Y057906D01*
X059894Y057914D02*
X060051Y057930D01*
X059973Y057922D01*
X059997Y057687D01*
X060247Y057950D02*
X060168Y057942D01*
X060133Y057899D01*
X060149Y057742D01*
X060192Y057707D01*
X060271Y057715D01*
X060306Y057758D01*
X060290Y057915D01*
X060247Y057950D01*
X060364Y057962D02*
X060384Y057766D01*
X060427Y057731D01*
X060506Y057739D01*
X060541Y057782D01*
X060521Y057978D01*
X060599Y057986D02*
X060756Y058002D01*
X060678Y057994D01*
X060701Y057759D01*
X059060Y063014D02*
X059017Y063049D01*
X058939Y063041D01*
X058903Y062998D01*
X058919Y062841D01*
X058962Y062806D01*
X059041Y062814D01*
X059076Y062857D01*
X059134Y063061D02*
X059154Y062865D01*
X059197Y062830D01*
X059276Y062838D01*
X059311Y062881D01*
X059291Y063077D01*
X059369Y063085D02*
X059526Y063100D01*
X059448Y063093D01*
X059471Y062858D01*
X059722Y063120D02*
X059643Y063112D01*
X059608Y063069D01*
X059624Y062913D01*
X059667Y062877D01*
X059745Y062885D01*
X059781Y062929D01*
X059765Y063085D01*
X059722Y063120D01*
X059839Y063132D02*
X059859Y062937D01*
X059902Y062901D01*
X059980Y062909D01*
X060016Y062952D01*
X059996Y063148D01*
X060074Y063156D02*
X060231Y063172D01*
X060152Y063164D01*
X060176Y062929D01*
X067136Y056750D02*
X067093Y056786D01*
X067014Y056778D01*
X066979Y056735D01*
X066995Y056578D01*
X067038Y056543D01*
X067117Y056551D01*
X067152Y056594D01*
X067210Y056798D02*
X067230Y056602D01*
X067273Y056567D01*
X067351Y056575D01*
X067387Y056618D01*
X067367Y056813D01*
X067445Y056821D02*
X067602Y056837D01*
X067523Y056829D01*
X067547Y056594D01*
X067797Y056857D02*
X067719Y056849D01*
X067684Y056806D01*
X067700Y056649D01*
X067743Y056614D01*
X067821Y056622D01*
X067857Y056665D01*
X067841Y056822D01*
X067797Y056857D01*
X067915Y056869D02*
X067935Y056673D01*
X067978Y056638D01*
X068056Y056646D01*
X068091Y056689D01*
X068072Y056885D01*
X068150Y056893D02*
X068307Y056909D01*
X068228Y056901D01*
X068252Y056666D01*
X066611Y061921D02*
X066568Y061956D01*
X066489Y061948D01*
X066454Y061905D01*
X066470Y061748D01*
X066513Y061713D01*
X066591Y061721D01*
X066627Y061764D01*
X066685Y061968D02*
X066705Y061772D01*
X066748Y061737D01*
X066826Y061745D01*
X066861Y061788D01*
X066842Y061984D01*
X066920Y061992D02*
X067077Y062008D01*
X066998Y062000D01*
X067022Y061765D01*
X067272Y062027D02*
X067194Y062019D01*
X067159Y061976D01*
X067175Y061820D01*
X067218Y061785D01*
X067296Y061792D01*
X067331Y061836D01*
X067315Y061992D01*
X067272Y062027D01*
X067390Y062039D02*
X067410Y061844D01*
X067453Y061808D01*
X067531Y061816D01*
X067566Y061859D01*
X067546Y062055D01*
X067625Y062063D02*
X067781Y062079D01*
X067703Y062071D01*
X067727Y061836D01*
X074873Y053817D02*
X074830Y053852D01*
X074752Y053844D01*
X074717Y053801D01*
X074733Y053644D01*
X074776Y053609D01*
X074854Y053617D01*
X074889Y053660D01*
X074948Y053864D02*
X074968Y053668D01*
X075011Y053633D01*
X075089Y053641D01*
X075124Y053684D01*
X075104Y053880D01*
X075183Y053888D02*
X075339Y053903D01*
X075261Y053895D01*
X075285Y053661D01*
X075535Y053923D02*
X075457Y053915D01*
X075422Y053872D01*
X075438Y053716D01*
X075481Y053680D01*
X075559Y053688D01*
X075594Y053732D01*
X075578Y053888D01*
X075535Y053923D01*
X075653Y053935D02*
X075673Y053739D01*
X075716Y053704D01*
X075794Y053712D01*
X075829Y053755D01*
X075809Y053951D01*
X075888Y053959D02*
X076044Y053975D01*
X075966Y053967D01*
X075990Y053732D01*
X074348Y058987D02*
X074305Y059022D01*
X074227Y059014D01*
X074192Y058971D01*
X074208Y058814D01*
X074251Y058779D01*
X074329Y058787D01*
X074364Y058830D01*
X074423Y059034D02*
X074443Y058838D01*
X074486Y058803D01*
X074564Y058811D01*
X074599Y058854D01*
X074579Y059050D01*
X074658Y059058D02*
X074814Y059074D01*
X074736Y059066D01*
X074760Y058831D01*
X075010Y059094D02*
X074932Y059086D01*
X074896Y059042D01*
X074912Y058886D01*
X074956Y058851D01*
X075034Y058859D01*
X075069Y058902D01*
X075053Y059058D01*
X075010Y059094D01*
X075127Y059106D02*
X075147Y058910D01*
X075190Y058875D01*
X075269Y058882D01*
X075304Y058926D01*
X075284Y059121D01*
X075362Y059129D02*
X075519Y059145D01*
X075441Y059137D01*
X075465Y058902D01*
X042205Y047598D02*
X042165Y047638D01*
X042087D01*
X042047Y047598D01*
Y047441D01*
X042087Y047402D01*
X042165D01*
X042205Y047441D01*
X042283Y047638D02*
Y047441D01*
X042323Y047402D01*
X042401D01*
X042441Y047441D01*
Y047638D01*
X042520D02*
X042677D01*
X042598D01*
Y047402D01*
X042874Y047638D02*
X042795D01*
X042756Y047598D01*
Y047441D01*
X042795Y047402D01*
X042874D01*
X042913Y047441D01*
Y047598D01*
X042874Y047638D01*
X042992D02*
Y047441D01*
X043031Y047402D01*
X043110D01*
X043149Y047441D01*
Y047638D01*
X043228D02*
X043385D01*
X043307D01*
Y047402D01*
X042205Y052795D02*
X042165Y052835D01*
X042087D01*
X042047Y052795D01*
Y052638D01*
X042087Y052598D01*
X042165D01*
X042205Y052638D01*
X042283Y052835D02*
Y052638D01*
X042323Y052598D01*
X042401D01*
X042441Y052638D01*
Y052835D01*
X042520D02*
X042677D01*
X042598D01*
Y052598D01*
X042874Y052835D02*
X042795D01*
X042756Y052795D01*
Y052638D01*
X042795Y052598D01*
X042874D01*
X042913Y052638D01*
Y052795D01*
X042874Y052835D01*
X042992D02*
Y052638D01*
X043031Y052598D01*
X043110D01*
X043149Y052638D01*
Y052835D01*
X043228D02*
X043385D01*
X043307D01*
Y052598D01*
X049606Y047598D02*
X049567Y047638D01*
X049488D01*
X049449Y047598D01*
Y047441D01*
X049488Y047402D01*
X049567D01*
X049606Y047441D01*
X049685Y047638D02*
Y047441D01*
X049724Y047402D01*
X049803D01*
X049842Y047441D01*
Y047638D01*
X049921D02*
X050079D01*
X050000D01*
Y047402D01*
X050275Y047638D02*
X050197D01*
X050157Y047598D01*
Y047441D01*
X050197Y047402D01*
X050275D01*
X050315Y047441D01*
Y047598D01*
X050275Y047638D01*
X050393D02*
Y047441D01*
X050433Y047402D01*
X050511D01*
X050551Y047441D01*
Y047638D01*
X050630D02*
X050787D01*
X050708D01*
Y047402D01*
X049606Y052795D02*
X049567Y052835D01*
X049488D01*
X049449Y052795D01*
Y052638D01*
X049488Y052598D01*
X049567D01*
X049606Y052638D01*
X049685Y052835D02*
Y052638D01*
X049724Y052598D01*
X049803D01*
X049842Y052638D01*
Y052835D01*
X049921D02*
X050079D01*
X050000D01*
Y052598D01*
X050275Y052835D02*
X050197D01*
X050157Y052795D01*
Y052638D01*
X050197Y052598D01*
X050275D01*
X050315Y052638D01*
Y052795D01*
X050275Y052835D01*
X050393D02*
Y052638D01*
X050433Y052598D01*
X050511D01*
X050551Y052638D01*
Y052835D01*
X050630D02*
X050787D01*
X050708D01*
Y052598D01*
X057008Y047598D02*
X056968Y047638D01*
X056890D01*
X056850Y047598D01*
Y047441D01*
X056890Y047402D01*
X056968D01*
X057008Y047441D01*
X057087Y047638D02*
Y047441D01*
X057126Y047402D01*
X057205D01*
X057244Y047441D01*
Y047638D01*
X057323D02*
X057480D01*
X057401D01*
Y047402D01*
X057677Y047638D02*
X057598D01*
X057559Y047598D01*
Y047441D01*
X057598Y047402D01*
X057677D01*
X057716Y047441D01*
Y047598D01*
X057677Y047638D01*
X057795D02*
Y047441D01*
X057834Y047402D01*
X057913D01*
X057952Y047441D01*
Y047638D01*
X058031D02*
X058189D01*
X058110D01*
Y047402D01*
X057008Y052795D02*
X056968Y052835D01*
X056890D01*
X056850Y052795D01*
Y052638D01*
X056890Y052598D01*
X056968D01*
X057008Y052638D01*
X057087Y052835D02*
Y052638D01*
X057126Y052598D01*
X057205D01*
X057244Y052638D01*
Y052835D01*
X057323D02*
X057480D01*
X057401D01*
Y052598D01*
X057677Y052835D02*
X057598D01*
X057559Y052795D01*
Y052638D01*
X057598Y052598D01*
X057677D01*
X057716Y052638D01*
Y052795D01*
X057677Y052835D01*
X057795D02*
Y052638D01*
X057834Y052598D01*
X057913D01*
X057952Y052638D01*
Y052835D01*
X058031D02*
X058189D01*
X058110D01*
Y052598D01*
X064409Y047598D02*
X064370Y047638D01*
X064291D01*
X064252Y047598D01*
Y047441D01*
X064291Y047402D01*
X064370D01*
X064409Y047441D01*
X064488Y047638D02*
Y047441D01*
X064527Y047402D01*
X064606D01*
X064646Y047441D01*
Y047638D01*
X064724D02*
X064882D01*
X064803D01*
Y047402D01*
X065078Y047638D02*
X065000D01*
X064960Y047598D01*
Y047441D01*
X065000Y047402D01*
X065078D01*
X065118Y047441D01*
Y047598D01*
X065078Y047638D01*
X065197D02*
Y047441D01*
X065236Y047402D01*
X065315D01*
X065354Y047441D01*
Y047638D01*
X065433D02*
X065590D01*
X065511D01*
Y047402D01*
X064409Y052795D02*
X064370Y052835D01*
X064291D01*
X064252Y052795D01*
Y052638D01*
X064291Y052598D01*
X064370D01*
X064409Y052638D01*
X064488Y052835D02*
Y052638D01*
X064527Y052598D01*
X064606D01*
X064646Y052638D01*
Y052835D01*
X064724D02*
X064882D01*
X064803D01*
Y052598D01*
X065078Y052835D02*
X065000D01*
X064960Y052795D01*
Y052638D01*
X065000Y052598D01*
X065078D01*
X065118Y052638D01*
Y052795D01*
X065078Y052835D01*
X065197D02*
Y052638D01*
X065236Y052598D01*
X065315D01*
X065354Y052638D01*
Y052835D01*
X065433D02*
X065590D01*
X065511D01*
Y052598D01*
X042205Y040197D02*
X042165Y040236D01*
X042087D01*
X042047Y040197D01*
Y040039D01*
X042087Y040000D01*
X042165D01*
X042205Y040039D01*
X042283Y040236D02*
Y040039D01*
X042323Y040000D01*
X042401D01*
X042441Y040039D01*
Y040236D01*
X042520D02*
X042677D01*
X042598D01*
Y040000D01*
X042874Y040236D02*
X042795D01*
X042756Y040197D01*
Y040039D01*
X042795Y040000D01*
X042874D01*
X042913Y040039D01*
Y040197D01*
X042874Y040236D01*
X042992D02*
Y040039D01*
X043031Y040000D01*
X043110D01*
X043149Y040039D01*
Y040236D01*
X043228D02*
X043385D01*
X043307D01*
Y040000D01*
X042205Y045394D02*
X042165Y045433D01*
X042087D01*
X042047Y045394D01*
Y045236D01*
X042087Y045197D01*
X042165D01*
X042205Y045236D01*
X042283Y045433D02*
Y045236D01*
X042323Y045197D01*
X042401D01*
X042441Y045236D01*
Y045433D01*
X042520D02*
X042677D01*
X042598D01*
Y045197D01*
X042874Y045433D02*
X042795D01*
X042756Y045394D01*
Y045236D01*
X042795Y045197D01*
X042874D01*
X042913Y045236D01*
Y045394D01*
X042874Y045433D01*
X042992D02*
Y045236D01*
X043031Y045197D01*
X043110D01*
X043149Y045236D01*
Y045433D01*
X043228D02*
X043385D01*
X043307D01*
Y045197D01*
X049606Y040197D02*
X049567Y040236D01*
X049488D01*
X049449Y040197D01*
Y040039D01*
X049488Y040000D01*
X049567D01*
X049606Y040039D01*
X049685Y040236D02*
Y040039D01*
X049724Y040000D01*
X049803D01*
X049842Y040039D01*
Y040236D01*
X049921D02*
X050079D01*
X050000D01*
Y040000D01*
X050275Y040236D02*
X050197D01*
X050157Y040197D01*
Y040039D01*
X050197Y040000D01*
X050275D01*
X050315Y040039D01*
Y040197D01*
X050275Y040236D01*
X050393D02*
Y040039D01*
X050433Y040000D01*
X050511D01*
X050551Y040039D01*
Y040236D01*
X050630D02*
X050787D01*
X050708D01*
Y040000D01*
X049606Y045394D02*
X049567Y045433D01*
X049488D01*
X049449Y045394D01*
Y045236D01*
X049488Y045197D01*
X049567D01*
X049606Y045236D01*
X049685Y045433D02*
Y045236D01*
X049724Y045197D01*
X049803D01*
X049842Y045236D01*
Y045433D01*
X049921D02*
X050079D01*
X050000D01*
Y045197D01*
X050275Y045433D02*
X050197D01*
X050157Y045394D01*
Y045236D01*
X050197Y045197D01*
X050275D01*
X050315Y045236D01*
Y045394D01*
X050275Y045433D01*
X050393D02*
Y045236D01*
X050433Y045197D01*
X050511D01*
X050551Y045236D01*
Y045433D01*
X050630D02*
X050787D01*
X050708D01*
Y045197D01*
X057008Y040197D02*
X056968Y040236D01*
X056890D01*
X056850Y040197D01*
Y040039D01*
X056890Y040000D01*
X056968D01*
X057008Y040039D01*
X057087Y040236D02*
Y040039D01*
X057126Y040000D01*
X057205D01*
X057244Y040039D01*
Y040236D01*
X057323D02*
X057480D01*
X057401D01*
Y040000D01*
X057677Y040236D02*
X057598D01*
X057559Y040197D01*
Y040039D01*
X057598Y040000D01*
X057677D01*
X057716Y040039D01*
Y040197D01*
X057677Y040236D01*
X057795D02*
Y040039D01*
X057834Y040000D01*
X057913D01*
X057952Y040039D01*
Y040236D01*
X058031D02*
X058189D01*
X058110D01*
Y040000D01*
X057008Y045394D02*
X056968Y045433D01*
X056890D01*
X056850Y045394D01*
Y045236D01*
X056890Y045197D01*
X056968D01*
X057008Y045236D01*
X057087Y045433D02*
Y045236D01*
X057126Y045197D01*
X057205D01*
X057244Y045236D01*
Y045433D01*
X057323D02*
X057480D01*
X057401D01*
Y045197D01*
X057677Y045433D02*
X057598D01*
X057559Y045394D01*
Y045236D01*
X057598Y045197D01*
X057677D01*
X057716Y045236D01*
Y045394D01*
X057677Y045433D01*
X057795D02*
Y045236D01*
X057834Y045197D01*
X057913D01*
X057952Y045236D01*
Y045433D01*
X058031D02*
X058189D01*
X058110D01*
Y045197D01*
X064409Y040197D02*
X064370Y040236D01*
X064291D01*
X064252Y040197D01*
Y040039D01*
X064291Y040000D01*
X064370D01*
X064409Y040039D01*
X064488Y040236D02*
Y040039D01*
X064527Y040000D01*
X064606D01*
X064646Y040039D01*
Y040236D01*
X064724D02*
X064882D01*
X064803D01*
Y040000D01*
X065078Y040236D02*
X065000D01*
X064960Y040197D01*
Y040039D01*
X065000Y040000D01*
X065078D01*
X065118Y040039D01*
Y040197D01*
X065078Y040236D01*
X065197D02*
Y040039D01*
X065236Y040000D01*
X065315D01*
X065354Y040039D01*
Y040236D01*
X065433D02*
X065590D01*
X065511D01*
Y040000D01*
X064409Y045394D02*
X064370Y045433D01*
X064291D01*
X064252Y045394D01*
Y045236D01*
X064291Y045197D01*
X064370D01*
X064409Y045236D01*
X064488Y045433D02*
Y045236D01*
X064527Y045197D01*
X064606D01*
X064646Y045236D01*
Y045433D01*
X064724D02*
X064882D01*
X064803D01*
Y045197D01*
X065078Y045433D02*
X065000D01*
X064960Y045394D01*
Y045236D01*
X065000Y045197D01*
X065078D01*
X065118Y045236D01*
Y045394D01*
X065078Y045433D01*
X065197D02*
Y045236D01*
X065236Y045197D01*
X065315D01*
X065354Y045236D01*
Y045433D01*
X065433D02*
X065590D01*
X065511D01*
Y045197D01*
M02*
