%FSAX24Y24*%
%MOIN*%
G70*
G01*
G75*
G04 Layer_Physical_Order=1*
G04 Layer_Color=255*
G04:AMPARAMS|DCode=10|XSize=70.9mil|YSize=43.3mil|CornerRadius=10.8mil|HoleSize=0mil|Usage=FLASHONLY|Rotation=0.000|XOffset=0mil|YOffset=0mil|HoleType=Round|Shape=RoundedRectangle|*
%AMROUNDEDRECTD10*
21,1,0.0709,0.0217,0,0,0.0*
21,1,0.0492,0.0433,0,0,0.0*
1,1,0.0217,0.0246,-0.0108*
1,1,0.0217,-0.0246,-0.0108*
1,1,0.0217,-0.0246,0.0108*
1,1,0.0217,0.0246,0.0108*
%
%ADD10ROUNDEDRECTD10*%
%ADD11O,0.0374X0.0630*%
%ADD12R,0.0134X0.0394*%
G04:AMPARAMS|DCode=13|XSize=27.6mil|YSize=78.7mil|CornerRadius=6.9mil|HoleSize=0mil|Usage=FLASHONLY|Rotation=270.000|XOffset=0mil|YOffset=0mil|HoleType=Round|Shape=RoundedRectangle|*
%AMROUNDEDRECTD13*
21,1,0.0276,0.0650,0,0,270.0*
21,1,0.0138,0.0787,0,0,270.0*
1,1,0.0138,-0.0325,-0.0069*
1,1,0.0138,-0.0325,0.0069*
1,1,0.0138,0.0325,0.0069*
1,1,0.0138,0.0325,-0.0069*
%
%ADD13ROUNDEDRECTD13*%
G04:AMPARAMS|DCode=14|XSize=27.6mil|YSize=78.7mil|CornerRadius=6.9mil|HoleSize=0mil|Usage=FLASHONLY|Rotation=0.000|XOffset=0mil|YOffset=0mil|HoleType=Round|Shape=RoundedRectangle|*
%AMROUNDEDRECTD14*
21,1,0.0276,0.0650,0,0,0.0*
21,1,0.0138,0.0787,0,0,0.0*
1,1,0.0138,0.0069,-0.0325*
1,1,0.0138,-0.0069,-0.0325*
1,1,0.0138,-0.0069,0.0325*
1,1,0.0138,0.0069,0.0325*
%
%ADD14ROUNDEDRECTD14*%
G04:AMPARAMS|DCode=15|XSize=39.4mil|YSize=94.5mil|CornerRadius=9.8mil|HoleSize=0mil|Usage=FLASHONLY|Rotation=270.000|XOffset=0mil|YOffset=0mil|HoleType=Round|Shape=RoundedRectangle|*
%AMROUNDEDRECTD15*
21,1,0.0394,0.0748,0,0,270.0*
21,1,0.0197,0.0945,0,0,270.0*
1,1,0.0197,-0.0374,-0.0098*
1,1,0.0197,-0.0374,0.0098*
1,1,0.0197,0.0374,0.0098*
1,1,0.0197,0.0374,-0.0098*
%
%ADD15ROUNDEDRECTD15*%
G04:AMPARAMS|DCode=16|XSize=129.9mil|YSize=94.5mil|CornerRadius=11.8mil|HoleSize=0mil|Usage=FLASHONLY|Rotation=270.000|XOffset=0mil|YOffset=0mil|HoleType=Round|Shape=RoundedRectangle|*
%AMROUNDEDRECTD16*
21,1,0.1299,0.0709,0,0,270.0*
21,1,0.1063,0.0945,0,0,270.0*
1,1,0.0236,-0.0354,-0.0532*
1,1,0.0236,-0.0354,0.0532*
1,1,0.0236,0.0354,0.0532*
1,1,0.0236,0.0354,-0.0532*
%
%ADD16ROUNDEDRECTD16*%
%ADD17C,0.0100*%
%ADD18C,0.0200*%
%ADD19C,0.0591*%
%ADD20R,0.0591X0.0591*%
%ADD21R,0.0591X0.0591*%
%ADD22C,0.0236*%
D10*
X028930Y028772D02*
D03*
X031370D02*
D03*
Y030228D02*
D03*
X028930D02*
D03*
X025530Y028772D02*
D03*
X027970D02*
D03*
Y030228D02*
D03*
X025530D02*
D03*
D11*
X027645Y032759D02*
D03*
X027055D02*
D03*
X027645Y031441D02*
D03*
X027055D02*
D03*
D12*
X025907Y030906D02*
D03*
X025593D02*
D03*
X025278D02*
D03*
X026222D02*
D03*
X025278Y031694D02*
D03*
X025593D02*
D03*
X025907D02*
D03*
X026222D02*
D03*
X025907Y032506D02*
D03*
X025593D02*
D03*
X025278D02*
D03*
X026222D02*
D03*
X025278Y033294D02*
D03*
X025593D02*
D03*
X025907D02*
D03*
X026222D02*
D03*
D13*
X032325Y034045D02*
D03*
Y029281D02*
D03*
Y032746D02*
D03*
Y032313D02*
D03*
Y031880D02*
D03*
Y031447D02*
D03*
Y031014D02*
D03*
Y030581D02*
D03*
Y029715D02*
D03*
Y033612D02*
D03*
Y030148D02*
D03*
Y033179D02*
D03*
X039175Y033612D02*
D03*
Y029281D02*
D03*
Y029715D02*
D03*
Y030148D02*
D03*
Y030581D02*
D03*
Y031447D02*
D03*
Y031880D02*
D03*
Y032313D02*
D03*
Y032746D02*
D03*
Y033179D02*
D03*
Y031014D02*
D03*
Y034045D02*
D03*
D14*
X035533Y027982D02*
D03*
X035967D02*
D03*
X034667D02*
D03*
X033368D02*
D03*
X033801D02*
D03*
X034234D02*
D03*
X035100D02*
D03*
X037699D02*
D03*
X038132D02*
D03*
X036833D02*
D03*
X037266D02*
D03*
X036400D02*
D03*
D15*
X031192Y031194D02*
D03*
Y032100D02*
D03*
Y033006D02*
D03*
D16*
X028908Y032100D02*
D03*
D17*
X033750Y029500D02*
X038250D01*
X033450Y028900D02*
Y032000D01*
X033137Y032313D02*
X033450Y032000D01*
X032325Y032313D02*
X033137D01*
X032050Y028400D02*
X032950D01*
X033450Y028900D01*
X032325Y031880D02*
X032870D01*
X033150Y031600D01*
Y029100D02*
Y031600D01*
X032850Y028800D02*
X033150Y029100D01*
X032050Y028800D02*
X032850D01*
X030050Y030228D02*
X030122D01*
X028930D02*
X030050D01*
Y030631D01*
X030550Y028700D02*
Y029800D01*
X030122Y030228D02*
X030550Y029800D01*
X028250Y032900D02*
X028350Y033000D01*
X028050Y032500D02*
Y033400D01*
X027645Y032095D02*
X028050Y032500D01*
X031550Y031194D02*
Y031600D01*
X028250Y030300D02*
Y032900D01*
X028178Y030228D02*
X028250Y030300D01*
X027970Y030228D02*
X028178D01*
X031370D02*
X031451Y030148D01*
X032325D01*
X030550Y028700D02*
X031250Y028000D01*
X031370Y030228D02*
Y030631D01*
X025550Y029500D02*
X029750D01*
X025350Y029700D02*
X025550Y029500D01*
X026850Y029800D02*
X029450D01*
X027450Y029200D02*
X030050D01*
X027150Y028900D02*
X027450Y029200D01*
X027150Y028100D02*
Y028900D01*
Y028100D02*
X027250Y028000D01*
X026456Y033294D02*
X026550Y033200D01*
X026222Y033294D02*
X026456D01*
X026222Y031428D02*
X026850Y030800D01*
X026222Y031428D02*
Y031694D01*
X025552Y030206D02*
X027948D01*
X027970Y030228D01*
X025530D02*
X025552Y030206D01*
X026222Y030503D02*
Y030906D01*
X025907Y031694D02*
X026222D01*
X025050Y032100D02*
X025250D01*
X025278Y032128D01*
Y032506D01*
X025650Y033797D02*
X025907Y033540D01*
Y033294D02*
Y033540D01*
X030950Y031100D02*
Y031600D01*
X031250Y031100D02*
Y031600D01*
X025278Y033294D02*
X025593D01*
X030870Y028772D02*
X031370D01*
X028930D02*
X029430D01*
X027470D02*
X027970D01*
X025530D02*
X026030D01*
X027645Y031441D02*
Y032095D01*
X038250Y031500D02*
X038630Y031880D01*
X039175D01*
X038250Y032500D02*
X038450D01*
X038637Y032313D01*
X039175D01*
X025593Y031694D02*
X025907D01*
X025278D02*
X025593D01*
X025278Y030906D02*
X025593D01*
X025156D02*
X025278D01*
X025025Y030775D02*
X025156Y030906D01*
X025025Y028525D02*
Y030775D01*
Y028525D02*
X025550Y028000D01*
X026250D01*
X027645Y032595D02*
Y032759D01*
X027250Y032200D02*
X027645Y032595D01*
X026850Y032200D02*
X027250D01*
X027055Y031441D02*
Y031595D01*
X026550Y032100D02*
X027055Y031595D01*
X025950Y032100D02*
X026550D01*
X026544Y032506D02*
X026850Y032200D01*
X026222Y032506D02*
X026544D01*
X025907Y032143D02*
X025950Y032100D01*
X025907Y032143D02*
Y032506D01*
X026914Y032900D02*
X027055Y032759D01*
X025650Y032900D02*
X026914D01*
X025593Y032843D02*
X025650Y032900D01*
X025593Y032506D02*
Y032843D01*
D18*
X026850Y033400D02*
X028050D01*
X029147Y033000D02*
X030053D01*
X030553Y032500D01*
X030644Y033006D02*
X031192D01*
X030250Y033400D02*
X030644Y033006D01*
X028050Y033400D02*
X030250D01*
X032325Y034045D02*
X032825D01*
X031825D02*
X032325D01*
Y029715D02*
X032825D01*
X031825D02*
X032325D01*
X030450Y030359D02*
Y032100D01*
Y030359D02*
X031527Y029281D01*
X032325D01*
X028908Y032100D02*
X031192D01*
X032325Y029281D02*
X032825D01*
X026250Y034000D02*
X026850Y033400D01*
D19*
X031250Y028000D02*
D03*
X030250D02*
D03*
X029250D02*
D03*
X028250D02*
D03*
X027250D02*
D03*
X038250Y030500D02*
D03*
Y031500D02*
D03*
Y032500D02*
D03*
X031250Y034000D02*
D03*
X030250D02*
D03*
X029250D02*
D03*
X028250D02*
D03*
X027250D02*
D03*
D20*
X026250Y028000D02*
D03*
Y034000D02*
D03*
D21*
X038250Y029500D02*
D03*
D22*
X033750D02*
D03*
X030050Y030631D02*
D03*
X032050Y028800D02*
D03*
Y028400D02*
D03*
X028350Y033000D02*
D03*
X030553Y032500D02*
D03*
X029147Y033000D02*
D03*
X031825Y029715D02*
D03*
X031370Y030631D02*
D03*
X030050Y029200D02*
D03*
X029750Y029500D02*
D03*
X029450Y029800D02*
D03*
X026850D02*
D03*
Y030800D02*
D03*
X025650Y033797D02*
D03*
X026550Y033200D02*
D03*
X032825Y029281D02*
D03*
X026222Y030503D02*
D03*
X025050Y032100D02*
D03*
X025350Y029700D02*
D03*
X030950Y031600D02*
D03*
X031250D02*
D03*
X031550D02*
D03*
X031825Y034045D02*
D03*
X032825D02*
D03*
Y029715D02*
D03*
X030870Y028772D02*
D03*
X029430D02*
D03*
X027470D02*
D03*
X026030D02*
D03*
M02*
