M48
;Layer_Color=9474304
;FILE_FORMAT=2:4
INCH
;TYPE=PLATED
T1F00S00C0.0118
T2F00S00C0.0354
%
T01
X032050Y028400
Y028800
X031825Y029715
X032825
Y029281
X033750Y029500
X031370Y030631
X030050
Y029200
X029750Y029500
X029450Y029800
X029430Y028772
X030870
X027470
X026030
X025350Y029700
X026850Y029800
Y030800
X026222Y030503
X025050Y032100
X025650Y033797
X026550Y033200
X028350Y033000
X029147
X030553Y032500
X030950Y031600
X031250
X031550
X031825Y034045
X032825
T02
X031250Y028000
X038250Y029500
Y030500
X030250Y028000
X029250
X028250
X027250
X026250
Y034000
X027250
X028250
X029250
X030250
X031250
X038250Y032500
Y031500
M30
