%FSAX24Y24*%
%MOIN*%
G70*
G01*
G75*
G04 Layer_Physical_Order=2*
G04 Layer_Color=16711680*
G04:AMPARAMS|DCode=10|XSize=70.9mil|YSize=43.3mil|CornerRadius=10.8mil|HoleSize=0mil|Usage=FLASHONLY|Rotation=0.000|XOffset=0mil|YOffset=0mil|HoleType=Round|Shape=RoundedRectangle|*
%AMROUNDEDRECTD10*
21,1,0.0709,0.0217,0,0,0.0*
21,1,0.0492,0.0433,0,0,0.0*
1,1,0.0217,0.0246,-0.0108*
1,1,0.0217,-0.0246,-0.0108*
1,1,0.0217,-0.0246,0.0108*
1,1,0.0217,0.0246,0.0108*
%
%ADD10ROUNDEDRECTD10*%
%ADD11O,0.0374X0.0630*%
%ADD12R,0.0134X0.0394*%
G04:AMPARAMS|DCode=13|XSize=27.6mil|YSize=78.7mil|CornerRadius=6.9mil|HoleSize=0mil|Usage=FLASHONLY|Rotation=270.000|XOffset=0mil|YOffset=0mil|HoleType=Round|Shape=RoundedRectangle|*
%AMROUNDEDRECTD13*
21,1,0.0276,0.0650,0,0,270.0*
21,1,0.0138,0.0787,0,0,270.0*
1,1,0.0138,-0.0325,-0.0069*
1,1,0.0138,-0.0325,0.0069*
1,1,0.0138,0.0325,0.0069*
1,1,0.0138,0.0325,-0.0069*
%
%ADD13ROUNDEDRECTD13*%
G04:AMPARAMS|DCode=14|XSize=27.6mil|YSize=78.7mil|CornerRadius=6.9mil|HoleSize=0mil|Usage=FLASHONLY|Rotation=0.000|XOffset=0mil|YOffset=0mil|HoleType=Round|Shape=RoundedRectangle|*
%AMROUNDEDRECTD14*
21,1,0.0276,0.0650,0,0,0.0*
21,1,0.0138,0.0787,0,0,0.0*
1,1,0.0138,0.0069,-0.0325*
1,1,0.0138,-0.0069,-0.0325*
1,1,0.0138,-0.0069,0.0325*
1,1,0.0138,0.0069,0.0325*
%
%ADD14ROUNDEDRECTD14*%
G04:AMPARAMS|DCode=15|XSize=39.4mil|YSize=94.5mil|CornerRadius=9.8mil|HoleSize=0mil|Usage=FLASHONLY|Rotation=270.000|XOffset=0mil|YOffset=0mil|HoleType=Round|Shape=RoundedRectangle|*
%AMROUNDEDRECTD15*
21,1,0.0394,0.0748,0,0,270.0*
21,1,0.0197,0.0945,0,0,270.0*
1,1,0.0197,-0.0374,-0.0098*
1,1,0.0197,-0.0374,0.0098*
1,1,0.0197,0.0374,0.0098*
1,1,0.0197,0.0374,-0.0098*
%
%ADD15ROUNDEDRECTD15*%
G04:AMPARAMS|DCode=16|XSize=129.9mil|YSize=94.5mil|CornerRadius=11.8mil|HoleSize=0mil|Usage=FLASHONLY|Rotation=270.000|XOffset=0mil|YOffset=0mil|HoleType=Round|Shape=RoundedRectangle|*
%AMROUNDEDRECTD16*
21,1,0.1299,0.0709,0,0,270.0*
21,1,0.1063,0.0945,0,0,270.0*
1,1,0.0236,-0.0354,-0.0532*
1,1,0.0236,-0.0354,0.0532*
1,1,0.0236,0.0354,0.0532*
1,1,0.0236,0.0354,-0.0532*
%
%ADD16ROUNDEDRECTD16*%
%ADD17C,0.0100*%
%ADD18C,0.0200*%
%ADD19C,0.0591*%
%ADD20R,0.0591X0.0591*%
%ADD21R,0.0591X0.0591*%
%ADD22C,0.0236*%
G36*
X039597Y027610D02*
X031468D01*
X031452Y027657D01*
X031532Y027718D01*
X031595Y027801D01*
X031635Y027897D01*
X031649Y028000D01*
X031635Y028103D01*
X031595Y028199D01*
X031532Y028282D01*
X031449Y028345D01*
X031353Y028385D01*
X031250Y028399D01*
X031147Y028385D01*
X031051Y028345D01*
X030968Y028282D01*
X030905Y028199D01*
X030865Y028103D01*
X030851Y028000D01*
X030865Y027897D01*
X030905Y027801D01*
X030968Y027718D01*
X031048Y027657D01*
X031032Y027610D01*
X030468D01*
X030452Y027657D01*
X030532Y027718D01*
X030595Y027801D01*
X030635Y027897D01*
X030649Y028000D01*
X030635Y028103D01*
X030595Y028199D01*
X030532Y028282D01*
X030449Y028345D01*
X030353Y028385D01*
X030250Y028399D01*
X030147Y028385D01*
X030100Y028366D01*
X029903Y028563D01*
Y028983D01*
X029947Y029006D01*
X029965Y028995D01*
X030050Y028978D01*
X030135Y028995D01*
X030207Y029043D01*
X030210Y029047D01*
X031187D01*
X031829Y028405D01*
X031828Y028400D01*
X031845Y028315D01*
X031893Y028243D01*
X031965Y028195D01*
X032050Y028178D01*
X032135Y028195D01*
X032207Y028243D01*
X032255Y028315D01*
X032272Y028400D01*
X032255Y028485D01*
X032207Y028557D01*
X032181Y028575D01*
Y028625D01*
X032207Y028643D01*
X032255Y028715D01*
X032272Y028800D01*
X032255Y028885D01*
X032207Y028957D01*
X032135Y029005D01*
X032050Y029022D01*
X032045Y029021D01*
X031158Y029908D01*
X031109Y029941D01*
X031050Y029953D01*
X029610D01*
X029607Y029957D01*
X029535Y030005D01*
X029450Y030022D01*
X029365Y030005D01*
X029293Y029957D01*
X029245Y029885D01*
X029228Y029800D01*
X029245Y029715D01*
X029293Y029643D01*
X029365Y029595D01*
X029450Y029578D01*
X029503Y029588D01*
X029538Y029553D01*
X029528Y029500D01*
X029545Y029415D01*
X029593Y029343D01*
X029597Y029340D01*
Y028975D01*
X029553Y028951D01*
X029515Y028977D01*
X029480Y028984D01*
Y028772D01*
Y028559D01*
X029515Y028566D01*
X029553Y028592D01*
X029597Y028568D01*
Y028500D01*
X029609Y028441D01*
X029642Y028392D01*
X029884Y028150D01*
X029865Y028103D01*
X029851Y028000D01*
X029865Y027897D01*
X029905Y027801D01*
X029968Y027718D01*
X030048Y027657D01*
X030032Y027610D01*
X029468D01*
X029452Y027657D01*
X029532Y027718D01*
X029595Y027801D01*
X029635Y027897D01*
X029642Y027950D01*
X028858D01*
X028865Y027897D01*
X028905Y027801D01*
X028968Y027718D01*
X029048Y027657D01*
X029032Y027610D01*
X028468D01*
X028452Y027657D01*
X028532Y027718D01*
X028595Y027801D01*
X028635Y027897D01*
X028642Y027950D01*
X027858D01*
X027865Y027897D01*
X027905Y027801D01*
X027968Y027718D01*
X028048Y027657D01*
X028032Y027610D01*
X027468D01*
X027452Y027657D01*
X027532Y027718D01*
X027595Y027801D01*
X027635Y027897D01*
X027649Y028000D01*
X027635Y028103D01*
X027595Y028199D01*
X027532Y028282D01*
X027449Y028345D01*
X027353Y028385D01*
X027250Y028399D01*
X027147Y028385D01*
X027051Y028345D01*
X026968Y028282D01*
X026905Y028199D01*
X026865Y028103D01*
X026851Y028000D01*
X026865Y027897D01*
X026905Y027801D01*
X026968Y027718D01*
X027048Y027657D01*
X027032Y027610D01*
X026645D01*
Y028395D01*
X025855D01*
Y027610D01*
X024903D01*
Y031883D01*
X024947Y031906D01*
X024965Y031895D01*
X025050Y031878D01*
X025055Y031879D01*
X025197Y031737D01*
Y029860D01*
X025193Y029857D01*
X025145Y029785D01*
X025128Y029700D01*
X025145Y029615D01*
X025193Y029543D01*
X025265Y029495D01*
X025350Y029478D01*
X025435Y029495D01*
X025507Y029543D01*
X025555Y029615D01*
X025572Y029700D01*
X025555Y029785D01*
X025507Y029857D01*
X025503Y029860D01*
Y031800D01*
X025491Y031859D01*
X025458Y031908D01*
X025271Y032095D01*
X025272Y032100D01*
X025255Y032185D01*
X025207Y032257D01*
X025135Y032305D01*
X025050Y032322D01*
X024965Y032305D01*
X024947Y032294D01*
X024903Y032317D01*
Y034390D01*
X025855D01*
Y033969D01*
X025807Y033955D01*
X025735Y034003D01*
X025650Y034020D01*
X025565Y034003D01*
X025493Y033955D01*
X025445Y033882D01*
X025428Y033797D01*
X025445Y033712D01*
X025493Y033640D01*
X025497Y033637D01*
X025497Y033637D01*
X025497Y033600D01*
X025497Y033600D01*
X025497D01*
X025509Y033541D01*
X025542Y033492D01*
X027042Y031992D01*
X027042D01*
X027042Y031992D01*
X027042Y031992D01*
Y031992D01*
X027091Y031959D01*
X027150Y031947D01*
X029750D01*
X029809Y031959D01*
X029858Y031992D01*
X030299Y032433D01*
X030347Y032418D01*
X030348Y032415D01*
X030396Y032343D01*
X030468Y032295D01*
X030503Y032288D01*
Y032500D01*
X030553D01*
Y032550D01*
X030766D01*
X030759Y032585D01*
X030710Y032657D01*
X030638Y032705D01*
X030635Y032706D01*
X030620Y032754D01*
X031358Y033492D01*
X031391Y033541D01*
X031391Y033541D01*
X031391Y033541D01*
X031403Y033600D01*
Y033636D01*
X031449Y033655D01*
X031532Y033718D01*
X031595Y033801D01*
X031618Y033855D01*
X031656Y033880D01*
X031672Y033885D01*
X031740Y033840D01*
X031775Y033833D01*
Y034045D01*
Y034258D01*
X031740Y034251D01*
X031668Y034203D01*
X031652Y034179D01*
X031602Y034184D01*
X031595Y034199D01*
X031532Y034282D01*
X031452Y034343D01*
X031468Y034390D01*
X039597D01*
Y027610D01*
D02*
G37*
G36*
X030048Y034343D02*
X029968Y034282D01*
X029905Y034199D01*
X029865Y034103D01*
X029851Y034000D01*
X029865Y033897D01*
X029905Y033801D01*
X029968Y033718D01*
X030051Y033655D01*
X030097Y033636D01*
Y032963D01*
X029587Y032453D01*
X027313D01*
X026714Y033053D01*
X026755Y033115D01*
X026772Y033200D01*
X026755Y033285D01*
X026707Y033357D01*
X026635Y033405D01*
X026550Y033422D01*
X026465Y033405D01*
X026393Y033357D01*
X026345Y033285D01*
X026328Y033201D01*
X026280Y033186D01*
X025908Y033559D01*
X025927Y033605D01*
X026645D01*
Y034390D01*
X027032D01*
X027048Y034343D01*
X026968Y034282D01*
X026905Y034199D01*
X026865Y034103D01*
X026858Y034050D01*
X027642D01*
X027635Y034103D01*
X027595Y034199D01*
X027532Y034282D01*
X027452Y034343D01*
X027468Y034390D01*
X028032D01*
X028048Y034343D01*
X027968Y034282D01*
X027905Y034199D01*
X027865Y034103D01*
X027851Y034000D01*
X027865Y033897D01*
X027905Y033801D01*
X027968Y033718D01*
X028051Y033655D01*
X028097Y033636D01*
Y033100D01*
X028109Y033041D01*
X028130Y033010D01*
X028128Y033000D01*
X028145Y032915D01*
X028193Y032843D01*
X028265Y032795D01*
X028350Y032778D01*
X028435Y032795D01*
X028507Y032843D01*
X028555Y032915D01*
X028572Y033000D01*
X028555Y033085D01*
X028507Y033157D01*
X028435Y033205D01*
X028403Y033212D01*
Y033636D01*
X028449Y033655D01*
X028532Y033718D01*
X028595Y033801D01*
X028635Y033897D01*
X028649Y034000D01*
X028635Y034103D01*
X028595Y034199D01*
X028532Y034282D01*
X028452Y034343D01*
X028468Y034390D01*
X029032D01*
X029048Y034343D01*
X028968Y034282D01*
X028905Y034199D01*
X028865Y034103D01*
X028851Y034000D01*
X028865Y033897D01*
X028905Y033801D01*
X028968Y033718D01*
X029051Y033655D01*
X029147Y033615D01*
X029250Y033601D01*
X029353Y033615D01*
X029449Y033655D01*
X029532Y033718D01*
X029595Y033801D01*
X029635Y033897D01*
X029649Y034000D01*
X029635Y034103D01*
X029595Y034199D01*
X029532Y034282D01*
X029452Y034343D01*
X029468Y034390D01*
X030032D01*
X030048Y034343D01*
D02*
G37*
%LPC*%
G36*
X038645Y029895D02*
X037855D01*
Y029105D01*
X038645D01*
Y029895D01*
D02*
G37*
G36*
X033750Y029722D02*
X033665Y029705D01*
X033593Y029657D01*
X033545Y029585D01*
X033528Y029500D01*
X033529Y029495D01*
X033468Y029434D01*
X032985D01*
X032982Y029439D01*
X032931Y029473D01*
Y029523D01*
X032982Y029557D01*
X033030Y029629D01*
X033037Y029665D01*
X032612D01*
X032619Y029629D01*
X032668Y029557D01*
X032719Y029523D01*
Y029473D01*
X032668Y029439D01*
X032619Y029367D01*
X032602Y029281D01*
X032619Y029196D01*
X032668Y029124D01*
X032740Y029076D01*
X032825Y029059D01*
X032910Y029076D01*
X032982Y029124D01*
X032985Y029129D01*
X033531D01*
X033590Y029140D01*
X033640Y029173D01*
X033640Y029173D01*
X033640Y029173D01*
X033745Y029279D01*
X033750Y029278D01*
X033835Y029295D01*
X033907Y029343D01*
X033955Y029415D01*
X033972Y029500D01*
X033955Y029585D01*
X033907Y029657D01*
X033835Y029705D01*
X033750Y029722D01*
D02*
G37*
G36*
X027520Y028984D02*
Y028822D01*
X027683D01*
X027676Y028857D01*
X027628Y028929D01*
X027556Y028977D01*
X027520Y028984D01*
D02*
G37*
G36*
X030820D02*
X030785Y028977D01*
X030713Y028929D01*
X030665Y028857D01*
X030658Y028822D01*
X030820D01*
Y028984D01*
D02*
G37*
G36*
X029380D02*
X029344Y028977D01*
X029272Y028929D01*
X029224Y028857D01*
X029217Y028822D01*
X029380D01*
Y028984D01*
D02*
G37*
G36*
X030920D02*
Y028822D01*
X031083D01*
X031076Y028857D01*
X031028Y028929D01*
X030956Y028977D01*
X030920Y028984D01*
D02*
G37*
G36*
X031775Y029665D02*
X031612D01*
X031619Y029629D01*
X031668Y029557D01*
X031740Y029509D01*
X031775Y029502D01*
Y029665D01*
D02*
G37*
G36*
X032775Y029927D02*
X032740Y029920D01*
X032668Y029872D01*
X032619Y029800D01*
X032612Y029765D01*
X032775D01*
Y029927D01*
D02*
G37*
G36*
X032875D02*
Y029765D01*
X033037D01*
X033030Y029800D01*
X032982Y029872D01*
X032910Y029920D01*
X032875Y029927D01*
D02*
G37*
G36*
X038200Y030450D02*
X037858D01*
X037865Y030397D01*
X037905Y030301D01*
X037968Y030218D01*
X038051Y030155D01*
X038147Y030115D01*
X038200Y030108D01*
Y030450D01*
D02*
G37*
G36*
X031875Y029927D02*
Y029765D01*
X032037D01*
X032030Y029800D01*
X031982Y029872D01*
X031910Y029920D01*
X031875Y029927D01*
D02*
G37*
G36*
X032037Y029665D02*
X031875D01*
Y029502D01*
X031910Y029509D01*
X031982Y029557D01*
X032030Y029629D01*
X032037Y029665D01*
D02*
G37*
G36*
X026850Y031022D02*
X026765Y031005D01*
X026693Y030957D01*
X026645Y030885D01*
X026628Y030800D01*
X026645Y030715D01*
X026693Y030643D01*
X026697Y030640D01*
Y029960D01*
X026693Y029957D01*
X026645Y029885D01*
X026628Y029800D01*
X026645Y029715D01*
X026693Y029643D01*
X026765Y029595D01*
X026850Y029578D01*
X026935Y029595D01*
X027007Y029643D01*
X027055Y029715D01*
X027072Y029800D01*
X027055Y029885D01*
X027007Y029957D01*
X027003Y029960D01*
Y030640D01*
X027007Y030643D01*
X027055Y030715D01*
X027072Y030800D01*
X027055Y030885D01*
X027007Y030957D01*
X026935Y031005D01*
X026850Y031022D01*
D02*
G37*
G36*
X031775Y029927D02*
X031740Y029920D01*
X031668Y029872D01*
X031619Y029800D01*
X031612Y029765D01*
X031775D01*
Y029927D01*
D02*
G37*
G36*
X025980Y028722D02*
X025817D01*
X025824Y028687D01*
X025872Y028614D01*
X025944Y028566D01*
X025980Y028559D01*
Y028722D01*
D02*
G37*
G36*
X026242D02*
X026080D01*
Y028559D01*
X026115Y028566D01*
X026187Y028614D01*
X026235Y028687D01*
X026242Y028722D01*
D02*
G37*
G36*
X027420D02*
X027258D01*
X027265Y028687D01*
X027313Y028614D01*
X027385Y028566D01*
X027420Y028559D01*
Y028722D01*
D02*
G37*
G36*
X029300Y028392D02*
Y028050D01*
X029642D01*
X029635Y028103D01*
X029595Y028199D01*
X029532Y028282D01*
X029449Y028345D01*
X029353Y028385D01*
X029300Y028392D01*
D02*
G37*
G36*
X028200D02*
X028147Y028385D01*
X028051Y028345D01*
X027968Y028282D01*
X027905Y028199D01*
X027865Y028103D01*
X027858Y028050D01*
X028200D01*
Y028392D01*
D02*
G37*
G36*
X028300D02*
Y028050D01*
X028642D01*
X028635Y028103D01*
X028595Y028199D01*
X028532Y028282D01*
X028449Y028345D01*
X028353Y028385D01*
X028300Y028392D01*
D02*
G37*
G36*
X029200D02*
X029147Y028385D01*
X029051Y028345D01*
X028968Y028282D01*
X028905Y028199D01*
X028865Y028103D01*
X028858Y028050D01*
X029200D01*
Y028392D01*
D02*
G37*
G36*
X025980Y028984D02*
X025944Y028977D01*
X025872Y028929D01*
X025824Y028857D01*
X025817Y028822D01*
X025980D01*
Y028984D01*
D02*
G37*
G36*
X026080D02*
Y028822D01*
X026242D01*
X026235Y028857D01*
X026187Y028929D01*
X026115Y028977D01*
X026080Y028984D01*
D02*
G37*
G36*
X027420D02*
X027385Y028977D01*
X027313Y028929D01*
X027265Y028857D01*
X027258Y028822D01*
X027420D01*
Y028984D01*
D02*
G37*
G36*
X031083Y028722D02*
X030920D01*
Y028559D01*
X030956Y028566D01*
X031028Y028614D01*
X031076Y028687D01*
X031083Y028722D01*
D02*
G37*
G36*
X027683D02*
X027520D01*
Y028559D01*
X027556Y028566D01*
X027628Y028614D01*
X027676Y028687D01*
X027683Y028722D01*
D02*
G37*
G36*
X029380D02*
X029217D01*
X029224Y028687D01*
X029272Y028614D01*
X029344Y028566D01*
X029380Y028559D01*
Y028722D01*
D02*
G37*
G36*
X030820D02*
X030658D01*
X030665Y028687D01*
X030713Y028614D01*
X030785Y028566D01*
X030820Y028559D01*
Y028722D01*
D02*
G37*
G36*
X038642Y030450D02*
X038300D01*
Y030108D01*
X038353Y030115D01*
X038449Y030155D01*
X038532Y030218D01*
X038595Y030301D01*
X038635Y030397D01*
X038642Y030450D01*
D02*
G37*
G36*
X029097Y033212D02*
X029062Y033205D01*
X028990Y033157D01*
X028941Y033085D01*
X028934Y033050D01*
X029097D01*
Y033212D01*
D02*
G37*
G36*
X029197D02*
Y033050D01*
X029359D01*
X029352Y033085D01*
X029304Y033157D01*
X029232Y033205D01*
X029197Y033212D01*
D02*
G37*
G36*
X027200Y033950D02*
X026858D01*
X026865Y033897D01*
X026905Y033801D01*
X026968Y033718D01*
X027051Y033655D01*
X027147Y033615D01*
X027200Y033608D01*
Y033950D01*
D02*
G37*
G36*
X029359Y032950D02*
X029197D01*
Y032788D01*
X029232Y032795D01*
X029304Y032843D01*
X029352Y032915D01*
X029359Y032950D01*
D02*
G37*
G36*
X038250Y032899D02*
X038147Y032885D01*
X038051Y032845D01*
X037968Y032782D01*
X037905Y032699D01*
X037865Y032603D01*
X037851Y032500D01*
X037865Y032397D01*
X037905Y032301D01*
X037968Y032218D01*
X038051Y032155D01*
X038147Y032115D01*
X038250Y032101D01*
X038353Y032115D01*
X038449Y032155D01*
X038532Y032218D01*
X038595Y032301D01*
X038635Y032397D01*
X038649Y032500D01*
X038635Y032603D01*
X038595Y032699D01*
X038532Y032782D01*
X038449Y032845D01*
X038353Y032885D01*
X038250Y032899D01*
D02*
G37*
G36*
X030766Y032450D02*
X030603D01*
Y032288D01*
X030638Y032295D01*
X030710Y032343D01*
X030759Y032415D01*
X030766Y032450D01*
D02*
G37*
G36*
X029097Y032950D02*
X028934D01*
X028941Y032915D01*
X028990Y032843D01*
X029062Y032795D01*
X029097Y032788D01*
Y032950D01*
D02*
G37*
G36*
X031875Y034258D02*
Y034095D01*
X032037D01*
X032030Y034130D01*
X031982Y034203D01*
X031910Y034251D01*
X031875Y034258D01*
D02*
G37*
G36*
X032775D02*
X032740Y034251D01*
X032668Y034203D01*
X032619Y034130D01*
X032612Y034095D01*
X032775D01*
Y034258D01*
D02*
G37*
G36*
X032875D02*
Y034095D01*
X033037D01*
X033030Y034130D01*
X032982Y034203D01*
X032910Y034251D01*
X032875Y034258D01*
D02*
G37*
G36*
X033037Y033995D02*
X032875D01*
Y033833D01*
X032910Y033840D01*
X032982Y033888D01*
X033030Y033960D01*
X033037Y033995D01*
D02*
G37*
G36*
X027642Y033950D02*
X027300D01*
Y033608D01*
X027353Y033615D01*
X027449Y033655D01*
X027532Y033718D01*
X027595Y033801D01*
X027635Y033897D01*
X027642Y033950D01*
D02*
G37*
G36*
X032037Y033995D02*
X031875D01*
Y033833D01*
X031910Y033840D01*
X031982Y033888D01*
X032030Y033960D01*
X032037Y033995D01*
D02*
G37*
G36*
X032775D02*
X032612D01*
X032619Y033960D01*
X032668Y033888D01*
X032740Y033840D01*
X032775Y033833D01*
Y033995D01*
D02*
G37*
G36*
X026172Y030716D02*
X026137Y030709D01*
X026065Y030660D01*
X026017Y030588D01*
X026010Y030553D01*
X026172D01*
Y030716D01*
D02*
G37*
G36*
X026272D02*
Y030553D01*
X026435D01*
X026428Y030588D01*
X026380Y030660D01*
X026308Y030709D01*
X026272Y030716D01*
D02*
G37*
G36*
X031370Y030854D02*
X031285Y030837D01*
X031213Y030789D01*
X031210Y030784D01*
X030210D01*
X030207Y030789D01*
X030135Y030837D01*
X030050Y030854D01*
X029965Y030837D01*
X029893Y030789D01*
X029845Y030717D01*
X029828Y030631D01*
X029845Y030546D01*
X029893Y030474D01*
X029965Y030426D01*
X030050Y030409D01*
X030135Y030426D01*
X030207Y030474D01*
X030210Y030479D01*
X031210D01*
X031213Y030474D01*
X031285Y030426D01*
X031370Y030409D01*
X031456Y030426D01*
X031528Y030474D01*
X031576Y030546D01*
X031593Y030631D01*
X031576Y030717D01*
X031528Y030789D01*
X031456Y030837D01*
X031370Y030854D01*
D02*
G37*
G36*
X038300Y030892D02*
Y030550D01*
X038642D01*
X038635Y030603D01*
X038595Y030699D01*
X038532Y030782D01*
X038449Y030845D01*
X038353Y030885D01*
X038300Y030892D01*
D02*
G37*
G36*
X026172Y030453D02*
X026010D01*
X026017Y030418D01*
X026065Y030346D01*
X026137Y030298D01*
X026172Y030291D01*
Y030453D01*
D02*
G37*
G36*
X026435D02*
X026272D01*
Y030291D01*
X026308Y030298D01*
X026380Y030346D01*
X026428Y030418D01*
X026435Y030453D01*
D02*
G37*
G36*
X038200Y030892D02*
X038147Y030885D01*
X038051Y030845D01*
X037968Y030782D01*
X037905Y030699D01*
X037865Y030603D01*
X037858Y030550D01*
X038200D01*
Y030892D01*
D02*
G37*
G36*
X031600Y031812D02*
Y031650D01*
X031762D01*
X031755Y031685D01*
X031707Y031757D01*
X031635Y031805D01*
X031600Y031812D01*
D02*
G37*
G36*
X031200D02*
X031165Y031805D01*
X031100Y031762D01*
X031035Y031805D01*
X031000Y031812D01*
Y031600D01*
Y031388D01*
X031035Y031395D01*
X031100Y031438D01*
X031165Y031395D01*
X031200Y031388D01*
Y031600D01*
Y031812D01*
D02*
G37*
G36*
X031500D02*
X031465Y031805D01*
X031400Y031762D01*
X031335Y031805D01*
X031300Y031812D01*
Y031600D01*
Y031388D01*
X031335Y031395D01*
X031400Y031438D01*
X031465Y031395D01*
X031500Y031388D01*
Y031600D01*
Y031812D01*
D02*
G37*
G36*
X030900D02*
X030865Y031805D01*
X030793Y031757D01*
X030745Y031685D01*
X030738Y031650D01*
X030900D01*
Y031812D01*
D02*
G37*
G36*
X038250Y031899D02*
X038147Y031885D01*
X038051Y031845D01*
X037968Y031782D01*
X037905Y031699D01*
X037865Y031603D01*
X037851Y031500D01*
X037865Y031397D01*
X037905Y031301D01*
X037968Y031218D01*
X038051Y031155D01*
X038147Y031115D01*
X038250Y031101D01*
X038353Y031115D01*
X038449Y031155D01*
X038532Y031218D01*
X038595Y031301D01*
X038635Y031397D01*
X038649Y031500D01*
X038635Y031603D01*
X038595Y031699D01*
X038532Y031782D01*
X038449Y031845D01*
X038353Y031885D01*
X038250Y031899D01*
D02*
G37*
G36*
X030900Y031550D02*
X030738D01*
X030745Y031515D01*
X030793Y031443D01*
X030865Y031395D01*
X030900Y031388D01*
Y031550D01*
D02*
G37*
G36*
X031762D02*
X031600D01*
Y031388D01*
X031635Y031395D01*
X031707Y031443D01*
X031755Y031515D01*
X031762Y031550D01*
D02*
G37*
%LPD*%
D17*
X033531Y029281D02*
X033750Y029500D01*
X032825Y029281D02*
X033531D01*
X031050Y029800D02*
X032050Y028800D01*
X029450Y029800D02*
X031050D01*
X031278Y028772D02*
X032050Y028000D01*
X031250Y029200D02*
X032050Y028400D01*
Y028000D02*
X032450D01*
X032550Y028100D02*
Y029715D01*
X029750Y032100D02*
X031250Y033600D01*
X027150Y032100D02*
X029750D01*
X025650Y033600D02*
X027150Y032100D01*
X029650Y032300D02*
X030250Y032900D01*
X027250Y032300D02*
X029650D01*
X026550Y033000D02*
X027250Y032300D01*
X028250Y033100D02*
X028350Y033000D01*
X026550D02*
Y033200D01*
X025650Y033600D02*
Y033797D01*
X031250Y033600D02*
Y034000D01*
X030250Y032900D02*
Y034000D01*
X026450Y028772D02*
X027470D01*
X026030D02*
X026450D01*
Y029000D01*
X026222Y029228D02*
X026450Y029000D01*
X026222Y029228D02*
Y030503D01*
X031550Y031200D02*
Y031600D01*
Y031200D02*
X031825Y030925D01*
Y029715D02*
Y030925D01*
Y031625D02*
Y034045D01*
Y031625D02*
X031850Y031600D01*
X031550D02*
X031850D01*
X033950Y030500D02*
X038250D01*
X033165Y029715D02*
X033950Y030500D01*
X032825Y029715D02*
X033165D01*
X032550D02*
X032825D01*
X028250Y028000D02*
X029250D01*
X032450D02*
X032550Y028100D01*
X030870Y028772D02*
X031278D01*
X028250D02*
X029430D01*
X027470D02*
X028250D01*
Y028000D02*
Y028772D01*
Y033100D02*
Y034000D01*
X030050Y030631D02*
X031370D01*
X030050Y029200D02*
X031250D01*
X029750Y028500D02*
X030250Y028000D01*
X029750Y028500D02*
Y029500D01*
X026850Y029800D02*
Y030800D01*
X025350Y029700D02*
Y031800D01*
X025050Y032100D02*
X025350Y031800D01*
D19*
X031250Y028000D02*
D03*
X030250D02*
D03*
X029250D02*
D03*
X028250D02*
D03*
X027250D02*
D03*
X038250Y030500D02*
D03*
Y031500D02*
D03*
Y032500D02*
D03*
X031250Y034000D02*
D03*
X030250D02*
D03*
X029250D02*
D03*
X028250D02*
D03*
X027250D02*
D03*
D20*
X026250Y028000D02*
D03*
Y034000D02*
D03*
D21*
X038250Y029500D02*
D03*
D22*
X033750D02*
D03*
X030050Y030631D02*
D03*
X032050Y028800D02*
D03*
Y028400D02*
D03*
X028350Y033000D02*
D03*
X030553Y032500D02*
D03*
X029147Y033000D02*
D03*
X031825Y029715D02*
D03*
X031370Y030631D02*
D03*
X030050Y029200D02*
D03*
X029750Y029500D02*
D03*
X029450Y029800D02*
D03*
X026850D02*
D03*
Y030800D02*
D03*
X025650Y033797D02*
D03*
X026550Y033200D02*
D03*
X032825Y029281D02*
D03*
X026222Y030503D02*
D03*
X025050Y032100D02*
D03*
X025350Y029700D02*
D03*
X030950Y031600D02*
D03*
X031250D02*
D03*
X031550D02*
D03*
X031825Y034045D02*
D03*
X032825D02*
D03*
Y029715D02*
D03*
X030870Y028772D02*
D03*
X029430D02*
D03*
X027470D02*
D03*
X026030D02*
D03*
M02*
